G04 EAGLE Gerber RS-274X export*
G75*
%MOMM*%
%FSLAX34Y34*%
%LPD*%
%INSilkscreen Top*%
%IPPOS*%
%AMOC8*
5,1,8,0,0,1.08239X$1,22.5*%
G01*
%ADD10C,0.101600*%
%ADD11C,0.152400*%
%ADD12R,0.014731X0.014731*%
%ADD13R,0.147319X0.014731*%
%ADD14R,0.265175X0.014731*%
%ADD15R,0.383031X0.014731*%
%ADD16R,0.515619X0.014731*%
%ADD17R,0.633475X0.014731*%
%ADD18R,0.751331X0.014731*%
%ADD19R,0.883919X0.014731*%
%ADD20R,1.001775X0.014731*%
%ADD21R,1.119631X0.014731*%
%ADD22R,1.134363X0.014731*%
%ADD23R,1.149094X0.014731*%
%ADD24R,1.163825X0.014731*%
%ADD25R,1.178556X0.014731*%
%ADD26R,1.193288X0.014731*%
%ADD27R,1.222756X0.014731*%
%ADD28R,1.237488X0.014731*%
%ADD29R,1.266950X0.014731*%
%ADD30R,1.281681X0.014731*%
%ADD31R,1.311144X0.014731*%
%ADD32R,1.325881X0.014731*%
%ADD33R,1.355344X0.014731*%
%ADD34R,1.370075X0.014731*%
%ADD35R,1.384806X0.014731*%
%ADD36R,1.399538X0.014731*%
%ADD37R,1.414275X0.014731*%
%ADD38R,1.443738X0.014731*%
%ADD39R,1.458469X0.014731*%
%ADD40R,1.487931X0.014731*%
%ADD41R,1.502663X0.014731*%
%ADD42R,1.517394X0.014731*%
%ADD43R,1.532125X0.014731*%
%ADD44R,1.546856X0.014731*%
%ADD45R,1.576319X0.014731*%
%ADD46R,1.605788X0.014731*%
%ADD47R,1.620519X0.014731*%
%ADD48R,1.649981X0.014731*%
%ADD49R,1.664713X0.014731*%
%ADD50R,1.694175X0.014731*%
%ADD51R,1.708913X0.014731*%
%ADD52R,1.738375X0.014731*%
%ADD53R,1.753106X0.014731*%
%ADD54R,1.767838X0.014731*%
%ADD55R,1.782569X0.014731*%
%ADD56R,1.797306X0.014731*%
%ADD57R,0.117856X0.014731*%
%ADD58R,1.826769X0.014731*%
%ADD59R,0.235713X0.014731*%
%ADD60R,0.353569X0.014731*%
%ADD61R,1.856231X0.014731*%
%ADD62R,0.486156X0.014731*%
%ADD63R,1.870963X0.014731*%
%ADD64R,0.604013X0.014731*%
%ADD65R,0.721869X0.014731*%
%ADD66R,1.885694X0.014731*%
%ADD67R,0.839719X0.014731*%
%ADD68R,0.972306X0.014731*%
%ADD69R,1.090169X0.014731*%
%ADD70R,1.208025X0.014731*%
%ADD71R,1.252219X0.014731*%
%ADD72R,1.296412X0.014731*%
%ADD73R,1.340612X0.014731*%
%ADD74R,1.826763X0.014731*%
%ADD75R,1.414269X0.014731*%
%ADD76R,1.812031X0.014731*%
%ADD77R,1.429000X0.014731*%
%ADD78R,1.458462X0.014731*%
%ADD79R,1.473200X0.014731*%
%ADD80R,1.723644X0.014731*%
%ADD81R,1.694181X0.014731*%
%ADD82R,1.679450X0.014731*%
%ADD83R,1.561594X0.014731*%
%ADD84R,1.576325X0.014731*%
%ADD85R,1.591056X0.014731*%
%ADD86R,1.635250X0.014731*%
%ADD87R,1.561588X0.014731*%
%ADD88R,1.443731X0.014731*%
%ADD89R,1.797300X0.014731*%
%ADD90R,1.841500X0.014731*%
%ADD91R,1.311150X0.014731*%
%ADD92R,1.296419X0.014731*%
%ADD93R,1.193294X0.014731*%
%ADD94R,0.957575X0.014731*%
%ADD95R,0.589281X0.014731*%
%ADD96R,0.471425X0.014731*%
%ADD97R,0.220975X0.014731*%
%ADD98R,1.812038X0.014731*%
%ADD99R,0.103119X0.014731*%
%ADD100R,0.029463X0.014731*%
%ADD101R,0.162050X0.014731*%
%ADD102R,0.397763X0.014731*%
%ADD103R,0.648206X0.014731*%
%ADD104R,1.679444X0.014731*%
%ADD105R,1.016506X0.014731*%
%ADD106R,1.104900X0.014731*%
%ADD107R,1.222750X0.014731*%
%ADD108R,1.429006X0.014731*%
%ADD109R,1.208019X0.014731*%
%ADD110R,0.987044X0.014731*%
%ADD111R,0.854456X0.014731*%
%ADD112R,0.618744X0.014731*%
%ADD113R,0.500888X0.014731*%
%ADD114R,0.368300X0.014731*%
%ADD115R,0.132587X0.014731*%
%ADD116R,1.664719X0.014731*%
%ADD117R,1.075438X0.014731*%
%ADD118R,0.942844X0.014731*%
%ADD119R,0.707131X0.014731*%
%ADD120R,0.456694X0.014731*%
%ADD121R,0.088388X0.014731*%
%ADD122C,0.127000*%
%ADD123C,0.076200*%
%ADD124C,0.203200*%
%ADD125C,0.177800*%

G36*
X261275Y429933D02*
X261275Y429933D01*
X261309Y429930D01*
X261374Y429949D01*
X261440Y429959D01*
X261469Y429977D01*
X261501Y429986D01*
X261553Y430029D01*
X261611Y430064D01*
X261633Y430093D01*
X261657Y430113D01*
X261680Y430156D01*
X261719Y430208D01*
X264894Y436558D01*
X264899Y436580D01*
X264912Y436598D01*
X264926Y436676D01*
X264946Y436752D01*
X264943Y436774D01*
X264947Y436795D01*
X264930Y436872D01*
X264920Y436950D01*
X264908Y436969D01*
X264904Y436991D01*
X264858Y437055D01*
X264818Y437123D01*
X264800Y437136D01*
X264788Y437154D01*
X264721Y437196D01*
X264658Y437243D01*
X264636Y437249D01*
X264617Y437260D01*
X264516Y437279D01*
X264463Y437292D01*
X264452Y437290D01*
X264440Y437292D01*
X258090Y437292D01*
X258068Y437288D01*
X258046Y437290D01*
X257971Y437268D01*
X257894Y437253D01*
X257875Y437240D01*
X257854Y437234D01*
X257793Y437184D01*
X257728Y437140D01*
X257716Y437121D01*
X257698Y437108D01*
X257661Y437038D01*
X257618Y436972D01*
X257615Y436950D01*
X257604Y436931D01*
X257597Y436852D01*
X257583Y436775D01*
X257588Y436753D01*
X257586Y436731D01*
X257615Y436632D01*
X257626Y436579D01*
X257633Y436570D01*
X257636Y436558D01*
X260811Y430208D01*
X260853Y430155D01*
X260887Y430097D01*
X260914Y430077D01*
X260935Y430050D01*
X260993Y430017D01*
X261047Y429977D01*
X261080Y429969D01*
X261110Y429952D01*
X261177Y429945D01*
X261242Y429928D01*
X261275Y429933D01*
G37*
G36*
X391692Y407310D02*
X391692Y407310D01*
X391770Y407320D01*
X391789Y407332D01*
X391811Y407336D01*
X391875Y407382D01*
X391943Y407422D01*
X391956Y407440D01*
X391974Y407452D01*
X392016Y407519D01*
X392063Y407582D01*
X392069Y407604D01*
X392080Y407623D01*
X392099Y407724D01*
X392112Y407777D01*
X392110Y407788D01*
X392112Y407800D01*
X392112Y414150D01*
X392108Y414172D01*
X392110Y414194D01*
X392088Y414269D01*
X392073Y414347D01*
X392060Y414365D01*
X392054Y414386D01*
X392004Y414447D01*
X391960Y414512D01*
X391941Y414524D01*
X391928Y414542D01*
X391858Y414579D01*
X391792Y414622D01*
X391770Y414625D01*
X391751Y414636D01*
X391672Y414643D01*
X391595Y414657D01*
X391573Y414652D01*
X391551Y414654D01*
X391452Y414625D01*
X391399Y414614D01*
X391390Y414607D01*
X391378Y414604D01*
X385028Y411429D01*
X384975Y411387D01*
X384917Y411353D01*
X384897Y411326D01*
X384870Y411305D01*
X384837Y411247D01*
X384797Y411193D01*
X384789Y411160D01*
X384772Y411131D01*
X384765Y411064D01*
X384748Y410998D01*
X384753Y410965D01*
X384750Y410931D01*
X384769Y410867D01*
X384779Y410800D01*
X384797Y410771D01*
X384806Y410739D01*
X384849Y410687D01*
X384884Y410629D01*
X384913Y410607D01*
X384933Y410583D01*
X384976Y410560D01*
X385028Y410521D01*
X391378Y407346D01*
X391400Y407341D01*
X391418Y407328D01*
X391496Y407314D01*
X391572Y407294D01*
X391594Y407297D01*
X391615Y407293D01*
X391692Y407310D01*
G37*
D10*
X497242Y331524D02*
X497242Y334770D01*
X497240Y334883D01*
X497234Y334996D01*
X497224Y335109D01*
X497210Y335222D01*
X497193Y335334D01*
X497171Y335445D01*
X497146Y335555D01*
X497116Y335665D01*
X497083Y335773D01*
X497046Y335880D01*
X497006Y335986D01*
X496961Y336090D01*
X496913Y336193D01*
X496862Y336294D01*
X496807Y336393D01*
X496749Y336490D01*
X496687Y336585D01*
X496622Y336678D01*
X496554Y336768D01*
X496483Y336856D01*
X496408Y336942D01*
X496331Y337025D01*
X496251Y337105D01*
X496168Y337182D01*
X496082Y337257D01*
X495994Y337328D01*
X495904Y337396D01*
X495811Y337461D01*
X495716Y337523D01*
X495619Y337581D01*
X495520Y337636D01*
X495419Y337687D01*
X495316Y337735D01*
X495212Y337780D01*
X495106Y337820D01*
X494999Y337857D01*
X494891Y337890D01*
X494781Y337920D01*
X494671Y337945D01*
X494560Y337967D01*
X494448Y337984D01*
X494335Y337998D01*
X494222Y338008D01*
X494109Y338014D01*
X493996Y338016D01*
X493883Y338014D01*
X493770Y338008D01*
X493657Y337998D01*
X493544Y337984D01*
X493432Y337967D01*
X493321Y337945D01*
X493211Y337920D01*
X493101Y337890D01*
X492993Y337857D01*
X492886Y337820D01*
X492780Y337780D01*
X492676Y337735D01*
X492573Y337687D01*
X492472Y337636D01*
X492373Y337581D01*
X492276Y337523D01*
X492181Y337461D01*
X492088Y337396D01*
X491998Y337328D01*
X491910Y337257D01*
X491824Y337182D01*
X491741Y337105D01*
X491661Y337025D01*
X491584Y336942D01*
X491509Y336856D01*
X491438Y336768D01*
X491370Y336678D01*
X491305Y336585D01*
X491243Y336490D01*
X491185Y336393D01*
X491130Y336294D01*
X491079Y336193D01*
X491031Y336090D01*
X490986Y335986D01*
X490946Y335880D01*
X490909Y335773D01*
X490876Y335665D01*
X490846Y335555D01*
X490821Y335445D01*
X490799Y335334D01*
X490782Y335222D01*
X490768Y335109D01*
X490758Y334996D01*
X490752Y334883D01*
X490750Y334770D01*
X485558Y335419D02*
X485558Y331524D01*
X485558Y335419D02*
X485560Y335520D01*
X485566Y335620D01*
X485576Y335720D01*
X485589Y335820D01*
X485607Y335919D01*
X485628Y336018D01*
X485653Y336115D01*
X485682Y336212D01*
X485715Y336307D01*
X485751Y336401D01*
X485791Y336493D01*
X485834Y336584D01*
X485881Y336673D01*
X485931Y336760D01*
X485985Y336846D01*
X486042Y336929D01*
X486102Y337009D01*
X486165Y337088D01*
X486232Y337164D01*
X486301Y337237D01*
X486373Y337307D01*
X486447Y337375D01*
X486524Y337440D01*
X486604Y337501D01*
X486686Y337560D01*
X486770Y337615D01*
X486856Y337667D01*
X486944Y337716D01*
X487034Y337761D01*
X487126Y337803D01*
X487219Y337841D01*
X487314Y337875D01*
X487409Y337906D01*
X487506Y337933D01*
X487604Y337956D01*
X487703Y337976D01*
X487803Y337991D01*
X487903Y338003D01*
X488003Y338011D01*
X488104Y338015D01*
X488204Y338015D01*
X488305Y338011D01*
X488405Y338003D01*
X488505Y337991D01*
X488605Y337976D01*
X488704Y337956D01*
X488802Y337933D01*
X488899Y337906D01*
X488994Y337875D01*
X489089Y337841D01*
X489182Y337803D01*
X489274Y337761D01*
X489364Y337716D01*
X489452Y337667D01*
X489538Y337615D01*
X489622Y337560D01*
X489704Y337501D01*
X489784Y337440D01*
X489861Y337375D01*
X489935Y337307D01*
X490007Y337237D01*
X490076Y337164D01*
X490143Y337088D01*
X490206Y337009D01*
X490266Y336929D01*
X490323Y336846D01*
X490377Y336760D01*
X490427Y336673D01*
X490474Y336584D01*
X490517Y336493D01*
X490557Y336401D01*
X490593Y336307D01*
X490626Y336212D01*
X490655Y336115D01*
X490680Y336018D01*
X490701Y335919D01*
X490719Y335820D01*
X490732Y335720D01*
X490742Y335620D01*
X490748Y335520D01*
X490750Y335419D01*
X490751Y335419D02*
X490751Y332823D01*
X485558Y342305D02*
X497242Y346200D01*
X485558Y350095D01*
X497242Y354384D02*
X497242Y357630D01*
X497240Y357743D01*
X497234Y357856D01*
X497224Y357969D01*
X497210Y358082D01*
X497193Y358194D01*
X497171Y358305D01*
X497146Y358415D01*
X497116Y358525D01*
X497083Y358633D01*
X497046Y358740D01*
X497006Y358846D01*
X496961Y358950D01*
X496913Y359053D01*
X496862Y359154D01*
X496807Y359253D01*
X496749Y359350D01*
X496687Y359445D01*
X496622Y359538D01*
X496554Y359628D01*
X496483Y359716D01*
X496408Y359802D01*
X496331Y359885D01*
X496251Y359965D01*
X496168Y360042D01*
X496082Y360117D01*
X495994Y360188D01*
X495904Y360256D01*
X495811Y360321D01*
X495716Y360383D01*
X495619Y360441D01*
X495520Y360496D01*
X495419Y360547D01*
X495316Y360595D01*
X495212Y360640D01*
X495106Y360680D01*
X494999Y360717D01*
X494891Y360750D01*
X494781Y360780D01*
X494671Y360805D01*
X494560Y360827D01*
X494448Y360844D01*
X494335Y360858D01*
X494222Y360868D01*
X494109Y360874D01*
X493996Y360876D01*
X493883Y360874D01*
X493770Y360868D01*
X493657Y360858D01*
X493544Y360844D01*
X493432Y360827D01*
X493321Y360805D01*
X493211Y360780D01*
X493101Y360750D01*
X492993Y360717D01*
X492886Y360680D01*
X492780Y360640D01*
X492676Y360595D01*
X492573Y360547D01*
X492472Y360496D01*
X492373Y360441D01*
X492276Y360383D01*
X492181Y360321D01*
X492088Y360256D01*
X491998Y360188D01*
X491910Y360117D01*
X491824Y360042D01*
X491741Y359965D01*
X491661Y359885D01*
X491584Y359802D01*
X491509Y359716D01*
X491438Y359628D01*
X491370Y359538D01*
X491305Y359445D01*
X491243Y359350D01*
X491185Y359253D01*
X491130Y359154D01*
X491079Y359053D01*
X491031Y358950D01*
X490986Y358846D01*
X490946Y358740D01*
X490909Y358633D01*
X490876Y358525D01*
X490846Y358415D01*
X490821Y358305D01*
X490799Y358194D01*
X490782Y358082D01*
X490768Y357969D01*
X490758Y357856D01*
X490752Y357743D01*
X490750Y357630D01*
X485558Y358279D02*
X485558Y354384D01*
X485558Y358279D02*
X485560Y358380D01*
X485566Y358480D01*
X485576Y358580D01*
X485589Y358680D01*
X485607Y358779D01*
X485628Y358878D01*
X485653Y358975D01*
X485682Y359072D01*
X485715Y359167D01*
X485751Y359261D01*
X485791Y359353D01*
X485834Y359444D01*
X485881Y359533D01*
X485931Y359620D01*
X485985Y359706D01*
X486042Y359789D01*
X486102Y359869D01*
X486165Y359948D01*
X486232Y360024D01*
X486301Y360097D01*
X486373Y360167D01*
X486447Y360235D01*
X486524Y360300D01*
X486604Y360361D01*
X486686Y360420D01*
X486770Y360475D01*
X486856Y360527D01*
X486944Y360576D01*
X487034Y360621D01*
X487126Y360663D01*
X487219Y360701D01*
X487314Y360735D01*
X487409Y360766D01*
X487506Y360793D01*
X487604Y360816D01*
X487703Y360836D01*
X487803Y360851D01*
X487903Y360863D01*
X488003Y360871D01*
X488104Y360875D01*
X488204Y360875D01*
X488305Y360871D01*
X488405Y360863D01*
X488505Y360851D01*
X488605Y360836D01*
X488704Y360816D01*
X488802Y360793D01*
X488899Y360766D01*
X488994Y360735D01*
X489089Y360701D01*
X489182Y360663D01*
X489274Y360621D01*
X489364Y360576D01*
X489452Y360527D01*
X489538Y360475D01*
X489622Y360420D01*
X489704Y360361D01*
X489784Y360300D01*
X489861Y360235D01*
X489935Y360167D01*
X490007Y360097D01*
X490076Y360024D01*
X490143Y359948D01*
X490206Y359869D01*
X490266Y359789D01*
X490323Y359706D01*
X490377Y359620D01*
X490427Y359533D01*
X490474Y359444D01*
X490517Y359353D01*
X490557Y359261D01*
X490593Y359167D01*
X490626Y359072D01*
X490655Y358975D01*
X490680Y358878D01*
X490701Y358779D01*
X490719Y358680D01*
X490732Y358580D01*
X490742Y358480D01*
X490748Y358380D01*
X490750Y358279D01*
X490751Y358279D02*
X490751Y355683D01*
X412788Y209159D02*
X410129Y207297D01*
X412788Y209158D02*
X412879Y209225D01*
X412969Y209294D01*
X413056Y209367D01*
X413140Y209443D01*
X413221Y209522D01*
X413300Y209603D01*
X413376Y209687D01*
X413449Y209774D01*
X413518Y209864D01*
X413585Y209955D01*
X413648Y210049D01*
X413708Y210145D01*
X413765Y210243D01*
X413818Y210343D01*
X413868Y210445D01*
X413914Y210549D01*
X413956Y210654D01*
X413995Y210760D01*
X414030Y210868D01*
X414061Y210977D01*
X414089Y211087D01*
X414112Y211198D01*
X414132Y211309D01*
X414148Y211421D01*
X414160Y211534D01*
X414168Y211647D01*
X414172Y211760D01*
X414172Y211874D01*
X414168Y211987D01*
X414160Y212100D01*
X414148Y212213D01*
X414132Y212325D01*
X414112Y212436D01*
X414089Y212547D01*
X414061Y212657D01*
X414030Y212766D01*
X413995Y212874D01*
X413956Y212980D01*
X413914Y213085D01*
X413868Y213189D01*
X413818Y213291D01*
X413765Y213391D01*
X413708Y213489D01*
X413648Y213585D01*
X413585Y213679D01*
X413518Y213770D01*
X413449Y213860D01*
X413376Y213947D01*
X413300Y214031D01*
X413221Y214112D01*
X413140Y214191D01*
X413056Y214267D01*
X412969Y214340D01*
X412880Y214409D01*
X412788Y214476D01*
X412694Y214539D01*
X412598Y214599D01*
X412500Y214656D01*
X412400Y214709D01*
X412298Y214759D01*
X412194Y214805D01*
X412089Y214847D01*
X411983Y214886D01*
X411875Y214921D01*
X411766Y214952D01*
X411656Y214980D01*
X411545Y215003D01*
X411434Y215023D01*
X411322Y215039D01*
X411209Y215051D01*
X411096Y215059D01*
X410983Y215063D01*
X410869Y215063D01*
X410756Y215059D01*
X410643Y215051D01*
X410530Y215039D01*
X410418Y215023D01*
X410307Y215003D01*
X410196Y214980D01*
X410086Y214952D01*
X409977Y214921D01*
X409869Y214886D01*
X409763Y214847D01*
X409658Y214805D01*
X409554Y214759D01*
X409452Y214709D01*
X409352Y214656D01*
X409254Y214599D01*
X409158Y214539D01*
X409064Y214476D01*
X406618Y219102D02*
X403428Y216868D01*
X406618Y219102D02*
X406702Y219158D01*
X406787Y219211D01*
X406875Y219260D01*
X406964Y219306D01*
X407056Y219349D01*
X407149Y219388D01*
X407243Y219423D01*
X407338Y219455D01*
X407435Y219483D01*
X407533Y219507D01*
X407631Y219527D01*
X407731Y219544D01*
X407831Y219556D01*
X407931Y219565D01*
X408032Y219570D01*
X408132Y219571D01*
X408233Y219568D01*
X408333Y219561D01*
X408433Y219550D01*
X408533Y219536D01*
X408632Y219517D01*
X408730Y219495D01*
X408827Y219469D01*
X408924Y219439D01*
X409019Y219406D01*
X409112Y219369D01*
X409204Y219328D01*
X409295Y219283D01*
X409383Y219236D01*
X409470Y219184D01*
X409554Y219130D01*
X409637Y219072D01*
X409717Y219011D01*
X409795Y218947D01*
X409870Y218880D01*
X409943Y218811D01*
X410012Y218738D01*
X410079Y218663D01*
X410143Y218585D01*
X410204Y218505D01*
X410262Y218422D01*
X410316Y218338D01*
X410368Y218251D01*
X410415Y218163D01*
X410460Y218072D01*
X410501Y217980D01*
X410538Y217886D01*
X410571Y217792D01*
X410601Y217695D01*
X410627Y217598D01*
X410649Y217500D01*
X410668Y217401D01*
X410682Y217301D01*
X410693Y217201D01*
X410700Y217101D01*
X410703Y217000D01*
X410702Y216900D01*
X410697Y216799D01*
X410688Y216699D01*
X410676Y216599D01*
X410659Y216499D01*
X410639Y216401D01*
X410615Y216303D01*
X410587Y216206D01*
X410555Y216111D01*
X410520Y216017D01*
X410481Y215924D01*
X410438Y215832D01*
X410392Y215743D01*
X410343Y215655D01*
X410290Y215570D01*
X410234Y215486D01*
X410174Y215405D01*
X410112Y215326D01*
X410046Y215249D01*
X409978Y215175D01*
X409907Y215104D01*
X409833Y215036D01*
X409756Y214970D01*
X409677Y214908D01*
X409596Y214848D01*
X407470Y213359D01*
X412259Y223052D02*
X422151Y215714D01*
X418639Y227519D01*
X428855Y220409D02*
X431514Y222270D01*
X431605Y222337D01*
X431695Y222406D01*
X431782Y222479D01*
X431866Y222555D01*
X431947Y222634D01*
X432026Y222715D01*
X432102Y222799D01*
X432175Y222886D01*
X432244Y222976D01*
X432311Y223067D01*
X432374Y223161D01*
X432434Y223257D01*
X432491Y223355D01*
X432544Y223455D01*
X432594Y223557D01*
X432640Y223661D01*
X432682Y223766D01*
X432721Y223872D01*
X432756Y223980D01*
X432787Y224089D01*
X432815Y224199D01*
X432838Y224310D01*
X432858Y224421D01*
X432874Y224533D01*
X432886Y224646D01*
X432894Y224759D01*
X432898Y224872D01*
X432898Y224986D01*
X432894Y225099D01*
X432886Y225212D01*
X432874Y225325D01*
X432858Y225437D01*
X432838Y225548D01*
X432815Y225659D01*
X432787Y225769D01*
X432756Y225878D01*
X432721Y225986D01*
X432682Y226092D01*
X432640Y226197D01*
X432594Y226301D01*
X432544Y226403D01*
X432491Y226503D01*
X432434Y226601D01*
X432374Y226697D01*
X432311Y226791D01*
X432244Y226882D01*
X432175Y226972D01*
X432102Y227059D01*
X432026Y227143D01*
X431947Y227224D01*
X431866Y227303D01*
X431782Y227379D01*
X431695Y227452D01*
X431606Y227521D01*
X431514Y227588D01*
X431420Y227651D01*
X431324Y227711D01*
X431226Y227768D01*
X431126Y227821D01*
X431024Y227871D01*
X430920Y227917D01*
X430815Y227959D01*
X430709Y227998D01*
X430601Y228033D01*
X430492Y228064D01*
X430382Y228092D01*
X430271Y228115D01*
X430160Y228135D01*
X430048Y228151D01*
X429935Y228163D01*
X429822Y228171D01*
X429709Y228175D01*
X429595Y228175D01*
X429482Y228171D01*
X429369Y228163D01*
X429256Y228151D01*
X429144Y228135D01*
X429033Y228115D01*
X428922Y228092D01*
X428812Y228064D01*
X428703Y228033D01*
X428595Y227998D01*
X428489Y227959D01*
X428384Y227917D01*
X428280Y227871D01*
X428178Y227821D01*
X428078Y227768D01*
X427980Y227711D01*
X427884Y227651D01*
X427790Y227588D01*
X425344Y232214D02*
X422153Y229980D01*
X425344Y232214D02*
X425428Y232270D01*
X425513Y232323D01*
X425601Y232372D01*
X425690Y232418D01*
X425782Y232461D01*
X425875Y232500D01*
X425969Y232535D01*
X426064Y232567D01*
X426161Y232595D01*
X426259Y232619D01*
X426357Y232639D01*
X426457Y232656D01*
X426557Y232668D01*
X426657Y232677D01*
X426758Y232682D01*
X426858Y232683D01*
X426959Y232680D01*
X427059Y232673D01*
X427159Y232662D01*
X427259Y232648D01*
X427358Y232629D01*
X427456Y232607D01*
X427553Y232581D01*
X427650Y232551D01*
X427745Y232518D01*
X427838Y232481D01*
X427930Y232440D01*
X428021Y232395D01*
X428109Y232348D01*
X428196Y232296D01*
X428280Y232242D01*
X428363Y232184D01*
X428443Y232123D01*
X428521Y232059D01*
X428596Y231992D01*
X428669Y231923D01*
X428738Y231850D01*
X428805Y231775D01*
X428869Y231697D01*
X428930Y231617D01*
X428988Y231534D01*
X429042Y231450D01*
X429094Y231363D01*
X429141Y231275D01*
X429186Y231184D01*
X429227Y231092D01*
X429264Y230998D01*
X429297Y230904D01*
X429327Y230807D01*
X429353Y230710D01*
X429375Y230612D01*
X429394Y230513D01*
X429408Y230413D01*
X429419Y230313D01*
X429426Y230213D01*
X429429Y230112D01*
X429428Y230012D01*
X429423Y229911D01*
X429414Y229811D01*
X429402Y229711D01*
X429385Y229611D01*
X429365Y229513D01*
X429341Y229415D01*
X429313Y229318D01*
X429281Y229223D01*
X429246Y229129D01*
X429207Y229036D01*
X429164Y228944D01*
X429118Y228855D01*
X429069Y228767D01*
X429016Y228682D01*
X428960Y228598D01*
X428900Y228517D01*
X428838Y228438D01*
X428772Y228361D01*
X428704Y228287D01*
X428633Y228216D01*
X428559Y228148D01*
X428482Y228082D01*
X428403Y228020D01*
X428322Y227960D01*
X426195Y226471D01*
X253266Y228620D02*
X250608Y230482D01*
X253266Y228620D02*
X253360Y228557D01*
X253456Y228497D01*
X253554Y228440D01*
X253654Y228387D01*
X253756Y228337D01*
X253860Y228291D01*
X253965Y228249D01*
X254071Y228210D01*
X254179Y228175D01*
X254288Y228144D01*
X254398Y228116D01*
X254509Y228093D01*
X254620Y228073D01*
X254732Y228057D01*
X254845Y228045D01*
X254958Y228037D01*
X255071Y228033D01*
X255185Y228033D01*
X255298Y228037D01*
X255411Y228045D01*
X255524Y228057D01*
X255636Y228073D01*
X255747Y228093D01*
X255858Y228116D01*
X255968Y228144D01*
X256077Y228175D01*
X256185Y228210D01*
X256291Y228249D01*
X256396Y228291D01*
X256500Y228337D01*
X256602Y228387D01*
X256702Y228440D01*
X256800Y228497D01*
X256896Y228557D01*
X256990Y228620D01*
X257081Y228687D01*
X257171Y228756D01*
X257258Y228829D01*
X257342Y228905D01*
X257423Y228984D01*
X257502Y229065D01*
X257578Y229149D01*
X257651Y229236D01*
X257720Y229326D01*
X257787Y229417D01*
X257850Y229511D01*
X257910Y229607D01*
X257967Y229705D01*
X258020Y229805D01*
X258070Y229907D01*
X258116Y230011D01*
X258158Y230116D01*
X258197Y230222D01*
X258232Y230330D01*
X258263Y230439D01*
X258291Y230549D01*
X258314Y230660D01*
X258334Y230771D01*
X258350Y230883D01*
X258362Y230996D01*
X258370Y231109D01*
X258374Y231222D01*
X258374Y231336D01*
X258370Y231449D01*
X258362Y231562D01*
X258350Y231675D01*
X258334Y231787D01*
X258314Y231898D01*
X258291Y232009D01*
X258263Y232119D01*
X258232Y232228D01*
X258197Y232336D01*
X258158Y232442D01*
X258116Y232547D01*
X258070Y232651D01*
X258020Y232753D01*
X257967Y232853D01*
X257910Y232951D01*
X257850Y233047D01*
X257787Y233141D01*
X257720Y233232D01*
X257651Y233322D01*
X257578Y233409D01*
X257502Y233493D01*
X257423Y233574D01*
X257342Y233653D01*
X257258Y233729D01*
X257171Y233802D01*
X257082Y233871D01*
X256990Y233938D01*
X260500Y237819D02*
X257309Y240053D01*
X260499Y237819D02*
X260580Y237759D01*
X260659Y237697D01*
X260736Y237631D01*
X260810Y237563D01*
X260881Y237492D01*
X260949Y237418D01*
X261015Y237341D01*
X261077Y237262D01*
X261137Y237181D01*
X261193Y237097D01*
X261246Y237012D01*
X261295Y236924D01*
X261341Y236835D01*
X261384Y236743D01*
X261423Y236650D01*
X261458Y236556D01*
X261490Y236461D01*
X261518Y236364D01*
X261542Y236266D01*
X261562Y236168D01*
X261579Y236068D01*
X261591Y235968D01*
X261600Y235868D01*
X261605Y235768D01*
X261606Y235667D01*
X261603Y235566D01*
X261596Y235466D01*
X261585Y235366D01*
X261571Y235266D01*
X261552Y235167D01*
X261530Y235069D01*
X261504Y234972D01*
X261474Y234875D01*
X261441Y234781D01*
X261404Y234687D01*
X261363Y234595D01*
X261318Y234504D01*
X261271Y234416D01*
X261219Y234329D01*
X261165Y234245D01*
X261107Y234162D01*
X261046Y234082D01*
X260982Y234004D01*
X260915Y233929D01*
X260846Y233856D01*
X260773Y233787D01*
X260698Y233720D01*
X260620Y233656D01*
X260540Y233595D01*
X260457Y233537D01*
X260373Y233483D01*
X260286Y233431D01*
X260198Y233384D01*
X260107Y233339D01*
X260015Y233298D01*
X259921Y233261D01*
X259827Y233228D01*
X259730Y233198D01*
X259633Y233172D01*
X259535Y233150D01*
X259436Y233131D01*
X259336Y233117D01*
X259236Y233106D01*
X259136Y233099D01*
X259035Y233096D01*
X258934Y233097D01*
X258834Y233102D01*
X258734Y233111D01*
X258634Y233123D01*
X258534Y233140D01*
X258436Y233160D01*
X258338Y233184D01*
X258241Y233212D01*
X258146Y233244D01*
X258052Y233279D01*
X257959Y233318D01*
X257867Y233361D01*
X257778Y233407D01*
X257690Y233456D01*
X257605Y233509D01*
X257521Y233565D01*
X255394Y235055D01*
X266140Y233869D02*
X262629Y222064D01*
X272521Y229402D01*
X269333Y217370D02*
X271992Y215508D01*
X272086Y215445D01*
X272182Y215385D01*
X272280Y215328D01*
X272380Y215275D01*
X272482Y215225D01*
X272586Y215179D01*
X272691Y215137D01*
X272797Y215098D01*
X272905Y215063D01*
X273014Y215032D01*
X273124Y215004D01*
X273235Y214981D01*
X273346Y214961D01*
X273458Y214945D01*
X273571Y214933D01*
X273684Y214925D01*
X273797Y214921D01*
X273911Y214921D01*
X274024Y214925D01*
X274137Y214933D01*
X274250Y214945D01*
X274362Y214961D01*
X274473Y214981D01*
X274584Y215004D01*
X274694Y215032D01*
X274803Y215063D01*
X274911Y215098D01*
X275017Y215137D01*
X275122Y215179D01*
X275226Y215225D01*
X275328Y215275D01*
X275428Y215328D01*
X275526Y215385D01*
X275622Y215445D01*
X275716Y215508D01*
X275807Y215575D01*
X275897Y215644D01*
X275984Y215717D01*
X276068Y215793D01*
X276149Y215872D01*
X276228Y215953D01*
X276304Y216037D01*
X276377Y216124D01*
X276446Y216214D01*
X276513Y216305D01*
X276576Y216399D01*
X276636Y216495D01*
X276693Y216593D01*
X276746Y216693D01*
X276796Y216795D01*
X276842Y216899D01*
X276884Y217004D01*
X276923Y217110D01*
X276958Y217218D01*
X276989Y217327D01*
X277017Y217437D01*
X277040Y217548D01*
X277060Y217659D01*
X277076Y217771D01*
X277088Y217884D01*
X277096Y217997D01*
X277100Y218110D01*
X277100Y218224D01*
X277096Y218337D01*
X277088Y218450D01*
X277076Y218563D01*
X277060Y218675D01*
X277040Y218786D01*
X277017Y218897D01*
X276989Y219007D01*
X276958Y219116D01*
X276923Y219224D01*
X276884Y219330D01*
X276842Y219435D01*
X276796Y219539D01*
X276746Y219641D01*
X276693Y219741D01*
X276636Y219839D01*
X276576Y219935D01*
X276513Y220029D01*
X276446Y220120D01*
X276377Y220210D01*
X276304Y220297D01*
X276228Y220381D01*
X276149Y220462D01*
X276068Y220541D01*
X275984Y220617D01*
X275897Y220690D01*
X275808Y220759D01*
X275716Y220826D01*
X279225Y224707D02*
X276035Y226941D01*
X279225Y224707D02*
X279306Y224647D01*
X279385Y224585D01*
X279462Y224519D01*
X279536Y224451D01*
X279607Y224380D01*
X279675Y224306D01*
X279741Y224229D01*
X279803Y224150D01*
X279863Y224069D01*
X279919Y223985D01*
X279972Y223900D01*
X280021Y223812D01*
X280067Y223723D01*
X280110Y223631D01*
X280149Y223538D01*
X280184Y223444D01*
X280216Y223349D01*
X280244Y223252D01*
X280268Y223154D01*
X280288Y223056D01*
X280305Y222956D01*
X280317Y222856D01*
X280326Y222756D01*
X280331Y222656D01*
X280332Y222555D01*
X280329Y222454D01*
X280322Y222354D01*
X280311Y222254D01*
X280297Y222154D01*
X280278Y222055D01*
X280256Y221957D01*
X280230Y221860D01*
X280200Y221763D01*
X280167Y221669D01*
X280130Y221575D01*
X280089Y221483D01*
X280044Y221392D01*
X279997Y221304D01*
X279945Y221217D01*
X279891Y221133D01*
X279833Y221050D01*
X279772Y220970D01*
X279708Y220892D01*
X279641Y220817D01*
X279572Y220744D01*
X279499Y220675D01*
X279424Y220608D01*
X279346Y220544D01*
X279266Y220483D01*
X279183Y220425D01*
X279099Y220371D01*
X279012Y220319D01*
X278924Y220272D01*
X278833Y220227D01*
X278741Y220186D01*
X278647Y220149D01*
X278553Y220116D01*
X278456Y220086D01*
X278359Y220060D01*
X278261Y220038D01*
X278162Y220019D01*
X278062Y220005D01*
X277962Y219994D01*
X277862Y219987D01*
X277761Y219984D01*
X277660Y219985D01*
X277560Y219990D01*
X277460Y219999D01*
X277360Y220011D01*
X277260Y220028D01*
X277162Y220048D01*
X277064Y220072D01*
X276967Y220100D01*
X276872Y220132D01*
X276778Y220167D01*
X276685Y220206D01*
X276593Y220249D01*
X276504Y220295D01*
X276416Y220344D01*
X276331Y220397D01*
X276247Y220453D01*
X274120Y221943D01*
X206842Y331524D02*
X206842Y334770D01*
X206840Y334883D01*
X206834Y334996D01*
X206824Y335109D01*
X206810Y335222D01*
X206793Y335334D01*
X206771Y335445D01*
X206746Y335555D01*
X206716Y335665D01*
X206683Y335773D01*
X206646Y335880D01*
X206606Y335986D01*
X206561Y336090D01*
X206513Y336193D01*
X206462Y336294D01*
X206407Y336393D01*
X206349Y336490D01*
X206287Y336585D01*
X206222Y336678D01*
X206154Y336768D01*
X206083Y336856D01*
X206008Y336942D01*
X205931Y337025D01*
X205851Y337105D01*
X205768Y337182D01*
X205682Y337257D01*
X205594Y337328D01*
X205504Y337396D01*
X205411Y337461D01*
X205316Y337523D01*
X205219Y337581D01*
X205120Y337636D01*
X205019Y337687D01*
X204916Y337735D01*
X204812Y337780D01*
X204706Y337820D01*
X204599Y337857D01*
X204491Y337890D01*
X204381Y337920D01*
X204271Y337945D01*
X204160Y337967D01*
X204048Y337984D01*
X203935Y337998D01*
X203822Y338008D01*
X203709Y338014D01*
X203596Y338016D01*
X203483Y338014D01*
X203370Y338008D01*
X203257Y337998D01*
X203144Y337984D01*
X203032Y337967D01*
X202921Y337945D01*
X202811Y337920D01*
X202701Y337890D01*
X202593Y337857D01*
X202486Y337820D01*
X202380Y337780D01*
X202276Y337735D01*
X202173Y337687D01*
X202072Y337636D01*
X201973Y337581D01*
X201876Y337523D01*
X201781Y337461D01*
X201688Y337396D01*
X201598Y337328D01*
X201510Y337257D01*
X201424Y337182D01*
X201341Y337105D01*
X201261Y337025D01*
X201184Y336942D01*
X201109Y336856D01*
X201038Y336768D01*
X200970Y336678D01*
X200905Y336585D01*
X200843Y336490D01*
X200785Y336393D01*
X200730Y336294D01*
X200679Y336193D01*
X200631Y336090D01*
X200586Y335986D01*
X200546Y335880D01*
X200509Y335773D01*
X200476Y335665D01*
X200446Y335555D01*
X200421Y335445D01*
X200399Y335334D01*
X200382Y335222D01*
X200368Y335109D01*
X200358Y334996D01*
X200352Y334883D01*
X200350Y334770D01*
X195158Y335419D02*
X195158Y331524D01*
X195158Y335419D02*
X195160Y335520D01*
X195166Y335620D01*
X195176Y335720D01*
X195189Y335820D01*
X195207Y335919D01*
X195228Y336018D01*
X195253Y336115D01*
X195282Y336212D01*
X195315Y336307D01*
X195351Y336401D01*
X195391Y336493D01*
X195434Y336584D01*
X195481Y336673D01*
X195531Y336760D01*
X195585Y336846D01*
X195642Y336929D01*
X195702Y337009D01*
X195765Y337088D01*
X195832Y337164D01*
X195901Y337237D01*
X195973Y337307D01*
X196047Y337375D01*
X196124Y337440D01*
X196204Y337501D01*
X196286Y337560D01*
X196370Y337615D01*
X196456Y337667D01*
X196544Y337716D01*
X196634Y337761D01*
X196726Y337803D01*
X196819Y337841D01*
X196914Y337875D01*
X197009Y337906D01*
X197106Y337933D01*
X197204Y337956D01*
X197303Y337976D01*
X197403Y337991D01*
X197503Y338003D01*
X197603Y338011D01*
X197704Y338015D01*
X197804Y338015D01*
X197905Y338011D01*
X198005Y338003D01*
X198105Y337991D01*
X198205Y337976D01*
X198304Y337956D01*
X198402Y337933D01*
X198499Y337906D01*
X198594Y337875D01*
X198689Y337841D01*
X198782Y337803D01*
X198874Y337761D01*
X198964Y337716D01*
X199052Y337667D01*
X199138Y337615D01*
X199222Y337560D01*
X199304Y337501D01*
X199384Y337440D01*
X199461Y337375D01*
X199535Y337307D01*
X199607Y337237D01*
X199676Y337164D01*
X199743Y337088D01*
X199806Y337009D01*
X199866Y336929D01*
X199923Y336846D01*
X199977Y336760D01*
X200027Y336673D01*
X200074Y336584D01*
X200117Y336493D01*
X200157Y336401D01*
X200193Y336307D01*
X200226Y336212D01*
X200255Y336115D01*
X200280Y336018D01*
X200301Y335919D01*
X200319Y335820D01*
X200332Y335720D01*
X200342Y335620D01*
X200348Y335520D01*
X200350Y335419D01*
X200351Y335419D02*
X200351Y332823D01*
X195158Y342305D02*
X206842Y346200D01*
X195158Y350095D01*
X206842Y354384D02*
X206842Y357630D01*
X206840Y357743D01*
X206834Y357856D01*
X206824Y357969D01*
X206810Y358082D01*
X206793Y358194D01*
X206771Y358305D01*
X206746Y358415D01*
X206716Y358525D01*
X206683Y358633D01*
X206646Y358740D01*
X206606Y358846D01*
X206561Y358950D01*
X206513Y359053D01*
X206462Y359154D01*
X206407Y359253D01*
X206349Y359350D01*
X206287Y359445D01*
X206222Y359538D01*
X206154Y359628D01*
X206083Y359716D01*
X206008Y359802D01*
X205931Y359885D01*
X205851Y359965D01*
X205768Y360042D01*
X205682Y360117D01*
X205594Y360188D01*
X205504Y360256D01*
X205411Y360321D01*
X205316Y360383D01*
X205219Y360441D01*
X205120Y360496D01*
X205019Y360547D01*
X204916Y360595D01*
X204812Y360640D01*
X204706Y360680D01*
X204599Y360717D01*
X204491Y360750D01*
X204381Y360780D01*
X204271Y360805D01*
X204160Y360827D01*
X204048Y360844D01*
X203935Y360858D01*
X203822Y360868D01*
X203709Y360874D01*
X203596Y360876D01*
X203483Y360874D01*
X203370Y360868D01*
X203257Y360858D01*
X203144Y360844D01*
X203032Y360827D01*
X202921Y360805D01*
X202811Y360780D01*
X202701Y360750D01*
X202593Y360717D01*
X202486Y360680D01*
X202380Y360640D01*
X202276Y360595D01*
X202173Y360547D01*
X202072Y360496D01*
X201973Y360441D01*
X201876Y360383D01*
X201781Y360321D01*
X201688Y360256D01*
X201598Y360188D01*
X201510Y360117D01*
X201424Y360042D01*
X201341Y359965D01*
X201261Y359885D01*
X201184Y359802D01*
X201109Y359716D01*
X201038Y359628D01*
X200970Y359538D01*
X200905Y359445D01*
X200843Y359350D01*
X200785Y359253D01*
X200730Y359154D01*
X200679Y359053D01*
X200631Y358950D01*
X200586Y358846D01*
X200546Y358740D01*
X200509Y358633D01*
X200476Y358525D01*
X200446Y358415D01*
X200421Y358305D01*
X200399Y358194D01*
X200382Y358082D01*
X200368Y357969D01*
X200358Y357856D01*
X200352Y357743D01*
X200350Y357630D01*
X195158Y358279D02*
X195158Y354384D01*
X195158Y358279D02*
X195160Y358380D01*
X195166Y358480D01*
X195176Y358580D01*
X195189Y358680D01*
X195207Y358779D01*
X195228Y358878D01*
X195253Y358975D01*
X195282Y359072D01*
X195315Y359167D01*
X195351Y359261D01*
X195391Y359353D01*
X195434Y359444D01*
X195481Y359533D01*
X195531Y359620D01*
X195585Y359706D01*
X195642Y359789D01*
X195702Y359869D01*
X195765Y359948D01*
X195832Y360024D01*
X195901Y360097D01*
X195973Y360167D01*
X196047Y360235D01*
X196124Y360300D01*
X196204Y360361D01*
X196286Y360420D01*
X196370Y360475D01*
X196456Y360527D01*
X196544Y360576D01*
X196634Y360621D01*
X196726Y360663D01*
X196819Y360701D01*
X196914Y360735D01*
X197009Y360766D01*
X197106Y360793D01*
X197204Y360816D01*
X197303Y360836D01*
X197403Y360851D01*
X197503Y360863D01*
X197603Y360871D01*
X197704Y360875D01*
X197804Y360875D01*
X197905Y360871D01*
X198005Y360863D01*
X198105Y360851D01*
X198205Y360836D01*
X198304Y360816D01*
X198402Y360793D01*
X198499Y360766D01*
X198594Y360735D01*
X198689Y360701D01*
X198782Y360663D01*
X198874Y360621D01*
X198964Y360576D01*
X199052Y360527D01*
X199138Y360475D01*
X199222Y360420D01*
X199304Y360361D01*
X199384Y360300D01*
X199461Y360235D01*
X199535Y360167D01*
X199607Y360097D01*
X199676Y360024D01*
X199743Y359948D01*
X199806Y359869D01*
X199866Y359789D01*
X199923Y359706D01*
X199977Y359620D01*
X200027Y359533D01*
X200074Y359444D01*
X200117Y359353D01*
X200157Y359261D01*
X200193Y359167D01*
X200226Y359072D01*
X200255Y358975D01*
X200280Y358878D01*
X200301Y358779D01*
X200319Y358680D01*
X200332Y358580D01*
X200342Y358480D01*
X200348Y358380D01*
X200350Y358279D01*
X200351Y358279D02*
X200351Y355683D01*
D11*
X459604Y378870D02*
X459604Y396650D01*
X464543Y396650D01*
X464683Y396648D01*
X464822Y396642D01*
X464962Y396632D01*
X465101Y396618D01*
X465240Y396601D01*
X465378Y396579D01*
X465515Y396553D01*
X465652Y396524D01*
X465788Y396491D01*
X465922Y396454D01*
X466056Y396413D01*
X466188Y396368D01*
X466320Y396319D01*
X466449Y396267D01*
X466577Y396212D01*
X466704Y396152D01*
X466829Y396089D01*
X466952Y396023D01*
X467073Y395953D01*
X467192Y395880D01*
X467309Y395803D01*
X467423Y395723D01*
X467536Y395640D01*
X467646Y395554D01*
X467753Y395464D01*
X467858Y395372D01*
X467960Y395277D01*
X468060Y395179D01*
X468157Y395078D01*
X468251Y394974D01*
X468341Y394868D01*
X468429Y394759D01*
X468514Y394648D01*
X468595Y394534D01*
X468674Y394419D01*
X468749Y394301D01*
X468820Y394181D01*
X468888Y394058D01*
X468953Y393935D01*
X469014Y393809D01*
X469072Y393681D01*
X469126Y393553D01*
X469176Y393422D01*
X469223Y393290D01*
X469266Y393157D01*
X469305Y393023D01*
X469340Y392888D01*
X469371Y392752D01*
X469399Y392614D01*
X469422Y392477D01*
X469442Y392338D01*
X469458Y392199D01*
X469470Y392060D01*
X469478Y391921D01*
X469482Y391781D01*
X469482Y391641D01*
X469478Y391501D01*
X469470Y391362D01*
X469458Y391223D01*
X469442Y391084D01*
X469422Y390945D01*
X469399Y390808D01*
X469371Y390670D01*
X469340Y390534D01*
X469305Y390399D01*
X469266Y390265D01*
X469223Y390132D01*
X469176Y390000D01*
X469126Y389869D01*
X469072Y389741D01*
X469014Y389613D01*
X468953Y389487D01*
X468888Y389364D01*
X468820Y389242D01*
X468749Y389121D01*
X468674Y389003D01*
X468595Y388888D01*
X468514Y388774D01*
X468429Y388663D01*
X468341Y388554D01*
X468251Y388448D01*
X468157Y388344D01*
X468060Y388243D01*
X467960Y388145D01*
X467858Y388050D01*
X467753Y387958D01*
X467646Y387868D01*
X467536Y387782D01*
X467423Y387699D01*
X467309Y387619D01*
X467192Y387542D01*
X467073Y387469D01*
X466952Y387399D01*
X466829Y387333D01*
X466704Y387270D01*
X466577Y387210D01*
X466449Y387155D01*
X466320Y387103D01*
X466188Y387054D01*
X466056Y387009D01*
X465922Y386968D01*
X465788Y386931D01*
X465652Y386898D01*
X465515Y386869D01*
X465378Y386843D01*
X465240Y386821D01*
X465101Y386804D01*
X464962Y386790D01*
X464822Y386780D01*
X464683Y386774D01*
X464543Y386772D01*
X459604Y386772D01*
X475599Y392699D02*
X480538Y396650D01*
X480538Y378870D01*
X485476Y378870D02*
X475599Y378870D01*
X416412Y298290D02*
X416412Y280510D01*
X416412Y298290D02*
X421351Y298290D01*
X421491Y298288D01*
X421630Y298282D01*
X421770Y298272D01*
X421909Y298258D01*
X422048Y298241D01*
X422186Y298219D01*
X422323Y298193D01*
X422460Y298164D01*
X422596Y298131D01*
X422730Y298094D01*
X422864Y298053D01*
X422996Y298008D01*
X423128Y297959D01*
X423257Y297907D01*
X423385Y297852D01*
X423512Y297792D01*
X423637Y297729D01*
X423760Y297663D01*
X423881Y297593D01*
X424000Y297520D01*
X424117Y297443D01*
X424231Y297363D01*
X424344Y297280D01*
X424454Y297194D01*
X424561Y297104D01*
X424666Y297012D01*
X424768Y296917D01*
X424868Y296819D01*
X424965Y296718D01*
X425059Y296614D01*
X425149Y296508D01*
X425237Y296399D01*
X425322Y296288D01*
X425403Y296174D01*
X425482Y296059D01*
X425557Y295941D01*
X425628Y295821D01*
X425696Y295698D01*
X425761Y295575D01*
X425822Y295449D01*
X425880Y295321D01*
X425934Y295193D01*
X425984Y295062D01*
X426031Y294930D01*
X426074Y294797D01*
X426113Y294663D01*
X426148Y294528D01*
X426179Y294392D01*
X426207Y294254D01*
X426230Y294117D01*
X426250Y293978D01*
X426266Y293839D01*
X426278Y293700D01*
X426286Y293561D01*
X426290Y293421D01*
X426290Y293281D01*
X426286Y293141D01*
X426278Y293002D01*
X426266Y292863D01*
X426250Y292724D01*
X426230Y292585D01*
X426207Y292448D01*
X426179Y292310D01*
X426148Y292174D01*
X426113Y292039D01*
X426074Y291905D01*
X426031Y291772D01*
X425984Y291640D01*
X425934Y291509D01*
X425880Y291381D01*
X425822Y291253D01*
X425761Y291127D01*
X425696Y291004D01*
X425628Y290882D01*
X425557Y290761D01*
X425482Y290643D01*
X425403Y290528D01*
X425322Y290414D01*
X425237Y290303D01*
X425149Y290194D01*
X425059Y290088D01*
X424965Y289984D01*
X424868Y289883D01*
X424768Y289785D01*
X424666Y289690D01*
X424561Y289598D01*
X424454Y289508D01*
X424344Y289422D01*
X424231Y289339D01*
X424117Y289259D01*
X424000Y289182D01*
X423881Y289109D01*
X423760Y289039D01*
X423637Y288973D01*
X423512Y288910D01*
X423385Y288850D01*
X423257Y288795D01*
X423128Y288743D01*
X422996Y288694D01*
X422864Y288649D01*
X422730Y288608D01*
X422596Y288571D01*
X422460Y288538D01*
X422323Y288509D01*
X422186Y288483D01*
X422048Y288461D01*
X421909Y288444D01*
X421770Y288430D01*
X421630Y288420D01*
X421491Y288414D01*
X421351Y288412D01*
X416412Y288412D01*
X437840Y298290D02*
X437972Y298288D01*
X438103Y298282D01*
X438235Y298272D01*
X438366Y298259D01*
X438496Y298241D01*
X438626Y298220D01*
X438756Y298195D01*
X438884Y298166D01*
X439012Y298133D01*
X439138Y298096D01*
X439264Y298056D01*
X439388Y298012D01*
X439511Y297964D01*
X439632Y297913D01*
X439752Y297858D01*
X439870Y297800D01*
X439986Y297738D01*
X440100Y297672D01*
X440213Y297604D01*
X440323Y297532D01*
X440431Y297457D01*
X440537Y297378D01*
X440641Y297297D01*
X440742Y297212D01*
X440840Y297125D01*
X440936Y297034D01*
X441029Y296941D01*
X441120Y296845D01*
X441207Y296747D01*
X441292Y296646D01*
X441373Y296542D01*
X441452Y296436D01*
X441527Y296328D01*
X441599Y296218D01*
X441667Y296105D01*
X441733Y295991D01*
X441795Y295875D01*
X441853Y295757D01*
X441908Y295637D01*
X441959Y295516D01*
X442007Y295393D01*
X442051Y295269D01*
X442091Y295143D01*
X442128Y295017D01*
X442161Y294889D01*
X442190Y294761D01*
X442215Y294631D01*
X442236Y294501D01*
X442254Y294371D01*
X442267Y294240D01*
X442277Y294108D01*
X442283Y293977D01*
X442285Y293845D01*
X437840Y298290D02*
X437690Y298288D01*
X437541Y298282D01*
X437392Y298272D01*
X437243Y298259D01*
X437094Y298241D01*
X436946Y298220D01*
X436798Y298194D01*
X436652Y298165D01*
X436506Y298132D01*
X436361Y298095D01*
X436217Y298054D01*
X436074Y298010D01*
X435932Y297962D01*
X435792Y297910D01*
X435653Y297855D01*
X435515Y297796D01*
X435380Y297733D01*
X435245Y297667D01*
X435113Y297597D01*
X434983Y297524D01*
X434854Y297447D01*
X434727Y297367D01*
X434603Y297284D01*
X434481Y297198D01*
X434361Y297108D01*
X434244Y297015D01*
X434129Y296920D01*
X434016Y296821D01*
X433906Y296719D01*
X433799Y296615D01*
X433695Y296508D01*
X433593Y296398D01*
X433495Y296285D01*
X433399Y296170D01*
X433307Y296052D01*
X433217Y295932D01*
X433131Y295810D01*
X433048Y295686D01*
X432968Y295559D01*
X432892Y295431D01*
X432819Y295300D01*
X432749Y295167D01*
X432683Y295033D01*
X432621Y294897D01*
X432562Y294760D01*
X432506Y294621D01*
X432455Y294480D01*
X432407Y294339D01*
X440803Y290388D02*
X440899Y290481D01*
X440991Y290577D01*
X441081Y290676D01*
X441168Y290777D01*
X441253Y290880D01*
X441334Y290985D01*
X441412Y291093D01*
X441487Y291203D01*
X441560Y291315D01*
X441629Y291429D01*
X441695Y291545D01*
X441757Y291663D01*
X441816Y291782D01*
X441872Y291903D01*
X441925Y292026D01*
X441974Y292150D01*
X442019Y292275D01*
X442062Y292402D01*
X442100Y292529D01*
X442135Y292658D01*
X442166Y292787D01*
X442194Y292918D01*
X442218Y293049D01*
X442239Y293181D01*
X442255Y293313D01*
X442268Y293446D01*
X442278Y293579D01*
X442283Y293712D01*
X442285Y293845D01*
X440803Y290388D02*
X432407Y280510D01*
X442285Y280510D01*
X454655Y287424D02*
X454655Y293351D01*
X454655Y287424D02*
X458112Y282979D01*
X454655Y287424D02*
X451198Y282979D01*
X454655Y287424D02*
X460088Y289400D01*
X454655Y287424D02*
X449222Y289400D01*
X330724Y233490D02*
X330724Y215710D01*
X330724Y233490D02*
X335663Y233490D01*
X335803Y233488D01*
X335942Y233482D01*
X336082Y233472D01*
X336221Y233458D01*
X336360Y233441D01*
X336498Y233419D01*
X336635Y233393D01*
X336772Y233364D01*
X336908Y233331D01*
X337042Y233294D01*
X337176Y233253D01*
X337308Y233208D01*
X337440Y233159D01*
X337569Y233107D01*
X337697Y233052D01*
X337824Y232992D01*
X337949Y232929D01*
X338072Y232863D01*
X338193Y232793D01*
X338312Y232720D01*
X338429Y232643D01*
X338543Y232563D01*
X338656Y232480D01*
X338766Y232394D01*
X338873Y232304D01*
X338978Y232212D01*
X339080Y232117D01*
X339180Y232019D01*
X339277Y231918D01*
X339371Y231814D01*
X339461Y231708D01*
X339549Y231599D01*
X339634Y231488D01*
X339715Y231374D01*
X339794Y231259D01*
X339869Y231141D01*
X339940Y231021D01*
X340008Y230898D01*
X340073Y230775D01*
X340134Y230649D01*
X340192Y230521D01*
X340246Y230393D01*
X340296Y230262D01*
X340343Y230130D01*
X340386Y229997D01*
X340425Y229863D01*
X340460Y229728D01*
X340491Y229592D01*
X340519Y229454D01*
X340542Y229317D01*
X340562Y229178D01*
X340578Y229039D01*
X340590Y228900D01*
X340598Y228761D01*
X340602Y228621D01*
X340602Y228481D01*
X340598Y228341D01*
X340590Y228202D01*
X340578Y228063D01*
X340562Y227924D01*
X340542Y227785D01*
X340519Y227648D01*
X340491Y227510D01*
X340460Y227374D01*
X340425Y227239D01*
X340386Y227105D01*
X340343Y226972D01*
X340296Y226840D01*
X340246Y226709D01*
X340192Y226581D01*
X340134Y226453D01*
X340073Y226327D01*
X340008Y226204D01*
X339940Y226082D01*
X339869Y225961D01*
X339794Y225843D01*
X339715Y225728D01*
X339634Y225614D01*
X339549Y225503D01*
X339461Y225394D01*
X339371Y225288D01*
X339277Y225184D01*
X339180Y225083D01*
X339080Y224985D01*
X338978Y224890D01*
X338873Y224798D01*
X338766Y224708D01*
X338656Y224622D01*
X338543Y224539D01*
X338429Y224459D01*
X338312Y224382D01*
X338193Y224309D01*
X338072Y224239D01*
X337949Y224173D01*
X337824Y224110D01*
X337697Y224050D01*
X337569Y223995D01*
X337440Y223943D01*
X337308Y223894D01*
X337176Y223849D01*
X337042Y223808D01*
X336908Y223771D01*
X336772Y223738D01*
X336635Y223709D01*
X336498Y223683D01*
X336360Y223661D01*
X336221Y223644D01*
X336082Y223630D01*
X335942Y223620D01*
X335803Y223614D01*
X335663Y223612D01*
X330724Y223612D01*
X346719Y215710D02*
X351658Y215710D01*
X351798Y215712D01*
X351937Y215718D01*
X352077Y215728D01*
X352216Y215742D01*
X352355Y215759D01*
X352493Y215781D01*
X352630Y215807D01*
X352767Y215836D01*
X352903Y215869D01*
X353037Y215906D01*
X353171Y215947D01*
X353303Y215992D01*
X353435Y216041D01*
X353564Y216093D01*
X353692Y216148D01*
X353819Y216208D01*
X353944Y216271D01*
X354067Y216337D01*
X354188Y216407D01*
X354307Y216480D01*
X354424Y216557D01*
X354538Y216637D01*
X354651Y216720D01*
X354761Y216806D01*
X354868Y216896D01*
X354973Y216988D01*
X355075Y217083D01*
X355175Y217181D01*
X355272Y217282D01*
X355366Y217386D01*
X355456Y217492D01*
X355544Y217601D01*
X355629Y217712D01*
X355710Y217826D01*
X355789Y217941D01*
X355864Y218059D01*
X355935Y218180D01*
X356003Y218302D01*
X356068Y218425D01*
X356129Y218551D01*
X356187Y218679D01*
X356241Y218807D01*
X356291Y218938D01*
X356338Y219070D01*
X356381Y219203D01*
X356420Y219337D01*
X356455Y219472D01*
X356486Y219608D01*
X356514Y219746D01*
X356537Y219883D01*
X356557Y220022D01*
X356573Y220161D01*
X356585Y220300D01*
X356593Y220439D01*
X356597Y220579D01*
X356597Y220719D01*
X356593Y220859D01*
X356585Y220998D01*
X356573Y221137D01*
X356557Y221276D01*
X356537Y221415D01*
X356514Y221552D01*
X356486Y221690D01*
X356455Y221826D01*
X356420Y221961D01*
X356381Y222095D01*
X356338Y222228D01*
X356291Y222360D01*
X356241Y222491D01*
X356187Y222619D01*
X356129Y222747D01*
X356068Y222873D01*
X356003Y222996D01*
X355935Y223119D01*
X355864Y223239D01*
X355789Y223357D01*
X355710Y223472D01*
X355629Y223586D01*
X355544Y223697D01*
X355456Y223806D01*
X355366Y223912D01*
X355272Y224016D01*
X355175Y224117D01*
X355075Y224215D01*
X354973Y224310D01*
X354868Y224402D01*
X354761Y224492D01*
X354651Y224578D01*
X354538Y224661D01*
X354424Y224741D01*
X354307Y224818D01*
X354188Y224891D01*
X354067Y224961D01*
X353944Y225027D01*
X353819Y225090D01*
X353692Y225150D01*
X353564Y225205D01*
X353435Y225257D01*
X353303Y225306D01*
X353171Y225351D01*
X353037Y225392D01*
X352903Y225429D01*
X352767Y225462D01*
X352630Y225491D01*
X352493Y225517D01*
X352355Y225539D01*
X352216Y225556D01*
X352077Y225570D01*
X351937Y225580D01*
X351798Y225586D01*
X351658Y225588D01*
X352645Y233490D02*
X346719Y233490D01*
X352645Y233490D02*
X352769Y233488D01*
X352893Y233482D01*
X353017Y233472D01*
X353140Y233459D01*
X353263Y233441D01*
X353385Y233420D01*
X353507Y233395D01*
X353628Y233366D01*
X353747Y233333D01*
X353866Y233297D01*
X353983Y233256D01*
X354099Y233213D01*
X354214Y233165D01*
X354327Y233114D01*
X354439Y233059D01*
X354548Y233001D01*
X354656Y232940D01*
X354762Y232875D01*
X354866Y232807D01*
X354967Y232735D01*
X355067Y232661D01*
X355163Y232583D01*
X355258Y232503D01*
X355350Y232419D01*
X355439Y232333D01*
X355525Y232244D01*
X355609Y232152D01*
X355689Y232057D01*
X355767Y231961D01*
X355841Y231861D01*
X355913Y231760D01*
X355981Y231656D01*
X356046Y231550D01*
X356107Y231442D01*
X356165Y231333D01*
X356220Y231221D01*
X356271Y231108D01*
X356319Y230993D01*
X356362Y230877D01*
X356403Y230760D01*
X356439Y230641D01*
X356472Y230522D01*
X356501Y230401D01*
X356526Y230279D01*
X356547Y230157D01*
X356565Y230034D01*
X356578Y229911D01*
X356588Y229787D01*
X356594Y229663D01*
X356596Y229539D01*
X356594Y229415D01*
X356588Y229291D01*
X356578Y229167D01*
X356565Y229044D01*
X356547Y228921D01*
X356526Y228799D01*
X356501Y228677D01*
X356472Y228556D01*
X356439Y228437D01*
X356403Y228318D01*
X356362Y228201D01*
X356319Y228085D01*
X356271Y227970D01*
X356220Y227857D01*
X356165Y227745D01*
X356107Y227636D01*
X356046Y227528D01*
X355981Y227422D01*
X355913Y227318D01*
X355841Y227217D01*
X355767Y227117D01*
X355689Y227021D01*
X355609Y226926D01*
X355525Y226834D01*
X355439Y226745D01*
X355350Y226659D01*
X355258Y226575D01*
X355163Y226495D01*
X355067Y226417D01*
X354967Y226343D01*
X354866Y226271D01*
X354762Y226203D01*
X354656Y226138D01*
X354548Y226077D01*
X354439Y226019D01*
X354327Y225964D01*
X354214Y225913D01*
X354099Y225865D01*
X353983Y225822D01*
X353866Y225781D01*
X353747Y225745D01*
X353628Y225712D01*
X353507Y225683D01*
X353385Y225658D01*
X353263Y225637D01*
X353140Y225619D01*
X353017Y225606D01*
X352893Y225596D01*
X352769Y225590D01*
X352645Y225588D01*
X348694Y225588D01*
X234864Y280510D02*
X234864Y298290D01*
X239803Y298290D01*
X239943Y298288D01*
X240082Y298282D01*
X240222Y298272D01*
X240361Y298258D01*
X240500Y298241D01*
X240638Y298219D01*
X240775Y298193D01*
X240912Y298164D01*
X241048Y298131D01*
X241182Y298094D01*
X241316Y298053D01*
X241448Y298008D01*
X241580Y297959D01*
X241709Y297907D01*
X241837Y297852D01*
X241964Y297792D01*
X242089Y297729D01*
X242212Y297663D01*
X242333Y297593D01*
X242452Y297520D01*
X242569Y297443D01*
X242683Y297363D01*
X242796Y297280D01*
X242906Y297194D01*
X243013Y297104D01*
X243118Y297012D01*
X243220Y296917D01*
X243320Y296819D01*
X243417Y296718D01*
X243511Y296614D01*
X243601Y296508D01*
X243689Y296399D01*
X243774Y296288D01*
X243855Y296174D01*
X243934Y296059D01*
X244009Y295941D01*
X244080Y295821D01*
X244148Y295698D01*
X244213Y295575D01*
X244274Y295449D01*
X244332Y295321D01*
X244386Y295193D01*
X244436Y295062D01*
X244483Y294930D01*
X244526Y294797D01*
X244565Y294663D01*
X244600Y294528D01*
X244631Y294392D01*
X244659Y294254D01*
X244682Y294117D01*
X244702Y293978D01*
X244718Y293839D01*
X244730Y293700D01*
X244738Y293561D01*
X244742Y293421D01*
X244742Y293281D01*
X244738Y293141D01*
X244730Y293002D01*
X244718Y292863D01*
X244702Y292724D01*
X244682Y292585D01*
X244659Y292448D01*
X244631Y292310D01*
X244600Y292174D01*
X244565Y292039D01*
X244526Y291905D01*
X244483Y291772D01*
X244436Y291640D01*
X244386Y291509D01*
X244332Y291381D01*
X244274Y291253D01*
X244213Y291127D01*
X244148Y291004D01*
X244080Y290882D01*
X244009Y290761D01*
X243934Y290643D01*
X243855Y290528D01*
X243774Y290414D01*
X243689Y290303D01*
X243601Y290194D01*
X243511Y290088D01*
X243417Y289984D01*
X243320Y289883D01*
X243220Y289785D01*
X243118Y289690D01*
X243013Y289598D01*
X242906Y289508D01*
X242796Y289422D01*
X242683Y289339D01*
X242569Y289259D01*
X242452Y289182D01*
X242333Y289109D01*
X242212Y289039D01*
X242089Y288973D01*
X241964Y288910D01*
X241837Y288850D01*
X241709Y288795D01*
X241580Y288743D01*
X241448Y288694D01*
X241316Y288649D01*
X241182Y288608D01*
X241048Y288571D01*
X240912Y288538D01*
X240775Y288509D01*
X240638Y288483D01*
X240500Y288461D01*
X240361Y288444D01*
X240222Y288430D01*
X240082Y288420D01*
X239943Y288414D01*
X239803Y288412D01*
X234864Y288412D01*
X250859Y284461D02*
X254810Y298290D01*
X250859Y284461D02*
X260736Y284461D01*
X257773Y288412D02*
X257773Y280510D01*
X234864Y394110D02*
X234864Y411890D01*
X239803Y411890D01*
X239943Y411888D01*
X240082Y411882D01*
X240222Y411872D01*
X240361Y411858D01*
X240500Y411841D01*
X240638Y411819D01*
X240775Y411793D01*
X240912Y411764D01*
X241048Y411731D01*
X241182Y411694D01*
X241316Y411653D01*
X241448Y411608D01*
X241580Y411559D01*
X241709Y411507D01*
X241837Y411452D01*
X241964Y411392D01*
X242089Y411329D01*
X242212Y411263D01*
X242333Y411193D01*
X242452Y411120D01*
X242569Y411043D01*
X242683Y410963D01*
X242796Y410880D01*
X242906Y410794D01*
X243013Y410704D01*
X243118Y410612D01*
X243220Y410517D01*
X243320Y410419D01*
X243417Y410318D01*
X243511Y410214D01*
X243601Y410108D01*
X243689Y409999D01*
X243774Y409888D01*
X243855Y409774D01*
X243934Y409659D01*
X244009Y409541D01*
X244080Y409421D01*
X244148Y409298D01*
X244213Y409175D01*
X244274Y409049D01*
X244332Y408921D01*
X244386Y408793D01*
X244436Y408662D01*
X244483Y408530D01*
X244526Y408397D01*
X244565Y408263D01*
X244600Y408128D01*
X244631Y407992D01*
X244659Y407854D01*
X244682Y407717D01*
X244702Y407578D01*
X244718Y407439D01*
X244730Y407300D01*
X244738Y407161D01*
X244742Y407021D01*
X244742Y406881D01*
X244738Y406741D01*
X244730Y406602D01*
X244718Y406463D01*
X244702Y406324D01*
X244682Y406185D01*
X244659Y406048D01*
X244631Y405910D01*
X244600Y405774D01*
X244565Y405639D01*
X244526Y405505D01*
X244483Y405372D01*
X244436Y405240D01*
X244386Y405109D01*
X244332Y404981D01*
X244274Y404853D01*
X244213Y404727D01*
X244148Y404604D01*
X244080Y404482D01*
X244009Y404361D01*
X243934Y404243D01*
X243855Y404128D01*
X243774Y404014D01*
X243689Y403903D01*
X243601Y403794D01*
X243511Y403688D01*
X243417Y403584D01*
X243320Y403483D01*
X243220Y403385D01*
X243118Y403290D01*
X243013Y403198D01*
X242906Y403108D01*
X242796Y403022D01*
X242683Y402939D01*
X242569Y402859D01*
X242452Y402782D01*
X242333Y402709D01*
X242212Y402639D01*
X242089Y402573D01*
X241964Y402510D01*
X241837Y402450D01*
X241709Y402395D01*
X241580Y402343D01*
X241448Y402294D01*
X241316Y402249D01*
X241182Y402208D01*
X241048Y402171D01*
X240912Y402138D01*
X240775Y402109D01*
X240638Y402083D01*
X240500Y402061D01*
X240361Y402044D01*
X240222Y402030D01*
X240082Y402020D01*
X239943Y402014D01*
X239803Y402012D01*
X234864Y402012D01*
X250859Y394110D02*
X256785Y394110D01*
X256909Y394112D01*
X257033Y394118D01*
X257157Y394128D01*
X257280Y394141D01*
X257403Y394159D01*
X257525Y394180D01*
X257647Y394205D01*
X257768Y394234D01*
X257887Y394267D01*
X258006Y394303D01*
X258123Y394344D01*
X258239Y394387D01*
X258354Y394435D01*
X258467Y394486D01*
X258579Y394541D01*
X258688Y394599D01*
X258796Y394660D01*
X258902Y394725D01*
X259006Y394793D01*
X259107Y394865D01*
X259207Y394939D01*
X259303Y395017D01*
X259398Y395097D01*
X259490Y395181D01*
X259579Y395267D01*
X259665Y395356D01*
X259749Y395448D01*
X259829Y395543D01*
X259907Y395639D01*
X259981Y395739D01*
X260053Y395840D01*
X260121Y395944D01*
X260186Y396050D01*
X260247Y396158D01*
X260305Y396267D01*
X260360Y396379D01*
X260411Y396492D01*
X260459Y396607D01*
X260502Y396723D01*
X260543Y396840D01*
X260579Y396959D01*
X260612Y397078D01*
X260641Y397199D01*
X260666Y397321D01*
X260687Y397443D01*
X260705Y397566D01*
X260718Y397689D01*
X260728Y397813D01*
X260734Y397937D01*
X260736Y398061D01*
X260736Y400037D01*
X260734Y400161D01*
X260728Y400285D01*
X260718Y400409D01*
X260705Y400532D01*
X260687Y400655D01*
X260666Y400777D01*
X260641Y400899D01*
X260612Y401020D01*
X260579Y401139D01*
X260543Y401258D01*
X260502Y401375D01*
X260459Y401491D01*
X260411Y401606D01*
X260360Y401719D01*
X260305Y401831D01*
X260247Y401940D01*
X260186Y402048D01*
X260121Y402154D01*
X260053Y402258D01*
X259981Y402359D01*
X259907Y402459D01*
X259829Y402555D01*
X259749Y402650D01*
X259665Y402742D01*
X259579Y402831D01*
X259490Y402917D01*
X259398Y403001D01*
X259303Y403081D01*
X259207Y403159D01*
X259107Y403233D01*
X259006Y403305D01*
X258902Y403373D01*
X258796Y403438D01*
X258688Y403499D01*
X258579Y403557D01*
X258467Y403612D01*
X258354Y403663D01*
X258239Y403711D01*
X258123Y403754D01*
X258006Y403795D01*
X257887Y403831D01*
X257768Y403864D01*
X257647Y403893D01*
X257525Y403918D01*
X257403Y403939D01*
X257280Y403957D01*
X257157Y403970D01*
X257033Y403980D01*
X256909Y403986D01*
X256785Y403988D01*
X250859Y403988D01*
X250859Y411890D01*
X260736Y411890D01*
D12*
X300467Y209139D03*
D13*
X299951Y209286D03*
D14*
X299362Y209433D03*
D15*
X298920Y209581D03*
D16*
X298404Y209728D03*
D17*
X297962Y209875D03*
D18*
X297373Y210022D03*
D19*
X296857Y210170D03*
D20*
X296415Y210317D03*
D21*
X295974Y210464D03*
D22*
X295900Y210612D03*
D23*
X295974Y210759D03*
D24*
X296047Y210906D03*
D25*
X295974Y211054D03*
D26*
X296047Y211201D03*
D27*
X296047Y211348D03*
D28*
X296121Y211496D03*
X296121Y211643D03*
D29*
X296121Y211790D03*
D30*
X296194Y211938D03*
D31*
X296194Y212085D03*
X296194Y212232D03*
D32*
X296268Y212380D03*
D33*
X296268Y212527D03*
D34*
X296342Y212674D03*
D35*
X296268Y212822D03*
D36*
X296342Y212969D03*
D37*
X296415Y213116D03*
D38*
X296415Y213264D03*
X296415Y213411D03*
D39*
X296489Y213558D03*
D40*
X296489Y213705D03*
D41*
X296563Y213853D03*
D42*
X296489Y214000D03*
D43*
X296563Y214147D03*
D44*
X296636Y214295D03*
D45*
X296636Y214442D03*
X296636Y214589D03*
D46*
X296636Y214737D03*
D47*
X296710Y214884D03*
X296710Y215031D03*
D48*
X296710Y215179D03*
D49*
X296784Y215326D03*
D50*
X296784Y215473D03*
X296784Y215621D03*
D51*
X296857Y215768D03*
D52*
X296857Y215915D03*
D53*
X296931Y216063D03*
D54*
X296857Y216210D03*
D55*
X296931Y216357D03*
D56*
X297005Y216505D03*
D57*
X317482Y216505D03*
D58*
X297005Y216652D03*
D59*
X316893Y216652D03*
D58*
X297005Y216799D03*
D60*
X316451Y216799D03*
D61*
X297005Y216947D03*
D62*
X315935Y216947D03*
D63*
X297078Y217094D03*
D64*
X315493Y217094D03*
D63*
X297078Y217241D03*
D65*
X314904Y217241D03*
D66*
X297005Y217388D03*
D67*
X314462Y217388D03*
D66*
X297005Y217536D03*
D68*
X313947Y217536D03*
D63*
X296931Y217683D03*
D69*
X313505Y217683D03*
D66*
X296857Y217830D03*
D21*
X313357Y217830D03*
D66*
X296857Y217978D03*
D23*
X313357Y217978D03*
D66*
X296710Y218125D03*
D24*
X313431Y218125D03*
D66*
X296710Y218272D03*
D25*
X313505Y218272D03*
D63*
X296636Y218420D03*
D26*
X313431Y218420D03*
D66*
X296563Y218567D03*
D70*
X313505Y218567D03*
D66*
X296563Y218714D03*
D28*
X313505Y218714D03*
D66*
X296415Y218862D03*
D71*
X313578Y218862D03*
D66*
X296415Y219009D03*
D71*
X313578Y219009D03*
D63*
X296342Y219156D03*
D30*
X313578Y219156D03*
D66*
X296268Y219304D03*
D72*
X313652Y219304D03*
D66*
X296268Y219451D03*
D32*
X313652Y219451D03*
D66*
X296121Y219598D03*
D32*
X313652Y219598D03*
D66*
X296121Y219746D03*
D73*
X313726Y219746D03*
D63*
X296047Y219893D03*
D34*
X313726Y219893D03*
D61*
X296121Y220040D03*
D35*
X313799Y220040D03*
D61*
X296121Y220188D03*
D36*
X313726Y220188D03*
D74*
X296121Y220335D03*
D75*
X313799Y220335D03*
D76*
X296194Y220482D03*
D77*
X313873Y220482D03*
D55*
X296194Y220630D03*
D78*
X313873Y220630D03*
D55*
X296194Y220777D03*
D78*
X313873Y220777D03*
D54*
X296268Y220924D03*
D79*
X313947Y220924D03*
D52*
X296268Y221071D03*
D41*
X313947Y221071D03*
D80*
X296342Y221219D03*
D41*
X313947Y221219D03*
D51*
X296268Y221366D03*
D43*
X313947Y221366D03*
D81*
X296342Y221513D03*
D44*
X314020Y221513D03*
D82*
X296415Y221661D03*
D83*
X314094Y221661D03*
D48*
X296415Y221808D03*
D84*
X314020Y221808D03*
D48*
X296415Y221955D03*
D85*
X314094Y221955D03*
D86*
X296489Y222103D03*
D47*
X314094Y222103D03*
D46*
X296489Y222250D03*
D86*
X314168Y222250D03*
D46*
X296489Y222397D03*
D86*
X314168Y222397D03*
D84*
X296489Y222545D03*
D49*
X314168Y222545D03*
D87*
X296563Y222692D03*
D82*
X314241Y222692D03*
D44*
X296636Y222839D03*
D51*
X314241Y222839D03*
D43*
X296563Y222987D03*
D51*
X314241Y222987D03*
D42*
X296636Y223134D03*
D80*
X314315Y223134D03*
D40*
X296636Y223281D03*
D53*
X314315Y223281D03*
D79*
X296710Y223429D03*
D54*
X314389Y223429D03*
D79*
X296710Y223576D03*
D55*
X314315Y223576D03*
D88*
X296710Y223723D03*
D89*
X314389Y223723D03*
D77*
X296784Y223871D03*
D76*
X314462Y223871D03*
D36*
X296784Y224018D03*
D90*
X314462Y224018D03*
D36*
X296784Y224165D03*
D90*
X314462Y224165D03*
D35*
X296857Y224313D03*
D63*
X314462Y224313D03*
D33*
X296857Y224460D03*
D66*
X314536Y224460D03*
D73*
X296931Y224607D03*
D63*
X314462Y224607D03*
D32*
X296857Y224754D03*
D66*
X314389Y224754D03*
D91*
X296931Y224902D03*
D66*
X314389Y224902D03*
D92*
X297005Y225049D03*
D63*
X314315Y225049D03*
D29*
X297005Y225196D03*
D66*
X314241Y225196D03*
D29*
X297005Y225344D03*
D66*
X314241Y225344D03*
D71*
X297078Y225491D03*
D66*
X314094Y225491D03*
D27*
X297078Y225638D03*
D66*
X314094Y225638D03*
D70*
X297152Y225786D03*
D63*
X314020Y225786D03*
D93*
X297078Y225933D03*
D66*
X313947Y225933D03*
D25*
X297152Y226080D03*
D66*
X313947Y226080D03*
D24*
X297226Y226228D03*
D66*
X313799Y226228D03*
D23*
X297152Y226375D03*
D66*
X313799Y226375D03*
D22*
X297226Y226522D03*
D63*
X313726Y226522D03*
D69*
X297152Y226670D03*
D66*
X313652Y226670D03*
D94*
X296636Y226817D03*
D66*
X313652Y226817D03*
D67*
X296047Y226964D03*
D66*
X313505Y226964D03*
D65*
X295605Y227112D03*
D66*
X313505Y227112D03*
D95*
X295090Y227259D03*
D61*
X313505Y227259D03*
D96*
X294648Y227406D03*
D90*
X313578Y227406D03*
D60*
X294058Y227554D03*
D90*
X313578Y227554D03*
D97*
X293543Y227701D03*
D98*
X313578Y227701D03*
D99*
X293101Y227848D03*
D56*
X313652Y227848D03*
D100*
X302898Y227996D03*
D55*
X313578Y227996D03*
D101*
X302382Y228143D03*
D54*
X313652Y228143D03*
D14*
X301866Y228290D03*
D53*
X313726Y228290D03*
D102*
X301351Y228437D03*
D80*
X313726Y228437D03*
D16*
X300909Y228585D03*
D80*
X313726Y228585D03*
D103*
X300393Y228732D03*
D81*
X313726Y228732D03*
D18*
X299878Y228879D03*
D104*
X313799Y228879D03*
D19*
X299362Y229027D03*
D49*
X313873Y229027D03*
D105*
X298846Y229174D03*
D48*
X313799Y229174D03*
D106*
X298404Y229321D03*
D86*
X313873Y229321D03*
D22*
X298404Y229469D03*
D47*
X313947Y229469D03*
D23*
X298478Y229616D03*
D85*
X313947Y229616D03*
D24*
X298552Y229763D03*
D85*
X313947Y229763D03*
D25*
X298478Y229911D03*
D87*
X313947Y229911D03*
D26*
X298552Y230058D03*
D44*
X314020Y230058D03*
D107*
X298552Y230205D03*
D43*
X314094Y230205D03*
D28*
X298625Y230353D03*
D42*
X314020Y230353D03*
D28*
X298625Y230500D03*
D41*
X314094Y230500D03*
D29*
X298625Y230647D03*
D79*
X314094Y230647D03*
D30*
X298699Y230795D03*
D39*
X314168Y230795D03*
D31*
X298699Y230942D03*
D39*
X314168Y230942D03*
D31*
X298699Y231089D03*
D108*
X314168Y231089D03*
D32*
X298773Y231237D03*
D75*
X314241Y231237D03*
D33*
X298773Y231384D03*
D35*
X314241Y231384D03*
D34*
X298846Y231531D03*
D35*
X314241Y231531D03*
X298773Y231679D03*
D34*
X314315Y231679D03*
D36*
X298846Y231826D03*
D73*
X314315Y231826D03*
D75*
X298920Y231973D03*
D73*
X314315Y231973D03*
D38*
X298920Y232120D03*
D91*
X314315Y232120D03*
D38*
X298920Y232268D03*
D72*
X314389Y232268D03*
D79*
X298920Y232415D03*
D30*
X314462Y232415D03*
D40*
X298994Y232562D03*
D29*
X314389Y232562D03*
D41*
X299067Y232710D03*
D71*
X314462Y232710D03*
D42*
X298994Y232857D03*
D27*
X314462Y232857D03*
D43*
X299067Y233004D03*
D109*
X314536Y233004D03*
D87*
X299067Y233152D03*
D109*
X314536Y233152D03*
D45*
X299141Y233299D03*
D25*
X314536Y233299D03*
D45*
X299141Y233446D03*
D24*
X314609Y233446D03*
D46*
X299141Y233594D03*
D23*
X314683Y233594D03*
D47*
X299215Y233741D03*
D22*
X314609Y233741D03*
D47*
X299215Y233888D03*
D106*
X314610Y233888D03*
D48*
X299215Y234036D03*
D110*
X314168Y234036D03*
D49*
X299288Y234183D03*
D111*
X313652Y234183D03*
D50*
X299288Y234330D03*
D18*
X313136Y234330D03*
D50*
X299288Y234478D03*
D112*
X312621Y234478D03*
D51*
X299362Y234625D03*
D113*
X312179Y234625D03*
D52*
X299362Y234772D03*
D114*
X311663Y234772D03*
D53*
X299436Y234920D03*
D14*
X311147Y234920D03*
D54*
X299362Y235067D03*
D115*
X310632Y235067D03*
D55*
X299436Y235214D03*
D12*
X310190Y235214D03*
D56*
X299509Y235362D03*
D58*
X299509Y235509D03*
X299509Y235656D03*
D61*
X299509Y235803D03*
D63*
X299583Y235951D03*
X299583Y236098D03*
D66*
X299509Y236245D03*
X299509Y236393D03*
X299362Y236540D03*
X299362Y236687D03*
D63*
X299288Y236835D03*
D66*
X299215Y236982D03*
X299215Y237129D03*
X299067Y237277D03*
X299067Y237424D03*
D63*
X298994Y237571D03*
D66*
X298920Y237719D03*
X298920Y237866D03*
D63*
X298846Y238013D03*
D66*
X298773Y238161D03*
X298773Y238308D03*
X298625Y238455D03*
X298625Y238603D03*
D63*
X298552Y238750D03*
D61*
X298625Y238897D03*
X298625Y239045D03*
D74*
X298625Y239192D03*
D76*
X298699Y239339D03*
D55*
X298699Y239486D03*
X298699Y239634D03*
D54*
X298773Y239781D03*
D52*
X298773Y239928D03*
D80*
X298846Y240076D03*
D51*
X298773Y240223D03*
D81*
X298846Y240370D03*
D82*
X298920Y240518D03*
D116*
X298846Y240665D03*
D48*
X298920Y240812D03*
D47*
X298920Y240960D03*
D46*
X298994Y241107D03*
X298994Y241254D03*
D84*
X298994Y241402D03*
D87*
X299067Y241549D03*
D43*
X299067Y241696D03*
X299067Y241844D03*
D42*
X299141Y241991D03*
D40*
X299141Y242138D03*
D79*
X299215Y242286D03*
X299215Y242433D03*
D88*
X299215Y242580D03*
D77*
X299288Y242728D03*
D36*
X299288Y242875D03*
X299288Y243022D03*
D35*
X299362Y243169D03*
D33*
X299362Y243317D03*
D73*
X299436Y243464D03*
D32*
X299362Y243611D03*
D91*
X299436Y243759D03*
D92*
X299509Y243906D03*
D29*
X299509Y244053D03*
X299509Y244201D03*
D28*
X299509Y244348D03*
D27*
X299583Y244495D03*
D70*
X299657Y244643D03*
D93*
X299583Y244790D03*
D25*
X299657Y244937D03*
D23*
X299657Y245085D03*
X299657Y245232D03*
D22*
X299730Y245379D03*
D117*
X299583Y245527D03*
D118*
X299067Y245674D03*
D67*
X298552Y245821D03*
D119*
X298036Y245969D03*
D95*
X297594Y246116D03*
D120*
X297078Y246263D03*
D60*
X296563Y246411D03*
D97*
X296047Y246558D03*
D121*
X295532Y246705D03*
D122*
X243800Y313476D02*
X243800Y315976D01*
X243800Y318476D01*
X243800Y315976D02*
X238800Y313476D01*
X238800Y318476D02*
X243800Y315976D01*
X238800Y318476D02*
X238800Y313476D01*
X228800Y310976D02*
X228800Y320976D01*
X253800Y320976D01*
X253800Y310976D01*
X228800Y310976D01*
D123*
X209419Y311263D02*
X209419Y320661D01*
X212030Y320661D01*
X212130Y320659D01*
X212230Y320653D01*
X212329Y320644D01*
X212429Y320630D01*
X212527Y320613D01*
X212625Y320592D01*
X212722Y320568D01*
X212818Y320539D01*
X212913Y320507D01*
X213006Y320472D01*
X213098Y320433D01*
X213189Y320390D01*
X213277Y320344D01*
X213364Y320294D01*
X213449Y320242D01*
X213532Y320186D01*
X213613Y320127D01*
X213691Y320064D01*
X213767Y319999D01*
X213841Y319931D01*
X213911Y319861D01*
X213979Y319787D01*
X214044Y319711D01*
X214107Y319633D01*
X214166Y319552D01*
X214222Y319469D01*
X214274Y319384D01*
X214324Y319297D01*
X214370Y319209D01*
X214413Y319118D01*
X214452Y319026D01*
X214487Y318933D01*
X214519Y318838D01*
X214548Y318742D01*
X214572Y318645D01*
X214593Y318547D01*
X214610Y318449D01*
X214624Y318349D01*
X214633Y318250D01*
X214639Y318150D01*
X214641Y318050D01*
X214640Y318050D02*
X214640Y313874D01*
X214641Y313874D02*
X214639Y313774D01*
X214633Y313674D01*
X214624Y313575D01*
X214610Y313475D01*
X214593Y313377D01*
X214572Y313279D01*
X214548Y313182D01*
X214519Y313086D01*
X214487Y312991D01*
X214452Y312898D01*
X214413Y312806D01*
X214370Y312715D01*
X214324Y312627D01*
X214274Y312540D01*
X214222Y312455D01*
X214166Y312372D01*
X214107Y312291D01*
X214044Y312213D01*
X213979Y312137D01*
X213911Y312063D01*
X213841Y311993D01*
X213767Y311925D01*
X213691Y311860D01*
X213613Y311797D01*
X213532Y311738D01*
X213449Y311682D01*
X213364Y311630D01*
X213277Y311580D01*
X213189Y311534D01*
X213098Y311491D01*
X213006Y311452D01*
X212913Y311417D01*
X212818Y311385D01*
X212722Y311356D01*
X212625Y311332D01*
X212527Y311311D01*
X212429Y311294D01*
X212329Y311280D01*
X212230Y311271D01*
X212130Y311265D01*
X212030Y311263D01*
X209419Y311263D01*
X218868Y318573D02*
X221478Y320661D01*
X221478Y311263D01*
X218868Y311263D02*
X224089Y311263D01*
X411054Y307213D02*
X411054Y316611D01*
X415231Y316611D01*
X415231Y312434D02*
X411054Y312434D01*
X419093Y312434D02*
X421703Y312434D01*
X421703Y312435D02*
X421804Y312433D01*
X421905Y312427D01*
X422006Y312417D01*
X422106Y312404D01*
X422206Y312386D01*
X422305Y312365D01*
X422403Y312339D01*
X422500Y312310D01*
X422596Y312278D01*
X422690Y312241D01*
X422783Y312201D01*
X422875Y312157D01*
X422964Y312110D01*
X423052Y312059D01*
X423138Y312005D01*
X423221Y311948D01*
X423303Y311888D01*
X423381Y311824D01*
X423458Y311758D01*
X423531Y311688D01*
X423602Y311616D01*
X423670Y311541D01*
X423735Y311463D01*
X423797Y311383D01*
X423856Y311301D01*
X423912Y311216D01*
X423964Y311129D01*
X424013Y311041D01*
X424059Y310950D01*
X424100Y310858D01*
X424139Y310764D01*
X424173Y310669D01*
X424204Y310573D01*
X424231Y310475D01*
X424255Y310377D01*
X424274Y310277D01*
X424290Y310177D01*
X424302Y310077D01*
X424310Y309976D01*
X424314Y309875D01*
X424314Y309773D01*
X424310Y309672D01*
X424302Y309571D01*
X424290Y309471D01*
X424274Y309371D01*
X424255Y309271D01*
X424231Y309173D01*
X424204Y309075D01*
X424173Y308979D01*
X424139Y308884D01*
X424100Y308790D01*
X424059Y308698D01*
X424013Y308607D01*
X423964Y308519D01*
X423912Y308432D01*
X423856Y308347D01*
X423797Y308265D01*
X423735Y308185D01*
X423670Y308107D01*
X423602Y308032D01*
X423531Y307960D01*
X423458Y307890D01*
X423381Y307824D01*
X423303Y307760D01*
X423221Y307700D01*
X423138Y307643D01*
X423052Y307589D01*
X422964Y307538D01*
X422875Y307491D01*
X422783Y307447D01*
X422690Y307407D01*
X422596Y307370D01*
X422500Y307338D01*
X422403Y307309D01*
X422305Y307283D01*
X422206Y307262D01*
X422106Y307244D01*
X422006Y307231D01*
X421905Y307221D01*
X421804Y307215D01*
X421703Y307213D01*
X419093Y307213D01*
X419093Y316611D01*
X421703Y316611D01*
X421793Y316609D01*
X421882Y316603D01*
X421972Y316594D01*
X422061Y316580D01*
X422149Y316563D01*
X422236Y316542D01*
X422323Y316517D01*
X422408Y316488D01*
X422492Y316456D01*
X422574Y316421D01*
X422655Y316381D01*
X422734Y316339D01*
X422811Y316293D01*
X422886Y316243D01*
X422959Y316191D01*
X423030Y316135D01*
X423098Y316077D01*
X423163Y316015D01*
X423226Y315951D01*
X423286Y315884D01*
X423343Y315815D01*
X423397Y315743D01*
X423448Y315669D01*
X423496Y315593D01*
X423540Y315515D01*
X423581Y315435D01*
X423619Y315353D01*
X423653Y315270D01*
X423683Y315185D01*
X423710Y315099D01*
X423733Y315013D01*
X423752Y314925D01*
X423767Y314836D01*
X423779Y314747D01*
X423787Y314658D01*
X423791Y314568D01*
X423791Y314478D01*
X423787Y314388D01*
X423779Y314299D01*
X423767Y314210D01*
X423752Y314121D01*
X423733Y314033D01*
X423710Y313947D01*
X423683Y313861D01*
X423653Y313776D01*
X423619Y313693D01*
X423581Y313611D01*
X423540Y313531D01*
X423496Y313453D01*
X423448Y313377D01*
X423397Y313303D01*
X423343Y313231D01*
X423286Y313162D01*
X423226Y313095D01*
X423163Y313031D01*
X423098Y312969D01*
X423030Y312911D01*
X422959Y312855D01*
X422886Y312803D01*
X422811Y312753D01*
X422734Y312707D01*
X422655Y312665D01*
X422574Y312625D01*
X422492Y312590D01*
X422408Y312558D01*
X422323Y312529D01*
X422236Y312504D01*
X422149Y312483D01*
X422061Y312466D01*
X421972Y312452D01*
X421882Y312443D01*
X421793Y312437D01*
X421703Y312435D01*
X427800Y314523D02*
X430411Y316611D01*
X430411Y307213D01*
X427800Y307213D02*
X433022Y307213D01*
X261747Y328167D02*
X261747Y337565D01*
X264358Y337565D01*
X264459Y337563D01*
X264560Y337557D01*
X264661Y337547D01*
X264761Y337534D01*
X264861Y337516D01*
X264960Y337495D01*
X265058Y337469D01*
X265155Y337440D01*
X265251Y337408D01*
X265345Y337371D01*
X265438Y337331D01*
X265530Y337287D01*
X265619Y337240D01*
X265707Y337189D01*
X265793Y337135D01*
X265876Y337078D01*
X265958Y337018D01*
X266036Y336954D01*
X266113Y336888D01*
X266186Y336818D01*
X266257Y336746D01*
X266325Y336671D01*
X266390Y336593D01*
X266452Y336513D01*
X266511Y336431D01*
X266567Y336346D01*
X266619Y336259D01*
X266668Y336171D01*
X266714Y336080D01*
X266755Y335988D01*
X266794Y335894D01*
X266828Y335799D01*
X266859Y335703D01*
X266886Y335605D01*
X266910Y335507D01*
X266929Y335407D01*
X266945Y335307D01*
X266957Y335207D01*
X266965Y335106D01*
X266969Y335005D01*
X266969Y334903D01*
X266965Y334802D01*
X266957Y334701D01*
X266945Y334601D01*
X266929Y334501D01*
X266910Y334401D01*
X266886Y334303D01*
X266859Y334205D01*
X266828Y334109D01*
X266794Y334014D01*
X266755Y333920D01*
X266714Y333828D01*
X266668Y333737D01*
X266619Y333649D01*
X266567Y333562D01*
X266511Y333477D01*
X266452Y333395D01*
X266390Y333315D01*
X266325Y333237D01*
X266257Y333162D01*
X266186Y333090D01*
X266113Y333020D01*
X266036Y332954D01*
X265958Y332890D01*
X265876Y332830D01*
X265793Y332773D01*
X265707Y332719D01*
X265619Y332668D01*
X265530Y332621D01*
X265438Y332577D01*
X265345Y332537D01*
X265251Y332500D01*
X265155Y332468D01*
X265058Y332439D01*
X264960Y332413D01*
X264861Y332392D01*
X264761Y332374D01*
X264661Y332361D01*
X264560Y332351D01*
X264459Y332345D01*
X264358Y332343D01*
X264358Y332344D02*
X261747Y332344D01*
X264880Y332344D02*
X266968Y328167D01*
X270834Y335477D02*
X273444Y337565D01*
X273444Y328167D01*
X270834Y328167D02*
X276055Y328167D01*
D11*
X245110Y344170D02*
X245110Y361950D01*
X250049Y361950D01*
X250188Y361948D01*
X250326Y361942D01*
X250464Y361933D01*
X250602Y361919D01*
X250739Y361902D01*
X250876Y361880D01*
X251013Y361855D01*
X251148Y361826D01*
X251283Y361793D01*
X251416Y361757D01*
X251549Y361717D01*
X251680Y361673D01*
X251810Y361625D01*
X251939Y361574D01*
X252066Y361519D01*
X252192Y361461D01*
X252316Y361399D01*
X252438Y361334D01*
X252558Y361265D01*
X252677Y361193D01*
X252793Y361118D01*
X252907Y361039D01*
X253019Y360957D01*
X253128Y360872D01*
X253236Y360785D01*
X253340Y360694D01*
X253442Y360600D01*
X253541Y360503D01*
X253638Y360404D01*
X253732Y360302D01*
X253823Y360198D01*
X253910Y360090D01*
X253995Y359981D01*
X254077Y359869D01*
X254156Y359755D01*
X254231Y359639D01*
X254303Y359520D01*
X254372Y359400D01*
X254437Y359278D01*
X254499Y359154D01*
X254557Y359028D01*
X254612Y358901D01*
X254663Y358772D01*
X254711Y358642D01*
X254755Y358511D01*
X254795Y358378D01*
X254831Y358245D01*
X254864Y358110D01*
X254893Y357975D01*
X254918Y357838D01*
X254940Y357701D01*
X254957Y357564D01*
X254971Y357426D01*
X254980Y357288D01*
X254986Y357150D01*
X254988Y357011D01*
X254988Y349109D01*
X254986Y348970D01*
X254980Y348832D01*
X254971Y348694D01*
X254957Y348556D01*
X254940Y348419D01*
X254918Y348282D01*
X254893Y348145D01*
X254864Y348010D01*
X254831Y347875D01*
X254795Y347742D01*
X254755Y347609D01*
X254711Y347478D01*
X254663Y347348D01*
X254612Y347219D01*
X254557Y347092D01*
X254499Y346966D01*
X254437Y346842D01*
X254372Y346720D01*
X254303Y346600D01*
X254231Y346481D01*
X254156Y346365D01*
X254077Y346251D01*
X253995Y346139D01*
X253910Y346030D01*
X253823Y345922D01*
X253732Y345818D01*
X253638Y345716D01*
X253541Y345617D01*
X253442Y345520D01*
X253340Y345426D01*
X253236Y345335D01*
X253128Y345248D01*
X253019Y345163D01*
X252907Y345081D01*
X252793Y345002D01*
X252677Y344927D01*
X252558Y344855D01*
X252438Y344786D01*
X252316Y344721D01*
X252192Y344659D01*
X252066Y344601D01*
X251939Y344546D01*
X251810Y344495D01*
X251680Y344447D01*
X251549Y344403D01*
X251416Y344363D01*
X251283Y344327D01*
X251148Y344294D01*
X251013Y344265D01*
X250876Y344240D01*
X250739Y344218D01*
X250602Y344201D01*
X250464Y344187D01*
X250326Y344178D01*
X250188Y344172D01*
X250049Y344170D01*
X245110Y344170D01*
X249315Y370840D02*
X253266Y370840D01*
X249315Y370840D02*
X249191Y370842D01*
X249067Y370848D01*
X248943Y370858D01*
X248820Y370871D01*
X248697Y370889D01*
X248575Y370910D01*
X248453Y370935D01*
X248332Y370964D01*
X248213Y370997D01*
X248094Y371033D01*
X247977Y371074D01*
X247861Y371117D01*
X247746Y371165D01*
X247633Y371216D01*
X247521Y371271D01*
X247412Y371329D01*
X247304Y371390D01*
X247198Y371455D01*
X247094Y371523D01*
X246993Y371595D01*
X246893Y371669D01*
X246797Y371747D01*
X246702Y371827D01*
X246610Y371911D01*
X246521Y371997D01*
X246435Y372086D01*
X246351Y372178D01*
X246271Y372273D01*
X246193Y372369D01*
X246119Y372469D01*
X246047Y372570D01*
X245979Y372674D01*
X245914Y372780D01*
X245853Y372888D01*
X245795Y372997D01*
X245740Y373109D01*
X245689Y373222D01*
X245641Y373337D01*
X245598Y373453D01*
X245557Y373570D01*
X245521Y373689D01*
X245488Y373808D01*
X245459Y373929D01*
X245434Y374051D01*
X245413Y374173D01*
X245395Y374296D01*
X245382Y374419D01*
X245372Y374543D01*
X245366Y374667D01*
X245364Y374791D01*
X245364Y384669D01*
X245366Y384793D01*
X245372Y384917D01*
X245382Y385041D01*
X245395Y385164D01*
X245413Y385287D01*
X245434Y385409D01*
X245459Y385531D01*
X245488Y385652D01*
X245521Y385771D01*
X245557Y385890D01*
X245598Y386007D01*
X245641Y386123D01*
X245689Y386238D01*
X245740Y386351D01*
X245795Y386463D01*
X245853Y386572D01*
X245914Y386680D01*
X245979Y386786D01*
X246047Y386890D01*
X246119Y386991D01*
X246193Y387091D01*
X246271Y387187D01*
X246351Y387282D01*
X246435Y387374D01*
X246521Y387463D01*
X246610Y387549D01*
X246702Y387633D01*
X246797Y387713D01*
X246893Y387791D01*
X246993Y387865D01*
X247094Y387937D01*
X247198Y388005D01*
X247304Y388070D01*
X247412Y388131D01*
X247521Y388189D01*
X247633Y388244D01*
X247746Y388295D01*
X247861Y388343D01*
X247977Y388386D01*
X248094Y388427D01*
X248213Y388463D01*
X248332Y388496D01*
X248453Y388525D01*
X248575Y388550D01*
X248697Y388571D01*
X248820Y388589D01*
X248943Y388602D01*
X249067Y388612D01*
X249191Y388618D01*
X249315Y388620D01*
X253266Y388620D01*
X438912Y460728D02*
X443851Y460728D01*
X443991Y460726D01*
X444130Y460720D01*
X444270Y460710D01*
X444409Y460696D01*
X444548Y460679D01*
X444686Y460657D01*
X444823Y460631D01*
X444960Y460602D01*
X445096Y460569D01*
X445230Y460532D01*
X445364Y460491D01*
X445496Y460446D01*
X445628Y460397D01*
X445757Y460345D01*
X445885Y460290D01*
X446012Y460230D01*
X446137Y460167D01*
X446260Y460101D01*
X446381Y460031D01*
X446500Y459958D01*
X446617Y459881D01*
X446731Y459801D01*
X446844Y459718D01*
X446954Y459632D01*
X447061Y459542D01*
X447166Y459450D01*
X447268Y459355D01*
X447368Y459257D01*
X447465Y459156D01*
X447559Y459052D01*
X447649Y458946D01*
X447737Y458837D01*
X447822Y458726D01*
X447903Y458612D01*
X447982Y458497D01*
X448057Y458379D01*
X448128Y458259D01*
X448196Y458136D01*
X448261Y458013D01*
X448322Y457887D01*
X448380Y457759D01*
X448434Y457631D01*
X448484Y457500D01*
X448531Y457368D01*
X448574Y457235D01*
X448613Y457101D01*
X448648Y456966D01*
X448679Y456830D01*
X448707Y456692D01*
X448730Y456555D01*
X448750Y456416D01*
X448766Y456277D01*
X448778Y456138D01*
X448786Y455999D01*
X448790Y455859D01*
X448790Y455719D01*
X448786Y455579D01*
X448778Y455440D01*
X448766Y455301D01*
X448750Y455162D01*
X448730Y455023D01*
X448707Y454886D01*
X448679Y454748D01*
X448648Y454612D01*
X448613Y454477D01*
X448574Y454343D01*
X448531Y454210D01*
X448484Y454078D01*
X448434Y453947D01*
X448380Y453819D01*
X448322Y453691D01*
X448261Y453565D01*
X448196Y453442D01*
X448128Y453320D01*
X448057Y453199D01*
X447982Y453081D01*
X447903Y452966D01*
X447822Y452852D01*
X447737Y452741D01*
X447649Y452632D01*
X447559Y452526D01*
X447465Y452422D01*
X447368Y452321D01*
X447268Y452223D01*
X447166Y452128D01*
X447061Y452036D01*
X446954Y451946D01*
X446844Y451860D01*
X446731Y451777D01*
X446617Y451697D01*
X446500Y451620D01*
X446381Y451547D01*
X446260Y451477D01*
X446137Y451411D01*
X446012Y451348D01*
X445885Y451288D01*
X445757Y451233D01*
X445628Y451181D01*
X445496Y451132D01*
X445364Y451087D01*
X445230Y451046D01*
X445096Y451009D01*
X444960Y450976D01*
X444823Y450947D01*
X444686Y450921D01*
X444548Y450899D01*
X444409Y450882D01*
X444270Y450868D01*
X444130Y450858D01*
X443991Y450852D01*
X443851Y450850D01*
X438912Y450850D01*
X438912Y468630D01*
X443851Y468630D01*
X443975Y468628D01*
X444099Y468622D01*
X444223Y468612D01*
X444346Y468599D01*
X444469Y468581D01*
X444591Y468560D01*
X444713Y468535D01*
X444834Y468506D01*
X444953Y468473D01*
X445072Y468437D01*
X445189Y468396D01*
X445305Y468353D01*
X445420Y468305D01*
X445533Y468254D01*
X445645Y468199D01*
X445754Y468141D01*
X445862Y468080D01*
X445968Y468015D01*
X446072Y467947D01*
X446173Y467875D01*
X446273Y467801D01*
X446369Y467723D01*
X446464Y467643D01*
X446556Y467559D01*
X446645Y467473D01*
X446731Y467384D01*
X446815Y467292D01*
X446895Y467197D01*
X446973Y467101D01*
X447047Y467001D01*
X447119Y466900D01*
X447187Y466796D01*
X447252Y466690D01*
X447313Y466582D01*
X447371Y466473D01*
X447426Y466361D01*
X447477Y466248D01*
X447525Y466133D01*
X447568Y466017D01*
X447609Y465900D01*
X447645Y465781D01*
X447678Y465662D01*
X447707Y465541D01*
X447732Y465419D01*
X447753Y465297D01*
X447771Y465174D01*
X447784Y465051D01*
X447794Y464927D01*
X447800Y464803D01*
X447802Y464679D01*
X447800Y464555D01*
X447794Y464431D01*
X447784Y464307D01*
X447771Y464184D01*
X447753Y464061D01*
X447732Y463939D01*
X447707Y463817D01*
X447678Y463696D01*
X447645Y463577D01*
X447609Y463458D01*
X447568Y463341D01*
X447525Y463225D01*
X447477Y463110D01*
X447426Y462997D01*
X447371Y462885D01*
X447313Y462776D01*
X447252Y462668D01*
X447187Y462562D01*
X447119Y462458D01*
X447047Y462357D01*
X446973Y462257D01*
X446895Y462161D01*
X446815Y462066D01*
X446731Y461974D01*
X446645Y461885D01*
X446556Y461799D01*
X446464Y461715D01*
X446369Y461635D01*
X446273Y461557D01*
X446173Y461483D01*
X446072Y461411D01*
X445968Y461343D01*
X445862Y461278D01*
X445754Y461217D01*
X445645Y461159D01*
X445533Y461104D01*
X445420Y461053D01*
X445305Y461005D01*
X445189Y460962D01*
X445072Y460921D01*
X444953Y460885D01*
X444834Y460852D01*
X444713Y460823D01*
X444591Y460798D01*
X444469Y460777D01*
X444346Y460759D01*
X444223Y460746D01*
X444099Y460736D01*
X443975Y460730D01*
X443851Y460728D01*
X461264Y343408D02*
X461264Y325628D01*
X461264Y343408D02*
X466203Y343408D01*
X466343Y343406D01*
X466482Y343400D01*
X466622Y343390D01*
X466761Y343376D01*
X466900Y343359D01*
X467038Y343337D01*
X467175Y343311D01*
X467312Y343282D01*
X467448Y343249D01*
X467582Y343212D01*
X467716Y343171D01*
X467848Y343126D01*
X467980Y343077D01*
X468109Y343025D01*
X468237Y342970D01*
X468364Y342910D01*
X468489Y342847D01*
X468612Y342781D01*
X468733Y342711D01*
X468852Y342638D01*
X468969Y342561D01*
X469083Y342481D01*
X469196Y342398D01*
X469306Y342312D01*
X469413Y342222D01*
X469518Y342130D01*
X469620Y342035D01*
X469720Y341937D01*
X469817Y341836D01*
X469911Y341732D01*
X470001Y341626D01*
X470089Y341517D01*
X470174Y341406D01*
X470255Y341292D01*
X470334Y341177D01*
X470409Y341059D01*
X470480Y340939D01*
X470548Y340816D01*
X470613Y340693D01*
X470674Y340567D01*
X470732Y340439D01*
X470786Y340311D01*
X470836Y340180D01*
X470883Y340048D01*
X470926Y339915D01*
X470965Y339781D01*
X471000Y339646D01*
X471031Y339510D01*
X471059Y339372D01*
X471082Y339235D01*
X471102Y339096D01*
X471118Y338957D01*
X471130Y338818D01*
X471138Y338679D01*
X471142Y338539D01*
X471142Y338399D01*
X471138Y338259D01*
X471130Y338120D01*
X471118Y337981D01*
X471102Y337842D01*
X471082Y337703D01*
X471059Y337566D01*
X471031Y337428D01*
X471000Y337292D01*
X470965Y337157D01*
X470926Y337023D01*
X470883Y336890D01*
X470836Y336758D01*
X470786Y336627D01*
X470732Y336499D01*
X470674Y336371D01*
X470613Y336245D01*
X470548Y336122D01*
X470480Y336000D01*
X470409Y335879D01*
X470334Y335761D01*
X470255Y335646D01*
X470174Y335532D01*
X470089Y335421D01*
X470001Y335312D01*
X469911Y335206D01*
X469817Y335102D01*
X469720Y335001D01*
X469620Y334903D01*
X469518Y334808D01*
X469413Y334716D01*
X469306Y334626D01*
X469196Y334540D01*
X469083Y334457D01*
X468969Y334377D01*
X468852Y334300D01*
X468733Y334227D01*
X468612Y334157D01*
X468489Y334091D01*
X468364Y334028D01*
X468237Y333968D01*
X468109Y333913D01*
X467980Y333861D01*
X467848Y333812D01*
X467716Y333767D01*
X467582Y333726D01*
X467448Y333689D01*
X467312Y333656D01*
X467175Y333627D01*
X467038Y333601D01*
X466900Y333579D01*
X466761Y333562D01*
X466622Y333548D01*
X466482Y333538D01*
X466343Y333532D01*
X466203Y333530D01*
X461264Y333530D01*
X467191Y333530D02*
X471142Y325628D01*
D124*
X294132Y372110D02*
X294132Y278130D01*
X333248Y372110D02*
X333246Y372232D01*
X333240Y372354D01*
X333230Y372476D01*
X333217Y372597D01*
X333199Y372718D01*
X333178Y372838D01*
X333152Y372958D01*
X333123Y373076D01*
X333091Y373194D01*
X333054Y373311D01*
X333014Y373426D01*
X332970Y373540D01*
X332922Y373652D01*
X332871Y373763D01*
X332816Y373872D01*
X332758Y373980D01*
X332696Y374085D01*
X332631Y374188D01*
X332563Y374290D01*
X332491Y374389D01*
X332417Y374485D01*
X332339Y374580D01*
X332258Y374671D01*
X332175Y374761D01*
X332089Y374847D01*
X331999Y374930D01*
X331908Y375011D01*
X331813Y375089D01*
X331717Y375163D01*
X331618Y375235D01*
X331516Y375303D01*
X331413Y375368D01*
X331308Y375430D01*
X331200Y375488D01*
X331091Y375543D01*
X330980Y375594D01*
X330868Y375642D01*
X330754Y375686D01*
X330639Y375726D01*
X330522Y375763D01*
X330404Y375795D01*
X330286Y375824D01*
X330166Y375850D01*
X330046Y375871D01*
X329925Y375889D01*
X329804Y375902D01*
X329682Y375912D01*
X329560Y375918D01*
X329438Y375920D01*
X294132Y278130D02*
X294134Y278008D01*
X294140Y277886D01*
X294150Y277764D01*
X294163Y277643D01*
X294181Y277522D01*
X294202Y277402D01*
X294228Y277282D01*
X294257Y277164D01*
X294289Y277046D01*
X294326Y276929D01*
X294366Y276814D01*
X294410Y276700D01*
X294458Y276588D01*
X294509Y276477D01*
X294564Y276368D01*
X294622Y276260D01*
X294684Y276155D01*
X294749Y276052D01*
X294817Y275950D01*
X294889Y275851D01*
X294963Y275755D01*
X295041Y275660D01*
X295122Y275569D01*
X295205Y275479D01*
X295291Y275393D01*
X295381Y275310D01*
X295472Y275229D01*
X295567Y275151D01*
X295663Y275077D01*
X295762Y275005D01*
X295864Y274937D01*
X295967Y274872D01*
X296072Y274810D01*
X296180Y274752D01*
X296289Y274697D01*
X296400Y274646D01*
X296512Y274598D01*
X296626Y274554D01*
X296741Y274514D01*
X296858Y274477D01*
X296976Y274445D01*
X297094Y274416D01*
X297214Y274390D01*
X297334Y274369D01*
X297455Y274351D01*
X297576Y274338D01*
X297698Y274328D01*
X297820Y274322D01*
X297942Y274320D01*
X294132Y372110D02*
X294134Y372232D01*
X294140Y372354D01*
X294150Y372476D01*
X294163Y372597D01*
X294181Y372718D01*
X294202Y372838D01*
X294228Y372958D01*
X294257Y373076D01*
X294289Y373194D01*
X294326Y373311D01*
X294366Y373426D01*
X294410Y373540D01*
X294458Y373652D01*
X294509Y373763D01*
X294564Y373872D01*
X294622Y373980D01*
X294684Y374085D01*
X294749Y374188D01*
X294817Y374290D01*
X294889Y374389D01*
X294963Y374485D01*
X295041Y374580D01*
X295122Y374671D01*
X295205Y374761D01*
X295291Y374847D01*
X295381Y374930D01*
X295472Y375011D01*
X295567Y375089D01*
X295663Y375163D01*
X295762Y375235D01*
X295864Y375303D01*
X295967Y375368D01*
X296072Y375430D01*
X296180Y375488D01*
X296289Y375543D01*
X296400Y375594D01*
X296512Y375642D01*
X296626Y375686D01*
X296741Y375726D01*
X296858Y375763D01*
X296976Y375795D01*
X297094Y375824D01*
X297214Y375850D01*
X297334Y375871D01*
X297455Y375889D01*
X297576Y375902D01*
X297698Y375912D01*
X297820Y375918D01*
X297942Y375920D01*
X333248Y278130D02*
X333246Y278008D01*
X333240Y277886D01*
X333230Y277764D01*
X333217Y277643D01*
X333199Y277522D01*
X333178Y277402D01*
X333152Y277282D01*
X333123Y277164D01*
X333091Y277046D01*
X333054Y276929D01*
X333014Y276814D01*
X332970Y276700D01*
X332922Y276588D01*
X332871Y276477D01*
X332816Y276368D01*
X332758Y276260D01*
X332696Y276155D01*
X332631Y276052D01*
X332563Y275950D01*
X332491Y275851D01*
X332417Y275755D01*
X332339Y275660D01*
X332258Y275569D01*
X332175Y275479D01*
X332089Y275393D01*
X331999Y275310D01*
X331908Y275229D01*
X331813Y275151D01*
X331717Y275077D01*
X331618Y275005D01*
X331516Y274937D01*
X331413Y274872D01*
X331308Y274810D01*
X331200Y274752D01*
X331091Y274697D01*
X330980Y274646D01*
X330868Y274598D01*
X330754Y274554D01*
X330639Y274514D01*
X330522Y274477D01*
X330404Y274445D01*
X330286Y274416D01*
X330166Y274390D01*
X330046Y274369D01*
X329925Y274351D01*
X329804Y274338D01*
X329682Y274328D01*
X329560Y274322D01*
X329438Y274320D01*
X333248Y278130D02*
X333248Y372110D01*
X329438Y375920D02*
X297942Y375920D01*
X297942Y274320D02*
X308610Y274320D01*
X318770Y274320D01*
X329438Y274320D01*
X318770Y274320D02*
X318768Y274461D01*
X318762Y274602D01*
X318752Y274743D01*
X318739Y274884D01*
X318721Y275024D01*
X318699Y275163D01*
X318674Y275302D01*
X318645Y275441D01*
X318612Y275578D01*
X318575Y275714D01*
X318534Y275849D01*
X318490Y275984D01*
X318442Y276116D01*
X318390Y276248D01*
X318335Y276378D01*
X318276Y276506D01*
X318213Y276633D01*
X318147Y276757D01*
X318078Y276880D01*
X318005Y277001D01*
X317929Y277120D01*
X317849Y277237D01*
X317766Y277351D01*
X317681Y277464D01*
X317592Y277573D01*
X317500Y277681D01*
X317405Y277785D01*
X317307Y277887D01*
X317206Y277986D01*
X317103Y278083D01*
X316997Y278176D01*
X316889Y278266D01*
X316778Y278354D01*
X316665Y278438D01*
X316549Y278519D01*
X316431Y278597D01*
X316311Y278672D01*
X316189Y278743D01*
X316065Y278811D01*
X315939Y278875D01*
X315812Y278936D01*
X315683Y278993D01*
X315552Y279046D01*
X315420Y279096D01*
X315287Y279143D01*
X315152Y279185D01*
X315016Y279224D01*
X314879Y279259D01*
X314742Y279290D01*
X314603Y279317D01*
X314464Y279341D01*
X314324Y279360D01*
X314184Y279376D01*
X314043Y279388D01*
X313902Y279396D01*
X313761Y279400D01*
X313619Y279400D01*
X313478Y279396D01*
X313337Y279388D01*
X313196Y279376D01*
X313056Y279360D01*
X312916Y279341D01*
X312777Y279317D01*
X312638Y279290D01*
X312501Y279259D01*
X312364Y279224D01*
X312228Y279185D01*
X312093Y279143D01*
X311960Y279096D01*
X311828Y279046D01*
X311697Y278993D01*
X311568Y278936D01*
X311441Y278875D01*
X311315Y278811D01*
X311191Y278743D01*
X311069Y278672D01*
X310949Y278597D01*
X310831Y278519D01*
X310715Y278438D01*
X310602Y278354D01*
X310491Y278266D01*
X310383Y278176D01*
X310277Y278083D01*
X310174Y277986D01*
X310073Y277887D01*
X309975Y277785D01*
X309880Y277681D01*
X309788Y277573D01*
X309699Y277464D01*
X309614Y277351D01*
X309531Y277237D01*
X309451Y277120D01*
X309375Y277001D01*
X309302Y276880D01*
X309233Y276757D01*
X309167Y276633D01*
X309104Y276506D01*
X309045Y276378D01*
X308990Y276248D01*
X308938Y276116D01*
X308890Y275984D01*
X308846Y275849D01*
X308805Y275714D01*
X308768Y275578D01*
X308735Y275441D01*
X308706Y275302D01*
X308681Y275163D01*
X308659Y275024D01*
X308641Y274884D01*
X308628Y274743D01*
X308618Y274602D01*
X308612Y274461D01*
X308610Y274320D01*
X329692Y274320D02*
X329692Y375920D01*
D10*
X306273Y371602D02*
X306273Y364998D01*
X306275Y364898D01*
X306281Y364799D01*
X306291Y364699D01*
X306304Y364601D01*
X306322Y364502D01*
X306343Y364405D01*
X306368Y364309D01*
X306397Y364213D01*
X306430Y364119D01*
X306466Y364026D01*
X306506Y363935D01*
X306550Y363845D01*
X306597Y363757D01*
X306647Y363671D01*
X306701Y363587D01*
X306758Y363505D01*
X306818Y363426D01*
X306882Y363348D01*
X306948Y363274D01*
X307017Y363202D01*
X307089Y363133D01*
X307163Y363067D01*
X307241Y363003D01*
X307320Y362943D01*
X307402Y362886D01*
X307486Y362832D01*
X307572Y362782D01*
X307660Y362735D01*
X307750Y362691D01*
X307841Y362651D01*
X307934Y362615D01*
X308028Y362582D01*
X308124Y362553D01*
X308220Y362528D01*
X308317Y362507D01*
X308416Y362489D01*
X308514Y362476D01*
X308614Y362466D01*
X308713Y362460D01*
X308813Y362458D01*
X308913Y362460D01*
X309012Y362466D01*
X309112Y362476D01*
X309210Y362489D01*
X309309Y362507D01*
X309406Y362528D01*
X309502Y362553D01*
X309598Y362582D01*
X309692Y362615D01*
X309785Y362651D01*
X309876Y362691D01*
X309966Y362735D01*
X310054Y362782D01*
X310140Y362832D01*
X310224Y362886D01*
X310306Y362943D01*
X310385Y363003D01*
X310463Y363067D01*
X310537Y363133D01*
X310609Y363202D01*
X310678Y363274D01*
X310744Y363348D01*
X310808Y363426D01*
X310868Y363505D01*
X310925Y363587D01*
X310979Y363671D01*
X311029Y363757D01*
X311076Y363845D01*
X311120Y363935D01*
X311160Y364026D01*
X311196Y364119D01*
X311229Y364213D01*
X311258Y364309D01*
X311283Y364405D01*
X311304Y364502D01*
X311322Y364601D01*
X311335Y364699D01*
X311345Y364799D01*
X311351Y364898D01*
X311353Y364998D01*
X311353Y371602D01*
X315722Y362458D02*
X318262Y362458D01*
X318362Y362460D01*
X318461Y362466D01*
X318561Y362476D01*
X318659Y362489D01*
X318758Y362507D01*
X318855Y362528D01*
X318951Y362553D01*
X319047Y362582D01*
X319141Y362615D01*
X319234Y362651D01*
X319325Y362691D01*
X319415Y362735D01*
X319503Y362782D01*
X319589Y362832D01*
X319673Y362886D01*
X319755Y362943D01*
X319834Y363003D01*
X319912Y363067D01*
X319986Y363133D01*
X320058Y363202D01*
X320127Y363274D01*
X320193Y363348D01*
X320257Y363426D01*
X320317Y363505D01*
X320374Y363587D01*
X320428Y363671D01*
X320478Y363757D01*
X320525Y363845D01*
X320569Y363935D01*
X320609Y364026D01*
X320645Y364119D01*
X320678Y364213D01*
X320707Y364309D01*
X320732Y364405D01*
X320753Y364502D01*
X320771Y364601D01*
X320784Y364699D01*
X320794Y364799D01*
X320800Y364898D01*
X320802Y364998D01*
X320800Y365098D01*
X320794Y365197D01*
X320784Y365297D01*
X320771Y365395D01*
X320753Y365494D01*
X320732Y365591D01*
X320707Y365687D01*
X320678Y365783D01*
X320645Y365877D01*
X320609Y365970D01*
X320569Y366061D01*
X320525Y366151D01*
X320478Y366239D01*
X320428Y366325D01*
X320374Y366409D01*
X320317Y366491D01*
X320257Y366570D01*
X320193Y366648D01*
X320127Y366722D01*
X320058Y366794D01*
X319986Y366863D01*
X319912Y366929D01*
X319834Y366993D01*
X319755Y367053D01*
X319673Y367110D01*
X319589Y367164D01*
X319503Y367214D01*
X319415Y367261D01*
X319325Y367305D01*
X319234Y367345D01*
X319141Y367381D01*
X319047Y367414D01*
X318951Y367443D01*
X318855Y367468D01*
X318758Y367489D01*
X318659Y367507D01*
X318561Y367520D01*
X318461Y367530D01*
X318362Y367536D01*
X318262Y367538D01*
X318770Y371602D02*
X315722Y371602D01*
X318770Y371602D02*
X318859Y371600D01*
X318947Y371594D01*
X319035Y371585D01*
X319123Y371571D01*
X319210Y371554D01*
X319296Y371533D01*
X319381Y371508D01*
X319465Y371479D01*
X319548Y371447D01*
X319629Y371412D01*
X319708Y371372D01*
X319786Y371330D01*
X319862Y371284D01*
X319936Y371235D01*
X320007Y371182D01*
X320076Y371127D01*
X320143Y371068D01*
X320207Y371007D01*
X320268Y370943D01*
X320327Y370876D01*
X320382Y370807D01*
X320435Y370736D01*
X320484Y370662D01*
X320530Y370586D01*
X320572Y370508D01*
X320612Y370429D01*
X320647Y370348D01*
X320679Y370265D01*
X320708Y370181D01*
X320733Y370096D01*
X320754Y370010D01*
X320771Y369923D01*
X320785Y369835D01*
X320794Y369747D01*
X320800Y369659D01*
X320802Y369570D01*
X320800Y369481D01*
X320794Y369393D01*
X320785Y369305D01*
X320771Y369217D01*
X320754Y369130D01*
X320733Y369044D01*
X320708Y368959D01*
X320679Y368875D01*
X320647Y368792D01*
X320612Y368711D01*
X320572Y368632D01*
X320530Y368554D01*
X320484Y368478D01*
X320435Y368404D01*
X320382Y368333D01*
X320327Y368264D01*
X320268Y368197D01*
X320207Y368133D01*
X320143Y368072D01*
X320076Y368013D01*
X320007Y367958D01*
X319936Y367905D01*
X319862Y367856D01*
X319786Y367810D01*
X319708Y367768D01*
X319629Y367728D01*
X319548Y367693D01*
X319465Y367661D01*
X319381Y367632D01*
X319296Y367607D01*
X319210Y367586D01*
X319123Y367569D01*
X319035Y367555D01*
X318947Y367546D01*
X318859Y367540D01*
X318770Y367538D01*
X316738Y367538D01*
D123*
X323779Y241681D02*
X325868Y241681D01*
X323779Y241681D02*
X323690Y241683D01*
X323602Y241689D01*
X323514Y241698D01*
X323426Y241711D01*
X323339Y241728D01*
X323253Y241748D01*
X323168Y241773D01*
X323083Y241800D01*
X323000Y241832D01*
X322919Y241866D01*
X322839Y241905D01*
X322761Y241946D01*
X322684Y241991D01*
X322610Y242039D01*
X322537Y242090D01*
X322467Y242144D01*
X322400Y242202D01*
X322334Y242262D01*
X322272Y242324D01*
X322212Y242390D01*
X322154Y242457D01*
X322100Y242527D01*
X322049Y242600D01*
X322001Y242674D01*
X321956Y242751D01*
X321915Y242829D01*
X321876Y242909D01*
X321842Y242990D01*
X321810Y243073D01*
X321783Y243158D01*
X321758Y243243D01*
X321738Y243329D01*
X321721Y243416D01*
X321708Y243504D01*
X321699Y243592D01*
X321693Y243680D01*
X321691Y243769D01*
X321691Y248991D01*
X321693Y249082D01*
X321699Y249173D01*
X321709Y249264D01*
X321723Y249354D01*
X321740Y249443D01*
X321762Y249531D01*
X321788Y249619D01*
X321817Y249705D01*
X321850Y249790D01*
X321887Y249873D01*
X321927Y249955D01*
X321971Y250035D01*
X322018Y250113D01*
X322069Y250189D01*
X322122Y250262D01*
X322179Y250333D01*
X322240Y250402D01*
X322303Y250467D01*
X322368Y250530D01*
X322437Y250590D01*
X322508Y250648D01*
X322581Y250701D01*
X322657Y250752D01*
X322735Y250799D01*
X322815Y250843D01*
X322897Y250883D01*
X322980Y250920D01*
X323065Y250953D01*
X323151Y250982D01*
X323239Y251008D01*
X323327Y251030D01*
X323416Y251047D01*
X323506Y251061D01*
X323597Y251071D01*
X323688Y251077D01*
X323779Y251079D01*
X325868Y251079D01*
X329337Y248991D02*
X331947Y251079D01*
X331947Y241681D01*
X329337Y241681D02*
X334558Y241681D01*
X338481Y248991D02*
X341091Y251079D01*
X341091Y241681D01*
X338481Y241681D02*
X343702Y241681D01*
X258558Y256921D02*
X256469Y256921D01*
X256380Y256923D01*
X256292Y256929D01*
X256204Y256938D01*
X256116Y256951D01*
X256029Y256968D01*
X255943Y256988D01*
X255858Y257013D01*
X255773Y257040D01*
X255690Y257072D01*
X255609Y257106D01*
X255529Y257145D01*
X255451Y257186D01*
X255374Y257231D01*
X255300Y257279D01*
X255227Y257330D01*
X255157Y257384D01*
X255090Y257442D01*
X255024Y257502D01*
X254962Y257564D01*
X254902Y257630D01*
X254844Y257697D01*
X254790Y257767D01*
X254739Y257840D01*
X254691Y257914D01*
X254646Y257991D01*
X254605Y258069D01*
X254566Y258149D01*
X254532Y258230D01*
X254500Y258313D01*
X254473Y258398D01*
X254448Y258483D01*
X254428Y258569D01*
X254411Y258656D01*
X254398Y258744D01*
X254389Y258832D01*
X254383Y258920D01*
X254381Y259009D01*
X254381Y264231D01*
X254383Y264322D01*
X254389Y264413D01*
X254399Y264504D01*
X254413Y264594D01*
X254430Y264683D01*
X254452Y264771D01*
X254478Y264859D01*
X254507Y264945D01*
X254540Y265030D01*
X254577Y265113D01*
X254617Y265195D01*
X254661Y265275D01*
X254708Y265353D01*
X254759Y265429D01*
X254812Y265502D01*
X254869Y265573D01*
X254930Y265642D01*
X254993Y265707D01*
X255058Y265770D01*
X255127Y265830D01*
X255198Y265888D01*
X255271Y265941D01*
X255347Y265992D01*
X255425Y266039D01*
X255505Y266083D01*
X255587Y266123D01*
X255670Y266160D01*
X255755Y266193D01*
X255841Y266222D01*
X255929Y266248D01*
X256017Y266270D01*
X256106Y266287D01*
X256196Y266301D01*
X256287Y266311D01*
X256378Y266317D01*
X256469Y266319D01*
X258558Y266319D01*
X262027Y264231D02*
X264637Y266319D01*
X264637Y256921D01*
X262027Y256921D02*
X267248Y256921D01*
X276392Y263970D02*
X276390Y264065D01*
X276384Y264159D01*
X276375Y264253D01*
X276362Y264347D01*
X276345Y264440D01*
X276324Y264532D01*
X276299Y264624D01*
X276271Y264714D01*
X276239Y264803D01*
X276204Y264891D01*
X276165Y264977D01*
X276123Y265062D01*
X276077Y265145D01*
X276028Y265226D01*
X275976Y265305D01*
X275921Y265382D01*
X275862Y265456D01*
X275801Y265528D01*
X275737Y265598D01*
X275670Y265665D01*
X275600Y265729D01*
X275528Y265790D01*
X275454Y265849D01*
X275377Y265904D01*
X275298Y265956D01*
X275217Y266005D01*
X275134Y266051D01*
X275049Y266093D01*
X274963Y266132D01*
X274875Y266167D01*
X274786Y266199D01*
X274696Y266227D01*
X274604Y266252D01*
X274512Y266273D01*
X274419Y266290D01*
X274325Y266303D01*
X274231Y266312D01*
X274137Y266318D01*
X274042Y266320D01*
X274042Y266319D02*
X273934Y266317D01*
X273825Y266311D01*
X273717Y266301D01*
X273610Y266288D01*
X273503Y266270D01*
X273396Y266249D01*
X273291Y266224D01*
X273186Y266195D01*
X273083Y266163D01*
X272981Y266126D01*
X272880Y266086D01*
X272781Y266043D01*
X272683Y265996D01*
X272587Y265945D01*
X272493Y265891D01*
X272401Y265834D01*
X272311Y265773D01*
X272223Y265709D01*
X272138Y265643D01*
X272055Y265573D01*
X271975Y265500D01*
X271897Y265424D01*
X271822Y265346D01*
X271750Y265265D01*
X271681Y265181D01*
X271615Y265095D01*
X271552Y265007D01*
X271493Y264916D01*
X271436Y264824D01*
X271383Y264729D01*
X271334Y264633D01*
X271288Y264534D01*
X271245Y264435D01*
X271206Y264333D01*
X271171Y264231D01*
X275609Y262142D02*
X275678Y262211D01*
X275744Y262282D01*
X275808Y262355D01*
X275869Y262431D01*
X275927Y262510D01*
X275981Y262590D01*
X276033Y262673D01*
X276081Y262757D01*
X276127Y262843D01*
X276168Y262931D01*
X276207Y263021D01*
X276242Y263112D01*
X276273Y263204D01*
X276301Y263297D01*
X276325Y263391D01*
X276345Y263486D01*
X276362Y263582D01*
X276375Y263679D01*
X276384Y263776D01*
X276390Y263873D01*
X276392Y263970D01*
X275609Y262142D02*
X271171Y256921D01*
X276392Y256921D01*
X406019Y245945D02*
X406019Y243857D01*
X406017Y243768D01*
X406011Y243680D01*
X406002Y243592D01*
X405989Y243504D01*
X405972Y243417D01*
X405952Y243331D01*
X405927Y243246D01*
X405900Y243161D01*
X405868Y243078D01*
X405834Y242997D01*
X405795Y242917D01*
X405754Y242839D01*
X405709Y242762D01*
X405661Y242688D01*
X405610Y242615D01*
X405556Y242545D01*
X405498Y242478D01*
X405438Y242412D01*
X405376Y242350D01*
X405310Y242290D01*
X405243Y242232D01*
X405173Y242178D01*
X405100Y242127D01*
X405026Y242079D01*
X404949Y242034D01*
X404871Y241993D01*
X404791Y241954D01*
X404710Y241920D01*
X404627Y241888D01*
X404542Y241861D01*
X404457Y241836D01*
X404371Y241816D01*
X404284Y241799D01*
X404196Y241786D01*
X404108Y241777D01*
X404020Y241771D01*
X403931Y241769D01*
X403931Y241768D02*
X398709Y241768D01*
X398618Y241770D01*
X398527Y241776D01*
X398436Y241786D01*
X398346Y241800D01*
X398257Y241818D01*
X398168Y241839D01*
X398081Y241865D01*
X397995Y241894D01*
X397910Y241927D01*
X397826Y241964D01*
X397744Y242004D01*
X397665Y242048D01*
X397587Y242095D01*
X397511Y242146D01*
X397437Y242200D01*
X397366Y242257D01*
X397298Y242317D01*
X397232Y242380D01*
X397169Y242446D01*
X397109Y242514D01*
X397052Y242585D01*
X396998Y242659D01*
X396947Y242735D01*
X396900Y242812D01*
X396856Y242892D01*
X396816Y242974D01*
X396779Y243058D01*
X396746Y243142D01*
X396717Y243229D01*
X396691Y243316D01*
X396670Y243405D01*
X396652Y243494D01*
X396638Y243584D01*
X396628Y243675D01*
X396622Y243766D01*
X396620Y243857D01*
X396621Y243857D02*
X396621Y245945D01*
X398709Y249414D02*
X396621Y252024D01*
X406019Y252024D01*
X406019Y249414D02*
X406019Y254635D01*
X401320Y258558D02*
X401135Y258560D01*
X400950Y258567D01*
X400766Y258578D01*
X400582Y258593D01*
X400398Y258613D01*
X400214Y258637D01*
X400032Y258666D01*
X399850Y258699D01*
X399669Y258736D01*
X399489Y258778D01*
X399309Y258824D01*
X399131Y258874D01*
X398955Y258928D01*
X398779Y258987D01*
X398605Y259049D01*
X398433Y259116D01*
X398262Y259187D01*
X398093Y259262D01*
X397926Y259341D01*
X397926Y259340D02*
X397846Y259370D01*
X397767Y259403D01*
X397690Y259440D01*
X397614Y259480D01*
X397540Y259523D01*
X397468Y259569D01*
X397399Y259619D01*
X397331Y259671D01*
X397266Y259727D01*
X397203Y259785D01*
X397144Y259847D01*
X397086Y259910D01*
X397032Y259977D01*
X396981Y260045D01*
X396933Y260116D01*
X396888Y260189D01*
X396846Y260263D01*
X396808Y260340D01*
X396773Y260418D01*
X396741Y260497D01*
X396713Y260578D01*
X396689Y260660D01*
X396668Y260744D01*
X396651Y260827D01*
X396638Y260912D01*
X396629Y260997D01*
X396623Y261082D01*
X396621Y261168D01*
X396623Y261254D01*
X396629Y261339D01*
X396638Y261424D01*
X396651Y261509D01*
X396668Y261592D01*
X396689Y261676D01*
X396713Y261758D01*
X396741Y261839D01*
X396773Y261918D01*
X396808Y261996D01*
X396846Y262073D01*
X396888Y262147D01*
X396933Y262220D01*
X396981Y262291D01*
X397032Y262359D01*
X397086Y262426D01*
X397144Y262489D01*
X397203Y262551D01*
X397266Y262609D01*
X397331Y262665D01*
X397399Y262717D01*
X397468Y262767D01*
X397540Y262813D01*
X397614Y262856D01*
X397690Y262896D01*
X397767Y262933D01*
X397846Y262966D01*
X397926Y262996D01*
X398093Y263075D01*
X398262Y263150D01*
X398433Y263221D01*
X398605Y263288D01*
X398779Y263350D01*
X398955Y263409D01*
X399131Y263463D01*
X399309Y263513D01*
X399489Y263559D01*
X399669Y263601D01*
X399850Y263638D01*
X400032Y263671D01*
X400214Y263700D01*
X400398Y263724D01*
X400582Y263744D01*
X400766Y263759D01*
X400950Y263770D01*
X401135Y263777D01*
X401320Y263779D01*
X401320Y258558D02*
X401505Y258560D01*
X401690Y258567D01*
X401874Y258578D01*
X402058Y258593D01*
X402242Y258613D01*
X402426Y258637D01*
X402608Y258666D01*
X402790Y258699D01*
X402971Y258736D01*
X403151Y258778D01*
X403331Y258824D01*
X403509Y258874D01*
X403685Y258928D01*
X403861Y258987D01*
X404035Y259049D01*
X404207Y259116D01*
X404378Y259187D01*
X404547Y259262D01*
X404714Y259341D01*
X404714Y259340D02*
X404794Y259370D01*
X404873Y259403D01*
X404950Y259440D01*
X405026Y259480D01*
X405100Y259523D01*
X405172Y259569D01*
X405241Y259619D01*
X405309Y259672D01*
X405374Y259727D01*
X405437Y259786D01*
X405496Y259847D01*
X405554Y259910D01*
X405608Y259977D01*
X405659Y260045D01*
X405707Y260116D01*
X405752Y260189D01*
X405794Y260263D01*
X405832Y260340D01*
X405867Y260418D01*
X405899Y260497D01*
X405927Y260578D01*
X405951Y260660D01*
X405972Y260744D01*
X405989Y260827D01*
X406002Y260912D01*
X406011Y260997D01*
X406017Y261082D01*
X406019Y261168D01*
X404714Y262996D02*
X404547Y263075D01*
X404378Y263150D01*
X404207Y263221D01*
X404035Y263288D01*
X403861Y263350D01*
X403685Y263409D01*
X403509Y263463D01*
X403331Y263513D01*
X403151Y263559D01*
X402971Y263601D01*
X402790Y263638D01*
X402608Y263671D01*
X402426Y263700D01*
X402242Y263724D01*
X402058Y263744D01*
X401874Y263759D01*
X401690Y263770D01*
X401505Y263777D01*
X401320Y263779D01*
X404714Y262996D02*
X404794Y262966D01*
X404873Y262933D01*
X404950Y262896D01*
X405026Y262856D01*
X405100Y262813D01*
X405172Y262767D01*
X405241Y262717D01*
X405309Y262665D01*
X405374Y262609D01*
X405437Y262551D01*
X405496Y262489D01*
X405554Y262426D01*
X405608Y262359D01*
X405659Y262291D01*
X405707Y262220D01*
X405752Y262147D01*
X405794Y262073D01*
X405832Y261996D01*
X405867Y261918D01*
X405899Y261839D01*
X405927Y261758D01*
X405951Y261676D01*
X405972Y261592D01*
X405989Y261509D01*
X406002Y261424D01*
X406011Y261339D01*
X406017Y261254D01*
X406019Y261168D01*
X403931Y259080D02*
X398709Y263257D01*
X318267Y405633D02*
X318267Y415031D01*
X320878Y415031D01*
X320979Y415029D01*
X321080Y415023D01*
X321181Y415013D01*
X321281Y415000D01*
X321381Y414982D01*
X321480Y414961D01*
X321578Y414935D01*
X321675Y414906D01*
X321771Y414874D01*
X321865Y414837D01*
X321958Y414797D01*
X322050Y414753D01*
X322139Y414706D01*
X322227Y414655D01*
X322313Y414601D01*
X322396Y414544D01*
X322478Y414484D01*
X322556Y414420D01*
X322633Y414354D01*
X322706Y414284D01*
X322777Y414212D01*
X322845Y414137D01*
X322910Y414059D01*
X322972Y413979D01*
X323031Y413897D01*
X323087Y413812D01*
X323139Y413725D01*
X323188Y413637D01*
X323234Y413546D01*
X323275Y413454D01*
X323314Y413360D01*
X323348Y413265D01*
X323379Y413169D01*
X323406Y413071D01*
X323430Y412973D01*
X323449Y412873D01*
X323465Y412773D01*
X323477Y412673D01*
X323485Y412572D01*
X323489Y412471D01*
X323489Y412369D01*
X323485Y412268D01*
X323477Y412167D01*
X323465Y412067D01*
X323449Y411967D01*
X323430Y411867D01*
X323406Y411769D01*
X323379Y411671D01*
X323348Y411575D01*
X323314Y411480D01*
X323275Y411386D01*
X323234Y411294D01*
X323188Y411203D01*
X323139Y411115D01*
X323087Y411028D01*
X323031Y410943D01*
X322972Y410861D01*
X322910Y410781D01*
X322845Y410703D01*
X322777Y410628D01*
X322706Y410556D01*
X322633Y410486D01*
X322556Y410420D01*
X322478Y410356D01*
X322396Y410296D01*
X322313Y410239D01*
X322227Y410185D01*
X322139Y410134D01*
X322050Y410087D01*
X321958Y410043D01*
X321865Y410003D01*
X321771Y409966D01*
X321675Y409934D01*
X321578Y409905D01*
X321480Y409879D01*
X321381Y409858D01*
X321281Y409840D01*
X321181Y409827D01*
X321080Y409817D01*
X320979Y409811D01*
X320878Y409809D01*
X320878Y409810D02*
X318267Y409810D01*
X321400Y409810D02*
X323488Y405633D01*
X327354Y407721D02*
X329442Y415031D01*
X327354Y407721D02*
X332575Y407721D01*
X331009Y409810D02*
X331009Y405633D01*
X354259Y382651D02*
X356348Y382651D01*
X354259Y382651D02*
X354170Y382653D01*
X354082Y382659D01*
X353994Y382668D01*
X353906Y382681D01*
X353819Y382698D01*
X353733Y382718D01*
X353648Y382743D01*
X353563Y382770D01*
X353480Y382802D01*
X353399Y382836D01*
X353319Y382875D01*
X353241Y382916D01*
X353164Y382961D01*
X353090Y383009D01*
X353017Y383060D01*
X352947Y383114D01*
X352880Y383172D01*
X352814Y383232D01*
X352752Y383294D01*
X352692Y383360D01*
X352634Y383427D01*
X352580Y383497D01*
X352529Y383570D01*
X352481Y383644D01*
X352436Y383721D01*
X352395Y383799D01*
X352356Y383879D01*
X352322Y383960D01*
X352290Y384043D01*
X352263Y384128D01*
X352238Y384213D01*
X352218Y384299D01*
X352201Y384386D01*
X352188Y384474D01*
X352179Y384562D01*
X352173Y384650D01*
X352171Y384739D01*
X352171Y389961D01*
X352173Y390052D01*
X352179Y390143D01*
X352189Y390234D01*
X352203Y390324D01*
X352220Y390413D01*
X352242Y390501D01*
X352268Y390589D01*
X352297Y390675D01*
X352330Y390760D01*
X352367Y390843D01*
X352407Y390925D01*
X352451Y391005D01*
X352498Y391083D01*
X352549Y391159D01*
X352602Y391232D01*
X352659Y391303D01*
X352720Y391372D01*
X352783Y391437D01*
X352848Y391500D01*
X352917Y391560D01*
X352988Y391618D01*
X353061Y391671D01*
X353137Y391722D01*
X353215Y391769D01*
X353295Y391813D01*
X353377Y391853D01*
X353460Y391890D01*
X353545Y391923D01*
X353631Y391952D01*
X353719Y391978D01*
X353807Y392000D01*
X353896Y392017D01*
X353986Y392031D01*
X354077Y392041D01*
X354168Y392047D01*
X354259Y392049D01*
X356348Y392049D01*
X359817Y389961D02*
X362427Y392049D01*
X362427Y382651D01*
X359817Y382651D02*
X365038Y382651D01*
X368961Y384739D02*
X371049Y392049D01*
X368961Y384739D02*
X374182Y384739D01*
X372615Y382651D02*
X372615Y386828D01*
X277749Y386097D02*
X277749Y388185D01*
X277749Y386097D02*
X277747Y386008D01*
X277741Y385920D01*
X277732Y385832D01*
X277719Y385744D01*
X277702Y385657D01*
X277682Y385571D01*
X277657Y385486D01*
X277630Y385401D01*
X277598Y385318D01*
X277564Y385237D01*
X277525Y385157D01*
X277484Y385079D01*
X277439Y385002D01*
X277391Y384928D01*
X277340Y384855D01*
X277286Y384785D01*
X277228Y384718D01*
X277168Y384652D01*
X277106Y384590D01*
X277040Y384530D01*
X276973Y384472D01*
X276903Y384418D01*
X276830Y384367D01*
X276756Y384319D01*
X276679Y384274D01*
X276601Y384233D01*
X276521Y384194D01*
X276440Y384160D01*
X276357Y384128D01*
X276272Y384101D01*
X276187Y384076D01*
X276101Y384056D01*
X276014Y384039D01*
X275926Y384026D01*
X275838Y384017D01*
X275750Y384011D01*
X275661Y384009D01*
X275661Y384008D02*
X270439Y384008D01*
X270348Y384010D01*
X270257Y384016D01*
X270166Y384026D01*
X270076Y384040D01*
X269987Y384058D01*
X269898Y384079D01*
X269811Y384105D01*
X269725Y384134D01*
X269640Y384167D01*
X269556Y384204D01*
X269474Y384244D01*
X269395Y384288D01*
X269317Y384335D01*
X269241Y384386D01*
X269167Y384440D01*
X269096Y384497D01*
X269028Y384557D01*
X268962Y384620D01*
X268899Y384686D01*
X268839Y384754D01*
X268782Y384825D01*
X268728Y384899D01*
X268677Y384975D01*
X268630Y385052D01*
X268586Y385132D01*
X268546Y385214D01*
X268509Y385298D01*
X268476Y385382D01*
X268447Y385469D01*
X268421Y385556D01*
X268400Y385645D01*
X268382Y385734D01*
X268368Y385824D01*
X268358Y385915D01*
X268352Y386006D01*
X268350Y386097D01*
X268351Y386097D02*
X268351Y388185D01*
X270439Y391654D02*
X268351Y394264D01*
X277749Y394264D01*
X277749Y391654D02*
X277749Y396875D01*
X277749Y400798D02*
X277749Y403931D01*
X277747Y404020D01*
X277741Y404108D01*
X277732Y404196D01*
X277719Y404284D01*
X277702Y404371D01*
X277682Y404457D01*
X277657Y404542D01*
X277630Y404627D01*
X277598Y404710D01*
X277564Y404791D01*
X277525Y404871D01*
X277484Y404949D01*
X277439Y405026D01*
X277391Y405100D01*
X277340Y405173D01*
X277286Y405243D01*
X277228Y405310D01*
X277168Y405376D01*
X277106Y405438D01*
X277040Y405498D01*
X276973Y405556D01*
X276903Y405610D01*
X276830Y405661D01*
X276756Y405709D01*
X276679Y405754D01*
X276601Y405795D01*
X276521Y405834D01*
X276440Y405868D01*
X276357Y405900D01*
X276272Y405927D01*
X276187Y405952D01*
X276101Y405972D01*
X276014Y405989D01*
X275926Y406002D01*
X275838Y406011D01*
X275750Y406017D01*
X275661Y406019D01*
X274616Y406019D01*
X274527Y406017D01*
X274439Y406011D01*
X274351Y406002D01*
X274263Y405989D01*
X274176Y405972D01*
X274090Y405952D01*
X274005Y405927D01*
X273920Y405900D01*
X273837Y405868D01*
X273756Y405834D01*
X273676Y405795D01*
X273598Y405754D01*
X273521Y405709D01*
X273447Y405661D01*
X273374Y405610D01*
X273304Y405556D01*
X273237Y405498D01*
X273171Y405438D01*
X273109Y405376D01*
X273049Y405310D01*
X272991Y405243D01*
X272937Y405173D01*
X272886Y405100D01*
X272838Y405026D01*
X272793Y404949D01*
X272752Y404871D01*
X272713Y404791D01*
X272679Y404710D01*
X272647Y404627D01*
X272620Y404542D01*
X272595Y404457D01*
X272575Y404371D01*
X272558Y404284D01*
X272545Y404196D01*
X272536Y404108D01*
X272530Y404020D01*
X272528Y403931D01*
X272528Y400798D01*
X268351Y400798D01*
X268351Y406019D01*
X286009Y389387D02*
X295407Y389387D01*
X286009Y389387D02*
X286009Y391998D01*
X286011Y392099D01*
X286017Y392200D01*
X286027Y392301D01*
X286040Y392401D01*
X286058Y392501D01*
X286079Y392600D01*
X286105Y392698D01*
X286134Y392795D01*
X286166Y392891D01*
X286203Y392985D01*
X286243Y393078D01*
X286287Y393170D01*
X286334Y393259D01*
X286385Y393347D01*
X286439Y393433D01*
X286496Y393516D01*
X286556Y393598D01*
X286620Y393676D01*
X286686Y393753D01*
X286756Y393826D01*
X286828Y393897D01*
X286903Y393965D01*
X286981Y394030D01*
X287061Y394092D01*
X287143Y394151D01*
X287228Y394207D01*
X287315Y394259D01*
X287403Y394308D01*
X287494Y394354D01*
X287586Y394395D01*
X287680Y394434D01*
X287775Y394468D01*
X287871Y394499D01*
X287969Y394526D01*
X288067Y394550D01*
X288167Y394569D01*
X288267Y394585D01*
X288367Y394597D01*
X288468Y394605D01*
X288569Y394609D01*
X288671Y394609D01*
X288772Y394605D01*
X288873Y394597D01*
X288973Y394585D01*
X289073Y394569D01*
X289173Y394550D01*
X289271Y394526D01*
X289369Y394499D01*
X289465Y394468D01*
X289560Y394434D01*
X289654Y394395D01*
X289746Y394354D01*
X289837Y394308D01*
X289926Y394259D01*
X290012Y394207D01*
X290097Y394151D01*
X290179Y394092D01*
X290259Y394030D01*
X290337Y393965D01*
X290412Y393897D01*
X290484Y393826D01*
X290554Y393753D01*
X290620Y393676D01*
X290684Y393598D01*
X290744Y393516D01*
X290801Y393433D01*
X290855Y393347D01*
X290906Y393259D01*
X290953Y393170D01*
X290997Y393078D01*
X291037Y392985D01*
X291074Y392891D01*
X291106Y392795D01*
X291135Y392698D01*
X291161Y392600D01*
X291182Y392501D01*
X291200Y392401D01*
X291213Y392301D01*
X291223Y392200D01*
X291229Y392099D01*
X291231Y391998D01*
X291230Y391998D02*
X291230Y389387D01*
X291230Y392520D02*
X295407Y394608D01*
X295407Y398474D02*
X295407Y401607D01*
X295405Y401696D01*
X295399Y401784D01*
X295390Y401872D01*
X295377Y401960D01*
X295360Y402047D01*
X295340Y402133D01*
X295315Y402218D01*
X295288Y402303D01*
X295256Y402386D01*
X295222Y402467D01*
X295183Y402547D01*
X295142Y402625D01*
X295097Y402702D01*
X295049Y402776D01*
X294998Y402849D01*
X294944Y402919D01*
X294886Y402986D01*
X294826Y403052D01*
X294764Y403114D01*
X294698Y403174D01*
X294631Y403232D01*
X294561Y403286D01*
X294488Y403337D01*
X294414Y403385D01*
X294337Y403430D01*
X294259Y403471D01*
X294179Y403510D01*
X294098Y403544D01*
X294015Y403576D01*
X293930Y403603D01*
X293845Y403628D01*
X293759Y403648D01*
X293672Y403665D01*
X293584Y403678D01*
X293496Y403687D01*
X293408Y403693D01*
X293319Y403695D01*
X292274Y403695D01*
X292185Y403693D01*
X292097Y403687D01*
X292009Y403678D01*
X291921Y403665D01*
X291834Y403648D01*
X291748Y403628D01*
X291663Y403603D01*
X291578Y403576D01*
X291495Y403544D01*
X291414Y403510D01*
X291334Y403471D01*
X291256Y403430D01*
X291179Y403385D01*
X291105Y403337D01*
X291032Y403286D01*
X290962Y403232D01*
X290895Y403174D01*
X290829Y403114D01*
X290767Y403052D01*
X290707Y402986D01*
X290649Y402919D01*
X290595Y402849D01*
X290544Y402776D01*
X290496Y402702D01*
X290451Y402625D01*
X290410Y402547D01*
X290371Y402467D01*
X290337Y402386D01*
X290305Y402303D01*
X290278Y402218D01*
X290253Y402133D01*
X290233Y402047D01*
X290216Y401960D01*
X290203Y401872D01*
X290194Y401784D01*
X290188Y401696D01*
X290186Y401607D01*
X290186Y398474D01*
X286009Y398474D01*
X286009Y403695D01*
X409707Y337561D02*
X409707Y328163D01*
X409707Y337561D02*
X412318Y337561D01*
X412419Y337559D01*
X412520Y337553D01*
X412621Y337543D01*
X412721Y337530D01*
X412821Y337512D01*
X412920Y337491D01*
X413018Y337465D01*
X413115Y337436D01*
X413211Y337404D01*
X413305Y337367D01*
X413398Y337327D01*
X413490Y337283D01*
X413579Y337236D01*
X413667Y337185D01*
X413753Y337131D01*
X413836Y337074D01*
X413918Y337014D01*
X413996Y336950D01*
X414073Y336884D01*
X414146Y336814D01*
X414217Y336742D01*
X414285Y336667D01*
X414350Y336589D01*
X414412Y336509D01*
X414471Y336427D01*
X414527Y336342D01*
X414579Y336255D01*
X414628Y336167D01*
X414674Y336076D01*
X414715Y335984D01*
X414754Y335890D01*
X414788Y335795D01*
X414819Y335699D01*
X414846Y335601D01*
X414870Y335503D01*
X414889Y335403D01*
X414905Y335303D01*
X414917Y335203D01*
X414925Y335102D01*
X414929Y335001D01*
X414929Y334899D01*
X414925Y334798D01*
X414917Y334697D01*
X414905Y334597D01*
X414889Y334497D01*
X414870Y334397D01*
X414846Y334299D01*
X414819Y334201D01*
X414788Y334105D01*
X414754Y334010D01*
X414715Y333916D01*
X414674Y333824D01*
X414628Y333733D01*
X414579Y333645D01*
X414527Y333558D01*
X414471Y333473D01*
X414412Y333391D01*
X414350Y333311D01*
X414285Y333233D01*
X414217Y333158D01*
X414146Y333086D01*
X414073Y333016D01*
X413996Y332950D01*
X413918Y332886D01*
X413836Y332826D01*
X413753Y332769D01*
X413667Y332715D01*
X413579Y332664D01*
X413490Y332617D01*
X413398Y332573D01*
X413305Y332533D01*
X413211Y332496D01*
X413115Y332464D01*
X413018Y332435D01*
X412920Y332409D01*
X412821Y332388D01*
X412721Y332370D01*
X412621Y332357D01*
X412520Y332347D01*
X412419Y332341D01*
X412318Y332339D01*
X412318Y332340D02*
X409707Y332340D01*
X412840Y332340D02*
X414928Y328163D01*
X418794Y333384D02*
X421927Y333384D01*
X422016Y333382D01*
X422104Y333376D01*
X422192Y333367D01*
X422280Y333354D01*
X422367Y333337D01*
X422453Y333317D01*
X422538Y333292D01*
X422623Y333265D01*
X422706Y333233D01*
X422787Y333199D01*
X422867Y333160D01*
X422945Y333119D01*
X423022Y333074D01*
X423096Y333026D01*
X423169Y332975D01*
X423239Y332921D01*
X423306Y332863D01*
X423372Y332803D01*
X423434Y332741D01*
X423494Y332675D01*
X423552Y332608D01*
X423606Y332538D01*
X423657Y332465D01*
X423705Y332391D01*
X423750Y332314D01*
X423791Y332236D01*
X423830Y332156D01*
X423864Y332075D01*
X423896Y331992D01*
X423923Y331907D01*
X423948Y331822D01*
X423968Y331736D01*
X423985Y331649D01*
X423998Y331561D01*
X424007Y331473D01*
X424013Y331385D01*
X424015Y331296D01*
X424015Y330773D01*
X424016Y330773D02*
X424014Y330672D01*
X424008Y330571D01*
X423998Y330470D01*
X423985Y330370D01*
X423967Y330270D01*
X423946Y330171D01*
X423920Y330073D01*
X423891Y329976D01*
X423859Y329880D01*
X423822Y329786D01*
X423782Y329693D01*
X423738Y329601D01*
X423691Y329512D01*
X423640Y329424D01*
X423586Y329338D01*
X423529Y329255D01*
X423469Y329173D01*
X423405Y329095D01*
X423339Y329018D01*
X423269Y328945D01*
X423197Y328874D01*
X423122Y328806D01*
X423044Y328741D01*
X422964Y328679D01*
X422882Y328620D01*
X422797Y328564D01*
X422710Y328512D01*
X422622Y328463D01*
X422531Y328417D01*
X422439Y328376D01*
X422345Y328337D01*
X422250Y328303D01*
X422154Y328272D01*
X422056Y328245D01*
X421958Y328221D01*
X421858Y328202D01*
X421758Y328186D01*
X421658Y328174D01*
X421557Y328166D01*
X421456Y328162D01*
X421354Y328162D01*
X421253Y328166D01*
X421152Y328174D01*
X421052Y328186D01*
X420952Y328202D01*
X420852Y328221D01*
X420754Y328245D01*
X420656Y328272D01*
X420560Y328303D01*
X420465Y328337D01*
X420371Y328376D01*
X420279Y328417D01*
X420188Y328463D01*
X420100Y328512D01*
X420013Y328564D01*
X419928Y328620D01*
X419846Y328679D01*
X419766Y328741D01*
X419688Y328806D01*
X419613Y328874D01*
X419541Y328945D01*
X419471Y329018D01*
X419405Y329095D01*
X419341Y329173D01*
X419281Y329255D01*
X419224Y329338D01*
X419170Y329424D01*
X419119Y329512D01*
X419072Y329601D01*
X419028Y329693D01*
X418988Y329786D01*
X418951Y329880D01*
X418919Y329976D01*
X418890Y330073D01*
X418864Y330171D01*
X418843Y330270D01*
X418825Y330370D01*
X418812Y330470D01*
X418802Y330571D01*
X418796Y330672D01*
X418794Y330773D01*
X418794Y333384D01*
X418796Y333513D01*
X418802Y333641D01*
X418812Y333769D01*
X418826Y333897D01*
X418843Y334025D01*
X418865Y334152D01*
X418891Y334278D01*
X418920Y334403D01*
X418953Y334527D01*
X418991Y334650D01*
X419031Y334772D01*
X419076Y334893D01*
X419124Y335012D01*
X419176Y335130D01*
X419232Y335246D01*
X419291Y335360D01*
X419354Y335472D01*
X419420Y335583D01*
X419489Y335691D01*
X419562Y335797D01*
X419638Y335901D01*
X419717Y336003D01*
X419799Y336102D01*
X419884Y336198D01*
X419972Y336292D01*
X420063Y336383D01*
X420157Y336471D01*
X420253Y336556D01*
X420352Y336638D01*
X420454Y336717D01*
X420558Y336793D01*
X420664Y336866D01*
X420772Y336935D01*
X420882Y337001D01*
X420995Y337064D01*
X421109Y337123D01*
X421225Y337179D01*
X421343Y337231D01*
X421462Y337279D01*
X421583Y337324D01*
X421705Y337364D01*
X421828Y337402D01*
X421952Y337435D01*
X422077Y337464D01*
X422203Y337490D01*
X422330Y337512D01*
X422458Y337529D01*
X422586Y337543D01*
X422714Y337553D01*
X422842Y337559D01*
X422971Y337561D01*
D10*
X260790Y458010D02*
X260794Y458366D01*
X260807Y458721D01*
X260829Y459077D01*
X260860Y459431D01*
X260899Y459785D01*
X260947Y460138D01*
X261003Y460489D01*
X261069Y460839D01*
X261142Y461187D01*
X261225Y461533D01*
X261315Y461877D01*
X261414Y462219D01*
X261522Y462558D01*
X261638Y462895D01*
X261762Y463228D01*
X261894Y463559D01*
X262034Y463886D01*
X262182Y464210D01*
X262338Y464529D01*
X262502Y464845D01*
X262674Y465157D01*
X262853Y465464D01*
X263040Y465767D01*
X263234Y466066D01*
X263435Y466359D01*
X263643Y466648D01*
X263859Y466931D01*
X264081Y467209D01*
X264310Y467481D01*
X264546Y467748D01*
X264788Y468008D01*
X265037Y468263D01*
X265292Y468512D01*
X265552Y468754D01*
X265819Y468990D01*
X266091Y469219D01*
X266369Y469441D01*
X266652Y469657D01*
X266941Y469865D01*
X267234Y470066D01*
X267533Y470260D01*
X267836Y470447D01*
X268143Y470626D01*
X268455Y470798D01*
X268771Y470962D01*
X269090Y471118D01*
X269414Y471266D01*
X269741Y471406D01*
X270072Y471538D01*
X270405Y471662D01*
X270742Y471778D01*
X271081Y471886D01*
X271423Y471985D01*
X271767Y472075D01*
X272113Y472158D01*
X272461Y472231D01*
X272811Y472297D01*
X273162Y472353D01*
X273515Y472401D01*
X273869Y472440D01*
X274223Y472471D01*
X274579Y472493D01*
X274934Y472506D01*
X275290Y472510D01*
X275646Y472506D01*
X276001Y472493D01*
X276357Y472471D01*
X276711Y472440D01*
X277065Y472401D01*
X277418Y472353D01*
X277769Y472297D01*
X278119Y472231D01*
X278467Y472158D01*
X278813Y472075D01*
X279157Y471985D01*
X279499Y471886D01*
X279838Y471778D01*
X280175Y471662D01*
X280508Y471538D01*
X280839Y471406D01*
X281166Y471266D01*
X281490Y471118D01*
X281809Y470962D01*
X282125Y470798D01*
X282437Y470626D01*
X282744Y470447D01*
X283047Y470260D01*
X283346Y470066D01*
X283639Y469865D01*
X283928Y469657D01*
X284211Y469441D01*
X284489Y469219D01*
X284761Y468990D01*
X285028Y468754D01*
X285288Y468512D01*
X285543Y468263D01*
X285792Y468008D01*
X286034Y467748D01*
X286270Y467481D01*
X286499Y467209D01*
X286721Y466931D01*
X286937Y466648D01*
X287145Y466359D01*
X287346Y466066D01*
X287540Y465767D01*
X287727Y465464D01*
X287906Y465157D01*
X288078Y464845D01*
X288242Y464529D01*
X288398Y464210D01*
X288546Y463886D01*
X288686Y463559D01*
X288818Y463228D01*
X288942Y462895D01*
X289058Y462558D01*
X289166Y462219D01*
X289265Y461877D01*
X289355Y461533D01*
X289438Y461187D01*
X289511Y460839D01*
X289577Y460489D01*
X289633Y460138D01*
X289681Y459785D01*
X289720Y459431D01*
X289751Y459077D01*
X289773Y458721D01*
X289786Y458366D01*
X289790Y458010D01*
X289786Y457654D01*
X289773Y457299D01*
X289751Y456943D01*
X289720Y456589D01*
X289681Y456235D01*
X289633Y455882D01*
X289577Y455531D01*
X289511Y455181D01*
X289438Y454833D01*
X289355Y454487D01*
X289265Y454143D01*
X289166Y453801D01*
X289058Y453462D01*
X288942Y453125D01*
X288818Y452792D01*
X288686Y452461D01*
X288546Y452134D01*
X288398Y451810D01*
X288242Y451491D01*
X288078Y451175D01*
X287906Y450863D01*
X287727Y450556D01*
X287540Y450253D01*
X287346Y449954D01*
X287145Y449661D01*
X286937Y449372D01*
X286721Y449089D01*
X286499Y448811D01*
X286270Y448539D01*
X286034Y448272D01*
X285792Y448012D01*
X285543Y447757D01*
X285288Y447508D01*
X285028Y447266D01*
X284761Y447030D01*
X284489Y446801D01*
X284211Y446579D01*
X283928Y446363D01*
X283639Y446155D01*
X283346Y445954D01*
X283047Y445760D01*
X282744Y445573D01*
X282437Y445394D01*
X282125Y445222D01*
X281809Y445058D01*
X281490Y444902D01*
X281166Y444754D01*
X280839Y444614D01*
X280508Y444482D01*
X280175Y444358D01*
X279838Y444242D01*
X279499Y444134D01*
X279157Y444035D01*
X278813Y443945D01*
X278467Y443862D01*
X278119Y443789D01*
X277769Y443723D01*
X277418Y443667D01*
X277065Y443619D01*
X276711Y443580D01*
X276357Y443549D01*
X276001Y443527D01*
X275646Y443514D01*
X275290Y443510D01*
X274934Y443514D01*
X274579Y443527D01*
X274223Y443549D01*
X273869Y443580D01*
X273515Y443619D01*
X273162Y443667D01*
X272811Y443723D01*
X272461Y443789D01*
X272113Y443862D01*
X271767Y443945D01*
X271423Y444035D01*
X271081Y444134D01*
X270742Y444242D01*
X270405Y444358D01*
X270072Y444482D01*
X269741Y444614D01*
X269414Y444754D01*
X269090Y444902D01*
X268771Y445058D01*
X268455Y445222D01*
X268143Y445394D01*
X267836Y445573D01*
X267533Y445760D01*
X267234Y445954D01*
X266941Y446155D01*
X266652Y446363D01*
X266369Y446579D01*
X266091Y446801D01*
X265819Y447030D01*
X265552Y447266D01*
X265292Y447508D01*
X265037Y447757D01*
X264788Y448012D01*
X264546Y448272D01*
X264310Y448539D01*
X264081Y448811D01*
X263859Y449089D01*
X263643Y449372D01*
X263435Y449661D01*
X263234Y449954D01*
X263040Y450253D01*
X262853Y450556D01*
X262674Y450863D01*
X262502Y451175D01*
X262338Y451491D01*
X262182Y451810D01*
X262034Y452134D01*
X261894Y452461D01*
X261762Y452792D01*
X261638Y453125D01*
X261522Y453462D01*
X261414Y453801D01*
X261315Y454143D01*
X261225Y454487D01*
X261142Y454833D01*
X261069Y455181D01*
X261003Y455531D01*
X260947Y455882D01*
X260899Y456235D01*
X260860Y456589D01*
X260829Y456943D01*
X260807Y457299D01*
X260794Y457654D01*
X260790Y458010D01*
X295790Y458010D02*
X295794Y458366D01*
X295807Y458721D01*
X295829Y459077D01*
X295860Y459431D01*
X295899Y459785D01*
X295947Y460138D01*
X296003Y460489D01*
X296069Y460839D01*
X296142Y461187D01*
X296225Y461533D01*
X296315Y461877D01*
X296414Y462219D01*
X296522Y462558D01*
X296638Y462895D01*
X296762Y463228D01*
X296894Y463559D01*
X297034Y463886D01*
X297182Y464210D01*
X297338Y464529D01*
X297502Y464845D01*
X297674Y465157D01*
X297853Y465464D01*
X298040Y465767D01*
X298234Y466066D01*
X298435Y466359D01*
X298643Y466648D01*
X298859Y466931D01*
X299081Y467209D01*
X299310Y467481D01*
X299546Y467748D01*
X299788Y468008D01*
X300037Y468263D01*
X300292Y468512D01*
X300552Y468754D01*
X300819Y468990D01*
X301091Y469219D01*
X301369Y469441D01*
X301652Y469657D01*
X301941Y469865D01*
X302234Y470066D01*
X302533Y470260D01*
X302836Y470447D01*
X303143Y470626D01*
X303455Y470798D01*
X303771Y470962D01*
X304090Y471118D01*
X304414Y471266D01*
X304741Y471406D01*
X305072Y471538D01*
X305405Y471662D01*
X305742Y471778D01*
X306081Y471886D01*
X306423Y471985D01*
X306767Y472075D01*
X307113Y472158D01*
X307461Y472231D01*
X307811Y472297D01*
X308162Y472353D01*
X308515Y472401D01*
X308869Y472440D01*
X309223Y472471D01*
X309579Y472493D01*
X309934Y472506D01*
X310290Y472510D01*
X310646Y472506D01*
X311001Y472493D01*
X311357Y472471D01*
X311711Y472440D01*
X312065Y472401D01*
X312418Y472353D01*
X312769Y472297D01*
X313119Y472231D01*
X313467Y472158D01*
X313813Y472075D01*
X314157Y471985D01*
X314499Y471886D01*
X314838Y471778D01*
X315175Y471662D01*
X315508Y471538D01*
X315839Y471406D01*
X316166Y471266D01*
X316490Y471118D01*
X316809Y470962D01*
X317125Y470798D01*
X317437Y470626D01*
X317744Y470447D01*
X318047Y470260D01*
X318346Y470066D01*
X318639Y469865D01*
X318928Y469657D01*
X319211Y469441D01*
X319489Y469219D01*
X319761Y468990D01*
X320028Y468754D01*
X320288Y468512D01*
X320543Y468263D01*
X320792Y468008D01*
X321034Y467748D01*
X321270Y467481D01*
X321499Y467209D01*
X321721Y466931D01*
X321937Y466648D01*
X322145Y466359D01*
X322346Y466066D01*
X322540Y465767D01*
X322727Y465464D01*
X322906Y465157D01*
X323078Y464845D01*
X323242Y464529D01*
X323398Y464210D01*
X323546Y463886D01*
X323686Y463559D01*
X323818Y463228D01*
X323942Y462895D01*
X324058Y462558D01*
X324166Y462219D01*
X324265Y461877D01*
X324355Y461533D01*
X324438Y461187D01*
X324511Y460839D01*
X324577Y460489D01*
X324633Y460138D01*
X324681Y459785D01*
X324720Y459431D01*
X324751Y459077D01*
X324773Y458721D01*
X324786Y458366D01*
X324790Y458010D01*
X324786Y457654D01*
X324773Y457299D01*
X324751Y456943D01*
X324720Y456589D01*
X324681Y456235D01*
X324633Y455882D01*
X324577Y455531D01*
X324511Y455181D01*
X324438Y454833D01*
X324355Y454487D01*
X324265Y454143D01*
X324166Y453801D01*
X324058Y453462D01*
X323942Y453125D01*
X323818Y452792D01*
X323686Y452461D01*
X323546Y452134D01*
X323398Y451810D01*
X323242Y451491D01*
X323078Y451175D01*
X322906Y450863D01*
X322727Y450556D01*
X322540Y450253D01*
X322346Y449954D01*
X322145Y449661D01*
X321937Y449372D01*
X321721Y449089D01*
X321499Y448811D01*
X321270Y448539D01*
X321034Y448272D01*
X320792Y448012D01*
X320543Y447757D01*
X320288Y447508D01*
X320028Y447266D01*
X319761Y447030D01*
X319489Y446801D01*
X319211Y446579D01*
X318928Y446363D01*
X318639Y446155D01*
X318346Y445954D01*
X318047Y445760D01*
X317744Y445573D01*
X317437Y445394D01*
X317125Y445222D01*
X316809Y445058D01*
X316490Y444902D01*
X316166Y444754D01*
X315839Y444614D01*
X315508Y444482D01*
X315175Y444358D01*
X314838Y444242D01*
X314499Y444134D01*
X314157Y444035D01*
X313813Y443945D01*
X313467Y443862D01*
X313119Y443789D01*
X312769Y443723D01*
X312418Y443667D01*
X312065Y443619D01*
X311711Y443580D01*
X311357Y443549D01*
X311001Y443527D01*
X310646Y443514D01*
X310290Y443510D01*
X309934Y443514D01*
X309579Y443527D01*
X309223Y443549D01*
X308869Y443580D01*
X308515Y443619D01*
X308162Y443667D01*
X307811Y443723D01*
X307461Y443789D01*
X307113Y443862D01*
X306767Y443945D01*
X306423Y444035D01*
X306081Y444134D01*
X305742Y444242D01*
X305405Y444358D01*
X305072Y444482D01*
X304741Y444614D01*
X304414Y444754D01*
X304090Y444902D01*
X303771Y445058D01*
X303455Y445222D01*
X303143Y445394D01*
X302836Y445573D01*
X302533Y445760D01*
X302234Y445954D01*
X301941Y446155D01*
X301652Y446363D01*
X301369Y446579D01*
X301091Y446801D01*
X300819Y447030D01*
X300552Y447266D01*
X300292Y447508D01*
X300037Y447757D01*
X299788Y448012D01*
X299546Y448272D01*
X299310Y448539D01*
X299081Y448811D01*
X298859Y449089D01*
X298643Y449372D01*
X298435Y449661D01*
X298234Y449954D01*
X298040Y450253D01*
X297853Y450556D01*
X297674Y450863D01*
X297502Y451175D01*
X297338Y451491D01*
X297182Y451810D01*
X297034Y452134D01*
X296894Y452461D01*
X296762Y452792D01*
X296638Y453125D01*
X296522Y453462D01*
X296414Y453801D01*
X296315Y454143D01*
X296225Y454487D01*
X296142Y454833D01*
X296069Y455181D01*
X296003Y455531D01*
X295947Y455882D01*
X295899Y456235D01*
X295860Y456589D01*
X295829Y456943D01*
X295807Y457299D01*
X295794Y457654D01*
X295790Y458010D01*
X330790Y458010D02*
X330794Y458366D01*
X330807Y458721D01*
X330829Y459077D01*
X330860Y459431D01*
X330899Y459785D01*
X330947Y460138D01*
X331003Y460489D01*
X331069Y460839D01*
X331142Y461187D01*
X331225Y461533D01*
X331315Y461877D01*
X331414Y462219D01*
X331522Y462558D01*
X331638Y462895D01*
X331762Y463228D01*
X331894Y463559D01*
X332034Y463886D01*
X332182Y464210D01*
X332338Y464529D01*
X332502Y464845D01*
X332674Y465157D01*
X332853Y465464D01*
X333040Y465767D01*
X333234Y466066D01*
X333435Y466359D01*
X333643Y466648D01*
X333859Y466931D01*
X334081Y467209D01*
X334310Y467481D01*
X334546Y467748D01*
X334788Y468008D01*
X335037Y468263D01*
X335292Y468512D01*
X335552Y468754D01*
X335819Y468990D01*
X336091Y469219D01*
X336369Y469441D01*
X336652Y469657D01*
X336941Y469865D01*
X337234Y470066D01*
X337533Y470260D01*
X337836Y470447D01*
X338143Y470626D01*
X338455Y470798D01*
X338771Y470962D01*
X339090Y471118D01*
X339414Y471266D01*
X339741Y471406D01*
X340072Y471538D01*
X340405Y471662D01*
X340742Y471778D01*
X341081Y471886D01*
X341423Y471985D01*
X341767Y472075D01*
X342113Y472158D01*
X342461Y472231D01*
X342811Y472297D01*
X343162Y472353D01*
X343515Y472401D01*
X343869Y472440D01*
X344223Y472471D01*
X344579Y472493D01*
X344934Y472506D01*
X345290Y472510D01*
X345646Y472506D01*
X346001Y472493D01*
X346357Y472471D01*
X346711Y472440D01*
X347065Y472401D01*
X347418Y472353D01*
X347769Y472297D01*
X348119Y472231D01*
X348467Y472158D01*
X348813Y472075D01*
X349157Y471985D01*
X349499Y471886D01*
X349838Y471778D01*
X350175Y471662D01*
X350508Y471538D01*
X350839Y471406D01*
X351166Y471266D01*
X351490Y471118D01*
X351809Y470962D01*
X352125Y470798D01*
X352437Y470626D01*
X352744Y470447D01*
X353047Y470260D01*
X353346Y470066D01*
X353639Y469865D01*
X353928Y469657D01*
X354211Y469441D01*
X354489Y469219D01*
X354761Y468990D01*
X355028Y468754D01*
X355288Y468512D01*
X355543Y468263D01*
X355792Y468008D01*
X356034Y467748D01*
X356270Y467481D01*
X356499Y467209D01*
X356721Y466931D01*
X356937Y466648D01*
X357145Y466359D01*
X357346Y466066D01*
X357540Y465767D01*
X357727Y465464D01*
X357906Y465157D01*
X358078Y464845D01*
X358242Y464529D01*
X358398Y464210D01*
X358546Y463886D01*
X358686Y463559D01*
X358818Y463228D01*
X358942Y462895D01*
X359058Y462558D01*
X359166Y462219D01*
X359265Y461877D01*
X359355Y461533D01*
X359438Y461187D01*
X359511Y460839D01*
X359577Y460489D01*
X359633Y460138D01*
X359681Y459785D01*
X359720Y459431D01*
X359751Y459077D01*
X359773Y458721D01*
X359786Y458366D01*
X359790Y458010D01*
X359786Y457654D01*
X359773Y457299D01*
X359751Y456943D01*
X359720Y456589D01*
X359681Y456235D01*
X359633Y455882D01*
X359577Y455531D01*
X359511Y455181D01*
X359438Y454833D01*
X359355Y454487D01*
X359265Y454143D01*
X359166Y453801D01*
X359058Y453462D01*
X358942Y453125D01*
X358818Y452792D01*
X358686Y452461D01*
X358546Y452134D01*
X358398Y451810D01*
X358242Y451491D01*
X358078Y451175D01*
X357906Y450863D01*
X357727Y450556D01*
X357540Y450253D01*
X357346Y449954D01*
X357145Y449661D01*
X356937Y449372D01*
X356721Y449089D01*
X356499Y448811D01*
X356270Y448539D01*
X356034Y448272D01*
X355792Y448012D01*
X355543Y447757D01*
X355288Y447508D01*
X355028Y447266D01*
X354761Y447030D01*
X354489Y446801D01*
X354211Y446579D01*
X353928Y446363D01*
X353639Y446155D01*
X353346Y445954D01*
X353047Y445760D01*
X352744Y445573D01*
X352437Y445394D01*
X352125Y445222D01*
X351809Y445058D01*
X351490Y444902D01*
X351166Y444754D01*
X350839Y444614D01*
X350508Y444482D01*
X350175Y444358D01*
X349838Y444242D01*
X349499Y444134D01*
X349157Y444035D01*
X348813Y443945D01*
X348467Y443862D01*
X348119Y443789D01*
X347769Y443723D01*
X347418Y443667D01*
X347065Y443619D01*
X346711Y443580D01*
X346357Y443549D01*
X346001Y443527D01*
X345646Y443514D01*
X345290Y443510D01*
X344934Y443514D01*
X344579Y443527D01*
X344223Y443549D01*
X343869Y443580D01*
X343515Y443619D01*
X343162Y443667D01*
X342811Y443723D01*
X342461Y443789D01*
X342113Y443862D01*
X341767Y443945D01*
X341423Y444035D01*
X341081Y444134D01*
X340742Y444242D01*
X340405Y444358D01*
X340072Y444482D01*
X339741Y444614D01*
X339414Y444754D01*
X339090Y444902D01*
X338771Y445058D01*
X338455Y445222D01*
X338143Y445394D01*
X337836Y445573D01*
X337533Y445760D01*
X337234Y445954D01*
X336941Y446155D01*
X336652Y446363D01*
X336369Y446579D01*
X336091Y446801D01*
X335819Y447030D01*
X335552Y447266D01*
X335292Y447508D01*
X335037Y447757D01*
X334788Y448012D01*
X334546Y448272D01*
X334310Y448539D01*
X334081Y448811D01*
X333859Y449089D01*
X333643Y449372D01*
X333435Y449661D01*
X333234Y449954D01*
X333040Y450253D01*
X332853Y450556D01*
X332674Y450863D01*
X332502Y451175D01*
X332338Y451491D01*
X332182Y451810D01*
X332034Y452134D01*
X331894Y452461D01*
X331762Y452792D01*
X331638Y453125D01*
X331522Y453462D01*
X331414Y453801D01*
X331315Y454143D01*
X331225Y454487D01*
X331142Y454833D01*
X331069Y455181D01*
X331003Y455531D01*
X330947Y455882D01*
X330899Y456235D01*
X330860Y456589D01*
X330829Y456943D01*
X330807Y457299D01*
X330794Y457654D01*
X330790Y458010D01*
X365790Y458010D02*
X365794Y458366D01*
X365807Y458721D01*
X365829Y459077D01*
X365860Y459431D01*
X365899Y459785D01*
X365947Y460138D01*
X366003Y460489D01*
X366069Y460839D01*
X366142Y461187D01*
X366225Y461533D01*
X366315Y461877D01*
X366414Y462219D01*
X366522Y462558D01*
X366638Y462895D01*
X366762Y463228D01*
X366894Y463559D01*
X367034Y463886D01*
X367182Y464210D01*
X367338Y464529D01*
X367502Y464845D01*
X367674Y465157D01*
X367853Y465464D01*
X368040Y465767D01*
X368234Y466066D01*
X368435Y466359D01*
X368643Y466648D01*
X368859Y466931D01*
X369081Y467209D01*
X369310Y467481D01*
X369546Y467748D01*
X369788Y468008D01*
X370037Y468263D01*
X370292Y468512D01*
X370552Y468754D01*
X370819Y468990D01*
X371091Y469219D01*
X371369Y469441D01*
X371652Y469657D01*
X371941Y469865D01*
X372234Y470066D01*
X372533Y470260D01*
X372836Y470447D01*
X373143Y470626D01*
X373455Y470798D01*
X373771Y470962D01*
X374090Y471118D01*
X374414Y471266D01*
X374741Y471406D01*
X375072Y471538D01*
X375405Y471662D01*
X375742Y471778D01*
X376081Y471886D01*
X376423Y471985D01*
X376767Y472075D01*
X377113Y472158D01*
X377461Y472231D01*
X377811Y472297D01*
X378162Y472353D01*
X378515Y472401D01*
X378869Y472440D01*
X379223Y472471D01*
X379579Y472493D01*
X379934Y472506D01*
X380290Y472510D01*
X380646Y472506D01*
X381001Y472493D01*
X381357Y472471D01*
X381711Y472440D01*
X382065Y472401D01*
X382418Y472353D01*
X382769Y472297D01*
X383119Y472231D01*
X383467Y472158D01*
X383813Y472075D01*
X384157Y471985D01*
X384499Y471886D01*
X384838Y471778D01*
X385175Y471662D01*
X385508Y471538D01*
X385839Y471406D01*
X386166Y471266D01*
X386490Y471118D01*
X386809Y470962D01*
X387125Y470798D01*
X387437Y470626D01*
X387744Y470447D01*
X388047Y470260D01*
X388346Y470066D01*
X388639Y469865D01*
X388928Y469657D01*
X389211Y469441D01*
X389489Y469219D01*
X389761Y468990D01*
X390028Y468754D01*
X390288Y468512D01*
X390543Y468263D01*
X390792Y468008D01*
X391034Y467748D01*
X391270Y467481D01*
X391499Y467209D01*
X391721Y466931D01*
X391937Y466648D01*
X392145Y466359D01*
X392346Y466066D01*
X392540Y465767D01*
X392727Y465464D01*
X392906Y465157D01*
X393078Y464845D01*
X393242Y464529D01*
X393398Y464210D01*
X393546Y463886D01*
X393686Y463559D01*
X393818Y463228D01*
X393942Y462895D01*
X394058Y462558D01*
X394166Y462219D01*
X394265Y461877D01*
X394355Y461533D01*
X394438Y461187D01*
X394511Y460839D01*
X394577Y460489D01*
X394633Y460138D01*
X394681Y459785D01*
X394720Y459431D01*
X394751Y459077D01*
X394773Y458721D01*
X394786Y458366D01*
X394790Y458010D01*
X394786Y457654D01*
X394773Y457299D01*
X394751Y456943D01*
X394720Y456589D01*
X394681Y456235D01*
X394633Y455882D01*
X394577Y455531D01*
X394511Y455181D01*
X394438Y454833D01*
X394355Y454487D01*
X394265Y454143D01*
X394166Y453801D01*
X394058Y453462D01*
X393942Y453125D01*
X393818Y452792D01*
X393686Y452461D01*
X393546Y452134D01*
X393398Y451810D01*
X393242Y451491D01*
X393078Y451175D01*
X392906Y450863D01*
X392727Y450556D01*
X392540Y450253D01*
X392346Y449954D01*
X392145Y449661D01*
X391937Y449372D01*
X391721Y449089D01*
X391499Y448811D01*
X391270Y448539D01*
X391034Y448272D01*
X390792Y448012D01*
X390543Y447757D01*
X390288Y447508D01*
X390028Y447266D01*
X389761Y447030D01*
X389489Y446801D01*
X389211Y446579D01*
X388928Y446363D01*
X388639Y446155D01*
X388346Y445954D01*
X388047Y445760D01*
X387744Y445573D01*
X387437Y445394D01*
X387125Y445222D01*
X386809Y445058D01*
X386490Y444902D01*
X386166Y444754D01*
X385839Y444614D01*
X385508Y444482D01*
X385175Y444358D01*
X384838Y444242D01*
X384499Y444134D01*
X384157Y444035D01*
X383813Y443945D01*
X383467Y443862D01*
X383119Y443789D01*
X382769Y443723D01*
X382418Y443667D01*
X382065Y443619D01*
X381711Y443580D01*
X381357Y443549D01*
X381001Y443527D01*
X380646Y443514D01*
X380290Y443510D01*
X379934Y443514D01*
X379579Y443527D01*
X379223Y443549D01*
X378869Y443580D01*
X378515Y443619D01*
X378162Y443667D01*
X377811Y443723D01*
X377461Y443789D01*
X377113Y443862D01*
X376767Y443945D01*
X376423Y444035D01*
X376081Y444134D01*
X375742Y444242D01*
X375405Y444358D01*
X375072Y444482D01*
X374741Y444614D01*
X374414Y444754D01*
X374090Y444902D01*
X373771Y445058D01*
X373455Y445222D01*
X373143Y445394D01*
X372836Y445573D01*
X372533Y445760D01*
X372234Y445954D01*
X371941Y446155D01*
X371652Y446363D01*
X371369Y446579D01*
X371091Y446801D01*
X370819Y447030D01*
X370552Y447266D01*
X370292Y447508D01*
X370037Y447757D01*
X369788Y448012D01*
X369546Y448272D01*
X369310Y448539D01*
X369081Y448811D01*
X368859Y449089D01*
X368643Y449372D01*
X368435Y449661D01*
X368234Y449954D01*
X368040Y450253D01*
X367853Y450556D01*
X367674Y450863D01*
X367502Y451175D01*
X367338Y451491D01*
X367182Y451810D01*
X367034Y452134D01*
X366894Y452461D01*
X366762Y452792D01*
X366638Y453125D01*
X366522Y453462D01*
X366414Y453801D01*
X366315Y454143D01*
X366225Y454487D01*
X366142Y454833D01*
X366069Y455181D01*
X366003Y455531D01*
X365947Y455882D01*
X365899Y456235D01*
X365860Y456589D01*
X365829Y456943D01*
X365807Y457299D01*
X365794Y457654D01*
X365790Y458010D01*
X400790Y458010D02*
X400794Y458366D01*
X400807Y458721D01*
X400829Y459077D01*
X400860Y459431D01*
X400899Y459785D01*
X400947Y460138D01*
X401003Y460489D01*
X401069Y460839D01*
X401142Y461187D01*
X401225Y461533D01*
X401315Y461877D01*
X401414Y462219D01*
X401522Y462558D01*
X401638Y462895D01*
X401762Y463228D01*
X401894Y463559D01*
X402034Y463886D01*
X402182Y464210D01*
X402338Y464529D01*
X402502Y464845D01*
X402674Y465157D01*
X402853Y465464D01*
X403040Y465767D01*
X403234Y466066D01*
X403435Y466359D01*
X403643Y466648D01*
X403859Y466931D01*
X404081Y467209D01*
X404310Y467481D01*
X404546Y467748D01*
X404788Y468008D01*
X405037Y468263D01*
X405292Y468512D01*
X405552Y468754D01*
X405819Y468990D01*
X406091Y469219D01*
X406369Y469441D01*
X406652Y469657D01*
X406941Y469865D01*
X407234Y470066D01*
X407533Y470260D01*
X407836Y470447D01*
X408143Y470626D01*
X408455Y470798D01*
X408771Y470962D01*
X409090Y471118D01*
X409414Y471266D01*
X409741Y471406D01*
X410072Y471538D01*
X410405Y471662D01*
X410742Y471778D01*
X411081Y471886D01*
X411423Y471985D01*
X411767Y472075D01*
X412113Y472158D01*
X412461Y472231D01*
X412811Y472297D01*
X413162Y472353D01*
X413515Y472401D01*
X413869Y472440D01*
X414223Y472471D01*
X414579Y472493D01*
X414934Y472506D01*
X415290Y472510D01*
X415646Y472506D01*
X416001Y472493D01*
X416357Y472471D01*
X416711Y472440D01*
X417065Y472401D01*
X417418Y472353D01*
X417769Y472297D01*
X418119Y472231D01*
X418467Y472158D01*
X418813Y472075D01*
X419157Y471985D01*
X419499Y471886D01*
X419838Y471778D01*
X420175Y471662D01*
X420508Y471538D01*
X420839Y471406D01*
X421166Y471266D01*
X421490Y471118D01*
X421809Y470962D01*
X422125Y470798D01*
X422437Y470626D01*
X422744Y470447D01*
X423047Y470260D01*
X423346Y470066D01*
X423639Y469865D01*
X423928Y469657D01*
X424211Y469441D01*
X424489Y469219D01*
X424761Y468990D01*
X425028Y468754D01*
X425288Y468512D01*
X425543Y468263D01*
X425792Y468008D01*
X426034Y467748D01*
X426270Y467481D01*
X426499Y467209D01*
X426721Y466931D01*
X426937Y466648D01*
X427145Y466359D01*
X427346Y466066D01*
X427540Y465767D01*
X427727Y465464D01*
X427906Y465157D01*
X428078Y464845D01*
X428242Y464529D01*
X428398Y464210D01*
X428546Y463886D01*
X428686Y463559D01*
X428818Y463228D01*
X428942Y462895D01*
X429058Y462558D01*
X429166Y462219D01*
X429265Y461877D01*
X429355Y461533D01*
X429438Y461187D01*
X429511Y460839D01*
X429577Y460489D01*
X429633Y460138D01*
X429681Y459785D01*
X429720Y459431D01*
X429751Y459077D01*
X429773Y458721D01*
X429786Y458366D01*
X429790Y458010D01*
X429786Y457654D01*
X429773Y457299D01*
X429751Y456943D01*
X429720Y456589D01*
X429681Y456235D01*
X429633Y455882D01*
X429577Y455531D01*
X429511Y455181D01*
X429438Y454833D01*
X429355Y454487D01*
X429265Y454143D01*
X429166Y453801D01*
X429058Y453462D01*
X428942Y453125D01*
X428818Y452792D01*
X428686Y452461D01*
X428546Y452134D01*
X428398Y451810D01*
X428242Y451491D01*
X428078Y451175D01*
X427906Y450863D01*
X427727Y450556D01*
X427540Y450253D01*
X427346Y449954D01*
X427145Y449661D01*
X426937Y449372D01*
X426721Y449089D01*
X426499Y448811D01*
X426270Y448539D01*
X426034Y448272D01*
X425792Y448012D01*
X425543Y447757D01*
X425288Y447508D01*
X425028Y447266D01*
X424761Y447030D01*
X424489Y446801D01*
X424211Y446579D01*
X423928Y446363D01*
X423639Y446155D01*
X423346Y445954D01*
X423047Y445760D01*
X422744Y445573D01*
X422437Y445394D01*
X422125Y445222D01*
X421809Y445058D01*
X421490Y444902D01*
X421166Y444754D01*
X420839Y444614D01*
X420508Y444482D01*
X420175Y444358D01*
X419838Y444242D01*
X419499Y444134D01*
X419157Y444035D01*
X418813Y443945D01*
X418467Y443862D01*
X418119Y443789D01*
X417769Y443723D01*
X417418Y443667D01*
X417065Y443619D01*
X416711Y443580D01*
X416357Y443549D01*
X416001Y443527D01*
X415646Y443514D01*
X415290Y443510D01*
X414934Y443514D01*
X414579Y443527D01*
X414223Y443549D01*
X413869Y443580D01*
X413515Y443619D01*
X413162Y443667D01*
X412811Y443723D01*
X412461Y443789D01*
X412113Y443862D01*
X411767Y443945D01*
X411423Y444035D01*
X411081Y444134D01*
X410742Y444242D01*
X410405Y444358D01*
X410072Y444482D01*
X409741Y444614D01*
X409414Y444754D01*
X409090Y444902D01*
X408771Y445058D01*
X408455Y445222D01*
X408143Y445394D01*
X407836Y445573D01*
X407533Y445760D01*
X407234Y445954D01*
X406941Y446155D01*
X406652Y446363D01*
X406369Y446579D01*
X406091Y446801D01*
X405819Y447030D01*
X405552Y447266D01*
X405292Y447508D01*
X405037Y447757D01*
X404788Y448012D01*
X404546Y448272D01*
X404310Y448539D01*
X404081Y448811D01*
X403859Y449089D01*
X403643Y449372D01*
X403435Y449661D01*
X403234Y449954D01*
X403040Y450253D01*
X402853Y450556D01*
X402674Y450863D01*
X402502Y451175D01*
X402338Y451491D01*
X402182Y451810D01*
X402034Y452134D01*
X401894Y452461D01*
X401762Y452792D01*
X401638Y453125D01*
X401522Y453462D01*
X401414Y453801D01*
X401315Y454143D01*
X401225Y454487D01*
X401142Y454833D01*
X401069Y455181D01*
X401003Y455531D01*
X400947Y455882D01*
X400899Y456235D01*
X400860Y456589D01*
X400829Y456943D01*
X400807Y457299D01*
X400794Y457654D01*
X400790Y458010D01*
X435290Y495510D02*
X255290Y495510D01*
X255290Y478133D01*
X255290Y438017D02*
X435290Y438017D01*
X435290Y442847D01*
X435290Y473377D01*
X435290Y478133D01*
X435290Y438017D02*
X435290Y429900D01*
X435290Y478133D02*
X255290Y478133D01*
X255290Y473377D02*
X255290Y442847D01*
X255290Y473377D02*
X255290Y478133D01*
X255290Y473377D02*
X435290Y473377D01*
X435290Y442847D02*
X255290Y442847D01*
X435290Y478133D02*
X435290Y495510D01*
X255290Y442847D02*
X255290Y438017D01*
X255290Y429900D01*
X435290Y429900D01*
X435290Y422510D02*
X255290Y422510D01*
X435290Y422510D02*
X435290Y425510D01*
X255290Y425510D01*
X255290Y422510D01*
X255290Y425510D02*
X255290Y429900D01*
X435290Y429900D02*
X435290Y425510D01*
X287350Y465120D02*
X287290Y465060D01*
X322290Y465060D02*
X322350Y465120D01*
X357290Y465060D02*
X357350Y465120D01*
X392290Y465060D02*
X392350Y465120D01*
X427290Y465060D02*
X427350Y465120D01*
X274544Y493427D02*
X271298Y490831D01*
X274544Y493427D02*
X274544Y481743D01*
X277789Y481743D02*
X271298Y481743D01*
X309793Y493427D02*
X309900Y493425D01*
X310006Y493419D01*
X310112Y493409D01*
X310218Y493396D01*
X310324Y493378D01*
X310428Y493357D01*
X310532Y493332D01*
X310635Y493303D01*
X310736Y493271D01*
X310836Y493234D01*
X310935Y493194D01*
X311033Y493151D01*
X311129Y493104D01*
X311223Y493053D01*
X311315Y492999D01*
X311405Y492942D01*
X311493Y492882D01*
X311578Y492818D01*
X311661Y492751D01*
X311742Y492681D01*
X311820Y492609D01*
X311896Y492533D01*
X311968Y492455D01*
X312038Y492374D01*
X312105Y492291D01*
X312169Y492206D01*
X312229Y492118D01*
X312286Y492028D01*
X312340Y491936D01*
X312391Y491842D01*
X312438Y491746D01*
X312481Y491648D01*
X312521Y491549D01*
X312558Y491449D01*
X312590Y491348D01*
X312619Y491245D01*
X312644Y491141D01*
X312665Y491037D01*
X312683Y490931D01*
X312696Y490825D01*
X312706Y490719D01*
X312712Y490613D01*
X312714Y490506D01*
X309793Y493427D02*
X309672Y493425D01*
X309551Y493419D01*
X309431Y493409D01*
X309310Y493396D01*
X309191Y493378D01*
X309071Y493357D01*
X308953Y493332D01*
X308836Y493303D01*
X308719Y493270D01*
X308604Y493234D01*
X308490Y493193D01*
X308377Y493150D01*
X308265Y493102D01*
X308156Y493051D01*
X308048Y492996D01*
X307941Y492938D01*
X307837Y492877D01*
X307735Y492812D01*
X307635Y492744D01*
X307537Y492673D01*
X307441Y492599D01*
X307348Y492522D01*
X307258Y492441D01*
X307170Y492358D01*
X307085Y492272D01*
X307002Y492183D01*
X306923Y492092D01*
X306846Y491998D01*
X306773Y491902D01*
X306703Y491804D01*
X306636Y491703D01*
X306572Y491600D01*
X306512Y491495D01*
X306455Y491388D01*
X306401Y491280D01*
X306351Y491170D01*
X306305Y491058D01*
X306262Y490945D01*
X306223Y490830D01*
X311741Y488234D02*
X311820Y488311D01*
X311896Y488392D01*
X311969Y488475D01*
X312039Y488560D01*
X312106Y488648D01*
X312170Y488738D01*
X312230Y488830D01*
X312287Y488925D01*
X312341Y489021D01*
X312392Y489119D01*
X312439Y489219D01*
X312483Y489321D01*
X312523Y489424D01*
X312559Y489528D01*
X312591Y489634D01*
X312620Y489740D01*
X312645Y489848D01*
X312667Y489956D01*
X312684Y490066D01*
X312698Y490175D01*
X312707Y490285D01*
X312713Y490396D01*
X312715Y490506D01*
X311740Y488234D02*
X306223Y481743D01*
X312714Y481743D01*
X341148Y481743D02*
X344394Y481743D01*
X344507Y481745D01*
X344620Y481751D01*
X344733Y481761D01*
X344846Y481775D01*
X344958Y481792D01*
X345069Y481814D01*
X345179Y481839D01*
X345289Y481869D01*
X345397Y481902D01*
X345504Y481939D01*
X345610Y481979D01*
X345714Y482024D01*
X345817Y482072D01*
X345918Y482123D01*
X346017Y482178D01*
X346114Y482236D01*
X346209Y482298D01*
X346302Y482363D01*
X346392Y482431D01*
X346480Y482502D01*
X346566Y482577D01*
X346649Y482654D01*
X346729Y482734D01*
X346806Y482817D01*
X346881Y482903D01*
X346952Y482991D01*
X347020Y483081D01*
X347085Y483174D01*
X347147Y483269D01*
X347205Y483366D01*
X347260Y483465D01*
X347311Y483566D01*
X347359Y483669D01*
X347404Y483773D01*
X347444Y483879D01*
X347481Y483986D01*
X347514Y484094D01*
X347544Y484204D01*
X347569Y484314D01*
X347591Y484425D01*
X347608Y484537D01*
X347622Y484650D01*
X347632Y484763D01*
X347638Y484876D01*
X347640Y484989D01*
X347638Y485102D01*
X347632Y485215D01*
X347622Y485328D01*
X347608Y485441D01*
X347591Y485553D01*
X347569Y485664D01*
X347544Y485774D01*
X347514Y485884D01*
X347481Y485992D01*
X347444Y486099D01*
X347404Y486205D01*
X347359Y486309D01*
X347311Y486412D01*
X347260Y486513D01*
X347205Y486612D01*
X347147Y486709D01*
X347085Y486804D01*
X347020Y486897D01*
X346952Y486987D01*
X346881Y487075D01*
X346806Y487161D01*
X346729Y487244D01*
X346649Y487324D01*
X346566Y487401D01*
X346480Y487476D01*
X346392Y487547D01*
X346302Y487615D01*
X346209Y487680D01*
X346114Y487742D01*
X346017Y487800D01*
X345918Y487855D01*
X345817Y487906D01*
X345714Y487954D01*
X345610Y487999D01*
X345504Y488039D01*
X345397Y488076D01*
X345289Y488109D01*
X345179Y488139D01*
X345069Y488164D01*
X344958Y488186D01*
X344846Y488203D01*
X344733Y488217D01*
X344620Y488227D01*
X344507Y488233D01*
X344394Y488235D01*
X345043Y493427D02*
X341148Y493427D01*
X345043Y493427D02*
X345144Y493425D01*
X345244Y493419D01*
X345344Y493409D01*
X345444Y493396D01*
X345543Y493378D01*
X345642Y493357D01*
X345739Y493332D01*
X345836Y493303D01*
X345931Y493270D01*
X346025Y493234D01*
X346117Y493194D01*
X346208Y493151D01*
X346297Y493104D01*
X346384Y493054D01*
X346470Y493000D01*
X346553Y492943D01*
X346633Y492883D01*
X346712Y492820D01*
X346788Y492753D01*
X346861Y492684D01*
X346931Y492612D01*
X346999Y492538D01*
X347064Y492461D01*
X347125Y492381D01*
X347184Y492299D01*
X347239Y492215D01*
X347291Y492129D01*
X347340Y492041D01*
X347385Y491951D01*
X347427Y491859D01*
X347465Y491766D01*
X347499Y491671D01*
X347530Y491576D01*
X347557Y491479D01*
X347580Y491381D01*
X347600Y491282D01*
X347615Y491182D01*
X347627Y491082D01*
X347635Y490982D01*
X347639Y490881D01*
X347639Y490781D01*
X347635Y490680D01*
X347627Y490580D01*
X347615Y490480D01*
X347600Y490380D01*
X347580Y490281D01*
X347557Y490183D01*
X347530Y490086D01*
X347499Y489991D01*
X347465Y489896D01*
X347427Y489803D01*
X347385Y489711D01*
X347340Y489621D01*
X347291Y489533D01*
X347239Y489447D01*
X347184Y489363D01*
X347125Y489281D01*
X347064Y489201D01*
X346999Y489124D01*
X346931Y489050D01*
X346861Y488978D01*
X346788Y488909D01*
X346712Y488842D01*
X346633Y488779D01*
X346553Y488719D01*
X346470Y488662D01*
X346384Y488608D01*
X346297Y488558D01*
X346208Y488511D01*
X346117Y488468D01*
X346025Y488428D01*
X345931Y488392D01*
X345836Y488359D01*
X345739Y488330D01*
X345642Y488305D01*
X345543Y488284D01*
X345444Y488266D01*
X345344Y488253D01*
X345244Y488243D01*
X345144Y488237D01*
X345043Y488235D01*
X345043Y488234D02*
X342446Y488234D01*
X376073Y484339D02*
X378669Y493427D01*
X376073Y484339D02*
X382564Y484339D01*
X380617Y486936D02*
X380617Y481743D01*
X410998Y481743D02*
X414893Y481743D01*
X414992Y481745D01*
X415092Y481751D01*
X415191Y481760D01*
X415289Y481773D01*
X415387Y481790D01*
X415485Y481811D01*
X415581Y481836D01*
X415676Y481864D01*
X415770Y481896D01*
X415863Y481931D01*
X415955Y481970D01*
X416045Y482013D01*
X416133Y482058D01*
X416220Y482108D01*
X416304Y482160D01*
X416387Y482216D01*
X416467Y482274D01*
X416545Y482336D01*
X416620Y482401D01*
X416693Y482469D01*
X416763Y482539D01*
X416831Y482612D01*
X416896Y482687D01*
X416958Y482765D01*
X417016Y482845D01*
X417072Y482928D01*
X417124Y483012D01*
X417174Y483099D01*
X417219Y483187D01*
X417262Y483277D01*
X417301Y483369D01*
X417336Y483462D01*
X417368Y483556D01*
X417396Y483651D01*
X417421Y483747D01*
X417442Y483845D01*
X417459Y483943D01*
X417472Y484041D01*
X417481Y484140D01*
X417487Y484240D01*
X417489Y484339D01*
X417489Y485638D01*
X417487Y485737D01*
X417481Y485837D01*
X417472Y485936D01*
X417459Y486034D01*
X417442Y486132D01*
X417421Y486230D01*
X417396Y486326D01*
X417368Y486421D01*
X417336Y486515D01*
X417301Y486608D01*
X417262Y486700D01*
X417219Y486790D01*
X417174Y486878D01*
X417124Y486965D01*
X417072Y487049D01*
X417016Y487132D01*
X416958Y487212D01*
X416896Y487290D01*
X416831Y487365D01*
X416763Y487438D01*
X416693Y487508D01*
X416620Y487576D01*
X416545Y487641D01*
X416467Y487703D01*
X416387Y487761D01*
X416304Y487817D01*
X416220Y487869D01*
X416133Y487919D01*
X416045Y487964D01*
X415955Y488007D01*
X415863Y488046D01*
X415770Y488081D01*
X415676Y488113D01*
X415581Y488141D01*
X415485Y488166D01*
X415387Y488187D01*
X415289Y488204D01*
X415191Y488217D01*
X415092Y488226D01*
X414992Y488232D01*
X414893Y488234D01*
X410998Y488234D01*
X410998Y493427D01*
X417489Y493427D01*
D123*
X251359Y433949D02*
X251357Y434038D01*
X251351Y434126D01*
X251342Y434214D01*
X251329Y434302D01*
X251312Y434389D01*
X251292Y434475D01*
X251267Y434560D01*
X251240Y434645D01*
X251208Y434728D01*
X251174Y434809D01*
X251135Y434889D01*
X251094Y434967D01*
X251049Y435044D01*
X251001Y435118D01*
X250950Y435191D01*
X250896Y435261D01*
X250838Y435328D01*
X250778Y435394D01*
X250716Y435456D01*
X250650Y435516D01*
X250583Y435574D01*
X250513Y435628D01*
X250440Y435679D01*
X250366Y435727D01*
X250289Y435772D01*
X250211Y435813D01*
X250131Y435852D01*
X250050Y435886D01*
X249967Y435918D01*
X249882Y435945D01*
X249797Y435970D01*
X249711Y435990D01*
X249624Y436007D01*
X249536Y436020D01*
X249448Y436029D01*
X249360Y436035D01*
X249271Y436037D01*
X251359Y433949D02*
X251357Y433820D01*
X251351Y433691D01*
X251342Y433562D01*
X251329Y433434D01*
X251312Y433306D01*
X251291Y433179D01*
X251267Y433052D01*
X251239Y432926D01*
X251207Y432801D01*
X251172Y432677D01*
X251133Y432554D01*
X251090Y432432D01*
X251044Y432312D01*
X250994Y432193D01*
X250941Y432075D01*
X250885Y431959D01*
X250825Y431845D01*
X250762Y431732D01*
X250695Y431622D01*
X250626Y431513D01*
X250553Y431407D01*
X250477Y431302D01*
X250398Y431200D01*
X250316Y431101D01*
X250232Y431003D01*
X250144Y430908D01*
X250054Y430816D01*
X244049Y431078D02*
X243960Y431080D01*
X243872Y431086D01*
X243784Y431095D01*
X243696Y431108D01*
X243609Y431125D01*
X243523Y431145D01*
X243438Y431170D01*
X243353Y431197D01*
X243270Y431229D01*
X243189Y431263D01*
X243109Y431302D01*
X243031Y431343D01*
X242954Y431388D01*
X242880Y431436D01*
X242807Y431487D01*
X242737Y431541D01*
X242670Y431599D01*
X242604Y431659D01*
X242542Y431721D01*
X242482Y431787D01*
X242424Y431854D01*
X242370Y431924D01*
X242319Y431997D01*
X242271Y432071D01*
X242226Y432148D01*
X242185Y432226D01*
X242146Y432306D01*
X242112Y432387D01*
X242080Y432470D01*
X242053Y432555D01*
X242028Y432640D01*
X242008Y432726D01*
X241991Y432813D01*
X241978Y432901D01*
X241969Y432989D01*
X241963Y433077D01*
X241961Y433166D01*
X241963Y433286D01*
X241968Y433406D01*
X241978Y433525D01*
X241990Y433645D01*
X242007Y433764D01*
X242027Y433882D01*
X242051Y434000D01*
X242078Y434116D01*
X242109Y434232D01*
X242143Y434347D01*
X242181Y434461D01*
X242223Y434574D01*
X242268Y434685D01*
X242316Y434795D01*
X242367Y434903D01*
X242422Y435010D01*
X242480Y435115D01*
X242542Y435218D01*
X242606Y435319D01*
X242674Y435419D01*
X242744Y435516D01*
X245876Y432121D02*
X245828Y432043D01*
X245776Y431967D01*
X245722Y431894D01*
X245664Y431823D01*
X245603Y431754D01*
X245539Y431688D01*
X245472Y431625D01*
X245403Y431565D01*
X245331Y431508D01*
X245257Y431454D01*
X245180Y431404D01*
X245101Y431356D01*
X245021Y431313D01*
X244938Y431272D01*
X244854Y431236D01*
X244769Y431203D01*
X244682Y431174D01*
X244593Y431148D01*
X244504Y431126D01*
X244414Y431109D01*
X244324Y431095D01*
X244232Y431085D01*
X244141Y431079D01*
X244049Y431077D01*
X247444Y434993D02*
X247492Y435071D01*
X247544Y435147D01*
X247598Y435220D01*
X247656Y435291D01*
X247717Y435360D01*
X247781Y435426D01*
X247848Y435489D01*
X247917Y435549D01*
X247989Y435606D01*
X248063Y435660D01*
X248140Y435710D01*
X248219Y435758D01*
X248299Y435801D01*
X248382Y435842D01*
X248466Y435878D01*
X248551Y435911D01*
X248638Y435940D01*
X248727Y435966D01*
X248816Y435988D01*
X248906Y436005D01*
X248996Y436019D01*
X249088Y436029D01*
X249179Y436035D01*
X249271Y436037D01*
X247443Y434993D02*
X245877Y432121D01*
X244049Y439655D02*
X241961Y442266D01*
X251359Y442266D01*
X251359Y444876D02*
X251359Y439655D01*
D10*
X398330Y396950D02*
X398334Y397306D01*
X398347Y397661D01*
X398369Y398017D01*
X398400Y398371D01*
X398439Y398725D01*
X398487Y399078D01*
X398543Y399429D01*
X398609Y399779D01*
X398682Y400127D01*
X398765Y400473D01*
X398855Y400817D01*
X398954Y401159D01*
X399062Y401498D01*
X399178Y401835D01*
X399302Y402168D01*
X399434Y402499D01*
X399574Y402826D01*
X399722Y403150D01*
X399878Y403469D01*
X400042Y403785D01*
X400214Y404097D01*
X400393Y404404D01*
X400580Y404707D01*
X400774Y405006D01*
X400975Y405299D01*
X401183Y405588D01*
X401399Y405871D01*
X401621Y406149D01*
X401850Y406421D01*
X402086Y406688D01*
X402328Y406948D01*
X402577Y407203D01*
X402832Y407452D01*
X403092Y407694D01*
X403359Y407930D01*
X403631Y408159D01*
X403909Y408381D01*
X404192Y408597D01*
X404481Y408805D01*
X404774Y409006D01*
X405073Y409200D01*
X405376Y409387D01*
X405683Y409566D01*
X405995Y409738D01*
X406311Y409902D01*
X406630Y410058D01*
X406954Y410206D01*
X407281Y410346D01*
X407612Y410478D01*
X407945Y410602D01*
X408282Y410718D01*
X408621Y410826D01*
X408963Y410925D01*
X409307Y411015D01*
X409653Y411098D01*
X410001Y411171D01*
X410351Y411237D01*
X410702Y411293D01*
X411055Y411341D01*
X411409Y411380D01*
X411763Y411411D01*
X412119Y411433D01*
X412474Y411446D01*
X412830Y411450D01*
X413186Y411446D01*
X413541Y411433D01*
X413897Y411411D01*
X414251Y411380D01*
X414605Y411341D01*
X414958Y411293D01*
X415309Y411237D01*
X415659Y411171D01*
X416007Y411098D01*
X416353Y411015D01*
X416697Y410925D01*
X417039Y410826D01*
X417378Y410718D01*
X417715Y410602D01*
X418048Y410478D01*
X418379Y410346D01*
X418706Y410206D01*
X419030Y410058D01*
X419349Y409902D01*
X419665Y409738D01*
X419977Y409566D01*
X420284Y409387D01*
X420587Y409200D01*
X420886Y409006D01*
X421179Y408805D01*
X421468Y408597D01*
X421751Y408381D01*
X422029Y408159D01*
X422301Y407930D01*
X422568Y407694D01*
X422828Y407452D01*
X423083Y407203D01*
X423332Y406948D01*
X423574Y406688D01*
X423810Y406421D01*
X424039Y406149D01*
X424261Y405871D01*
X424477Y405588D01*
X424685Y405299D01*
X424886Y405006D01*
X425080Y404707D01*
X425267Y404404D01*
X425446Y404097D01*
X425618Y403785D01*
X425782Y403469D01*
X425938Y403150D01*
X426086Y402826D01*
X426226Y402499D01*
X426358Y402168D01*
X426482Y401835D01*
X426598Y401498D01*
X426706Y401159D01*
X426805Y400817D01*
X426895Y400473D01*
X426978Y400127D01*
X427051Y399779D01*
X427117Y399429D01*
X427173Y399078D01*
X427221Y398725D01*
X427260Y398371D01*
X427291Y398017D01*
X427313Y397661D01*
X427326Y397306D01*
X427330Y396950D01*
X427326Y396594D01*
X427313Y396239D01*
X427291Y395883D01*
X427260Y395529D01*
X427221Y395175D01*
X427173Y394822D01*
X427117Y394471D01*
X427051Y394121D01*
X426978Y393773D01*
X426895Y393427D01*
X426805Y393083D01*
X426706Y392741D01*
X426598Y392402D01*
X426482Y392065D01*
X426358Y391732D01*
X426226Y391401D01*
X426086Y391074D01*
X425938Y390750D01*
X425782Y390431D01*
X425618Y390115D01*
X425446Y389803D01*
X425267Y389496D01*
X425080Y389193D01*
X424886Y388894D01*
X424685Y388601D01*
X424477Y388312D01*
X424261Y388029D01*
X424039Y387751D01*
X423810Y387479D01*
X423574Y387212D01*
X423332Y386952D01*
X423083Y386697D01*
X422828Y386448D01*
X422568Y386206D01*
X422301Y385970D01*
X422029Y385741D01*
X421751Y385519D01*
X421468Y385303D01*
X421179Y385095D01*
X420886Y384894D01*
X420587Y384700D01*
X420284Y384513D01*
X419977Y384334D01*
X419665Y384162D01*
X419349Y383998D01*
X419030Y383842D01*
X418706Y383694D01*
X418379Y383554D01*
X418048Y383422D01*
X417715Y383298D01*
X417378Y383182D01*
X417039Y383074D01*
X416697Y382975D01*
X416353Y382885D01*
X416007Y382802D01*
X415659Y382729D01*
X415309Y382663D01*
X414958Y382607D01*
X414605Y382559D01*
X414251Y382520D01*
X413897Y382489D01*
X413541Y382467D01*
X413186Y382454D01*
X412830Y382450D01*
X412474Y382454D01*
X412119Y382467D01*
X411763Y382489D01*
X411409Y382520D01*
X411055Y382559D01*
X410702Y382607D01*
X410351Y382663D01*
X410001Y382729D01*
X409653Y382802D01*
X409307Y382885D01*
X408963Y382975D01*
X408621Y383074D01*
X408282Y383182D01*
X407945Y383298D01*
X407612Y383422D01*
X407281Y383554D01*
X406954Y383694D01*
X406630Y383842D01*
X406311Y383998D01*
X405995Y384162D01*
X405683Y384334D01*
X405376Y384513D01*
X405073Y384700D01*
X404774Y384894D01*
X404481Y385095D01*
X404192Y385303D01*
X403909Y385519D01*
X403631Y385741D01*
X403359Y385970D01*
X403092Y386206D01*
X402832Y386448D01*
X402577Y386697D01*
X402328Y386952D01*
X402086Y387212D01*
X401850Y387479D01*
X401621Y387751D01*
X401399Y388029D01*
X401183Y388312D01*
X400975Y388601D01*
X400774Y388894D01*
X400580Y389193D01*
X400393Y389496D01*
X400214Y389803D01*
X400042Y390115D01*
X399878Y390431D01*
X399722Y390750D01*
X399574Y391074D01*
X399434Y391401D01*
X399302Y391732D01*
X399178Y392065D01*
X399062Y392402D01*
X398954Y392741D01*
X398855Y393083D01*
X398765Y393427D01*
X398682Y393773D01*
X398609Y394121D01*
X398543Y394471D01*
X398487Y394822D01*
X398439Y395175D01*
X398400Y395529D01*
X398369Y395883D01*
X398347Y396239D01*
X398334Y396594D01*
X398330Y396950D01*
X398330Y361950D02*
X398334Y362306D01*
X398347Y362661D01*
X398369Y363017D01*
X398400Y363371D01*
X398439Y363725D01*
X398487Y364078D01*
X398543Y364429D01*
X398609Y364779D01*
X398682Y365127D01*
X398765Y365473D01*
X398855Y365817D01*
X398954Y366159D01*
X399062Y366498D01*
X399178Y366835D01*
X399302Y367168D01*
X399434Y367499D01*
X399574Y367826D01*
X399722Y368150D01*
X399878Y368469D01*
X400042Y368785D01*
X400214Y369097D01*
X400393Y369404D01*
X400580Y369707D01*
X400774Y370006D01*
X400975Y370299D01*
X401183Y370588D01*
X401399Y370871D01*
X401621Y371149D01*
X401850Y371421D01*
X402086Y371688D01*
X402328Y371948D01*
X402577Y372203D01*
X402832Y372452D01*
X403092Y372694D01*
X403359Y372930D01*
X403631Y373159D01*
X403909Y373381D01*
X404192Y373597D01*
X404481Y373805D01*
X404774Y374006D01*
X405073Y374200D01*
X405376Y374387D01*
X405683Y374566D01*
X405995Y374738D01*
X406311Y374902D01*
X406630Y375058D01*
X406954Y375206D01*
X407281Y375346D01*
X407612Y375478D01*
X407945Y375602D01*
X408282Y375718D01*
X408621Y375826D01*
X408963Y375925D01*
X409307Y376015D01*
X409653Y376098D01*
X410001Y376171D01*
X410351Y376237D01*
X410702Y376293D01*
X411055Y376341D01*
X411409Y376380D01*
X411763Y376411D01*
X412119Y376433D01*
X412474Y376446D01*
X412830Y376450D01*
X413186Y376446D01*
X413541Y376433D01*
X413897Y376411D01*
X414251Y376380D01*
X414605Y376341D01*
X414958Y376293D01*
X415309Y376237D01*
X415659Y376171D01*
X416007Y376098D01*
X416353Y376015D01*
X416697Y375925D01*
X417039Y375826D01*
X417378Y375718D01*
X417715Y375602D01*
X418048Y375478D01*
X418379Y375346D01*
X418706Y375206D01*
X419030Y375058D01*
X419349Y374902D01*
X419665Y374738D01*
X419977Y374566D01*
X420284Y374387D01*
X420587Y374200D01*
X420886Y374006D01*
X421179Y373805D01*
X421468Y373597D01*
X421751Y373381D01*
X422029Y373159D01*
X422301Y372930D01*
X422568Y372694D01*
X422828Y372452D01*
X423083Y372203D01*
X423332Y371948D01*
X423574Y371688D01*
X423810Y371421D01*
X424039Y371149D01*
X424261Y370871D01*
X424477Y370588D01*
X424685Y370299D01*
X424886Y370006D01*
X425080Y369707D01*
X425267Y369404D01*
X425446Y369097D01*
X425618Y368785D01*
X425782Y368469D01*
X425938Y368150D01*
X426086Y367826D01*
X426226Y367499D01*
X426358Y367168D01*
X426482Y366835D01*
X426598Y366498D01*
X426706Y366159D01*
X426805Y365817D01*
X426895Y365473D01*
X426978Y365127D01*
X427051Y364779D01*
X427117Y364429D01*
X427173Y364078D01*
X427221Y363725D01*
X427260Y363371D01*
X427291Y363017D01*
X427313Y362661D01*
X427326Y362306D01*
X427330Y361950D01*
X427326Y361594D01*
X427313Y361239D01*
X427291Y360883D01*
X427260Y360529D01*
X427221Y360175D01*
X427173Y359822D01*
X427117Y359471D01*
X427051Y359121D01*
X426978Y358773D01*
X426895Y358427D01*
X426805Y358083D01*
X426706Y357741D01*
X426598Y357402D01*
X426482Y357065D01*
X426358Y356732D01*
X426226Y356401D01*
X426086Y356074D01*
X425938Y355750D01*
X425782Y355431D01*
X425618Y355115D01*
X425446Y354803D01*
X425267Y354496D01*
X425080Y354193D01*
X424886Y353894D01*
X424685Y353601D01*
X424477Y353312D01*
X424261Y353029D01*
X424039Y352751D01*
X423810Y352479D01*
X423574Y352212D01*
X423332Y351952D01*
X423083Y351697D01*
X422828Y351448D01*
X422568Y351206D01*
X422301Y350970D01*
X422029Y350741D01*
X421751Y350519D01*
X421468Y350303D01*
X421179Y350095D01*
X420886Y349894D01*
X420587Y349700D01*
X420284Y349513D01*
X419977Y349334D01*
X419665Y349162D01*
X419349Y348998D01*
X419030Y348842D01*
X418706Y348694D01*
X418379Y348554D01*
X418048Y348422D01*
X417715Y348298D01*
X417378Y348182D01*
X417039Y348074D01*
X416697Y347975D01*
X416353Y347885D01*
X416007Y347802D01*
X415659Y347729D01*
X415309Y347663D01*
X414958Y347607D01*
X414605Y347559D01*
X414251Y347520D01*
X413897Y347489D01*
X413541Y347467D01*
X413186Y347454D01*
X412830Y347450D01*
X412474Y347454D01*
X412119Y347467D01*
X411763Y347489D01*
X411409Y347520D01*
X411055Y347559D01*
X410702Y347607D01*
X410351Y347663D01*
X410001Y347729D01*
X409653Y347802D01*
X409307Y347885D01*
X408963Y347975D01*
X408621Y348074D01*
X408282Y348182D01*
X407945Y348298D01*
X407612Y348422D01*
X407281Y348554D01*
X406954Y348694D01*
X406630Y348842D01*
X406311Y348998D01*
X405995Y349162D01*
X405683Y349334D01*
X405376Y349513D01*
X405073Y349700D01*
X404774Y349894D01*
X404481Y350095D01*
X404192Y350303D01*
X403909Y350519D01*
X403631Y350741D01*
X403359Y350970D01*
X403092Y351206D01*
X402832Y351448D01*
X402577Y351697D01*
X402328Y351952D01*
X402086Y352212D01*
X401850Y352479D01*
X401621Y352751D01*
X401399Y353029D01*
X401183Y353312D01*
X400975Y353601D01*
X400774Y353894D01*
X400580Y354193D01*
X400393Y354496D01*
X400214Y354803D01*
X400042Y355115D01*
X399878Y355431D01*
X399722Y355750D01*
X399574Y356074D01*
X399434Y356401D01*
X399302Y356732D01*
X399178Y357065D01*
X399062Y357402D01*
X398954Y357741D01*
X398855Y358083D01*
X398765Y358427D01*
X398682Y358773D01*
X398609Y359121D01*
X398543Y359471D01*
X398487Y359822D01*
X398439Y360175D01*
X398400Y360529D01*
X398369Y360883D01*
X398347Y361239D01*
X398334Y361594D01*
X398330Y361950D01*
X450330Y341950D02*
X450330Y416950D01*
X432953Y416950D01*
X392837Y416950D02*
X392837Y341950D01*
X397667Y341950D01*
X428197Y341950D01*
X432953Y341950D01*
X392837Y341950D02*
X384720Y341950D01*
X432953Y341950D02*
X432953Y416950D01*
X428197Y416950D02*
X397667Y416950D01*
X428197Y416950D02*
X432953Y416950D01*
X428197Y416950D02*
X428197Y341950D01*
X397667Y341950D02*
X397667Y416950D01*
X432953Y341950D02*
X450330Y341950D01*
X397667Y416950D02*
X392837Y416950D01*
X384720Y416950D01*
X384720Y341950D01*
X377330Y341950D02*
X377330Y416950D01*
X377330Y341950D02*
X380330Y341950D01*
X380330Y416950D01*
X377330Y416950D01*
X380330Y416950D02*
X384720Y416950D01*
X384720Y341950D02*
X380330Y341950D01*
X419940Y384890D02*
X419880Y384950D01*
X419880Y349950D02*
X419940Y349890D01*
X439159Y394451D02*
X436563Y397696D01*
X448247Y397696D01*
X448247Y394451D02*
X448247Y400942D01*
X439484Y366017D02*
X439377Y366015D01*
X439271Y366009D01*
X439165Y365999D01*
X439059Y365986D01*
X438953Y365968D01*
X438849Y365947D01*
X438745Y365922D01*
X438642Y365893D01*
X438541Y365861D01*
X438441Y365824D01*
X438342Y365784D01*
X438244Y365741D01*
X438148Y365694D01*
X438054Y365643D01*
X437962Y365589D01*
X437872Y365532D01*
X437784Y365472D01*
X437699Y365408D01*
X437616Y365341D01*
X437535Y365271D01*
X437457Y365199D01*
X437381Y365123D01*
X437309Y365045D01*
X437239Y364964D01*
X437172Y364881D01*
X437108Y364796D01*
X437048Y364708D01*
X436991Y364618D01*
X436937Y364526D01*
X436886Y364432D01*
X436839Y364336D01*
X436796Y364238D01*
X436756Y364139D01*
X436719Y364039D01*
X436687Y363938D01*
X436658Y363835D01*
X436633Y363731D01*
X436612Y363627D01*
X436594Y363521D01*
X436581Y363415D01*
X436571Y363309D01*
X436565Y363203D01*
X436563Y363096D01*
X436565Y362975D01*
X436571Y362854D01*
X436581Y362734D01*
X436594Y362613D01*
X436612Y362494D01*
X436633Y362374D01*
X436658Y362256D01*
X436687Y362139D01*
X436720Y362022D01*
X436756Y361907D01*
X436797Y361793D01*
X436840Y361680D01*
X436888Y361568D01*
X436939Y361459D01*
X436994Y361351D01*
X437052Y361244D01*
X437113Y361140D01*
X437178Y361038D01*
X437246Y360938D01*
X437317Y360840D01*
X437391Y360744D01*
X437468Y360651D01*
X437549Y360561D01*
X437632Y360473D01*
X437718Y360388D01*
X437807Y360305D01*
X437898Y360226D01*
X437992Y360149D01*
X438088Y360076D01*
X438186Y360006D01*
X438287Y359939D01*
X438390Y359875D01*
X438495Y359815D01*
X438602Y359757D01*
X438710Y359704D01*
X438820Y359654D01*
X438932Y359608D01*
X439045Y359565D01*
X439160Y359526D01*
X441756Y365043D02*
X441678Y365122D01*
X441598Y365198D01*
X441515Y365271D01*
X441429Y365341D01*
X441342Y365408D01*
X441251Y365472D01*
X441159Y365532D01*
X441065Y365590D01*
X440968Y365644D01*
X440870Y365694D01*
X440770Y365741D01*
X440669Y365785D01*
X440566Y365825D01*
X440461Y365861D01*
X440356Y365893D01*
X440249Y365922D01*
X440142Y365947D01*
X440033Y365969D01*
X439924Y365986D01*
X439815Y366000D01*
X439705Y366009D01*
X439594Y366015D01*
X439484Y366017D01*
X441756Y365043D02*
X448247Y359526D01*
X448247Y366017D01*
D123*
X372869Y345589D02*
X372867Y345678D01*
X372861Y345766D01*
X372852Y345854D01*
X372839Y345942D01*
X372822Y346029D01*
X372802Y346115D01*
X372777Y346200D01*
X372750Y346285D01*
X372718Y346368D01*
X372684Y346449D01*
X372645Y346529D01*
X372604Y346607D01*
X372559Y346684D01*
X372511Y346758D01*
X372460Y346831D01*
X372406Y346901D01*
X372348Y346968D01*
X372288Y347034D01*
X372226Y347096D01*
X372160Y347156D01*
X372093Y347214D01*
X372023Y347268D01*
X371950Y347319D01*
X371876Y347367D01*
X371799Y347412D01*
X371721Y347453D01*
X371641Y347492D01*
X371560Y347526D01*
X371477Y347558D01*
X371392Y347585D01*
X371307Y347610D01*
X371221Y347630D01*
X371134Y347647D01*
X371046Y347660D01*
X370958Y347669D01*
X370870Y347675D01*
X370781Y347677D01*
X372869Y345589D02*
X372867Y345460D01*
X372861Y345331D01*
X372852Y345202D01*
X372839Y345074D01*
X372822Y344946D01*
X372801Y344819D01*
X372777Y344692D01*
X372749Y344566D01*
X372717Y344441D01*
X372682Y344317D01*
X372643Y344194D01*
X372600Y344072D01*
X372554Y343952D01*
X372504Y343833D01*
X372451Y343715D01*
X372395Y343599D01*
X372335Y343485D01*
X372272Y343372D01*
X372205Y343262D01*
X372136Y343153D01*
X372063Y343047D01*
X371987Y342942D01*
X371908Y342840D01*
X371826Y342741D01*
X371742Y342643D01*
X371654Y342548D01*
X371564Y342456D01*
X365559Y342718D02*
X365470Y342720D01*
X365382Y342726D01*
X365294Y342735D01*
X365206Y342748D01*
X365119Y342765D01*
X365033Y342785D01*
X364948Y342810D01*
X364863Y342837D01*
X364780Y342869D01*
X364699Y342903D01*
X364619Y342942D01*
X364541Y342983D01*
X364464Y343028D01*
X364390Y343076D01*
X364317Y343127D01*
X364247Y343181D01*
X364180Y343239D01*
X364114Y343299D01*
X364052Y343361D01*
X363992Y343427D01*
X363934Y343494D01*
X363880Y343564D01*
X363829Y343637D01*
X363781Y343711D01*
X363736Y343788D01*
X363695Y343866D01*
X363656Y343946D01*
X363622Y344027D01*
X363590Y344110D01*
X363563Y344195D01*
X363538Y344280D01*
X363518Y344366D01*
X363501Y344453D01*
X363488Y344541D01*
X363479Y344629D01*
X363473Y344717D01*
X363471Y344806D01*
X363473Y344926D01*
X363478Y345046D01*
X363488Y345165D01*
X363500Y345285D01*
X363517Y345404D01*
X363537Y345522D01*
X363561Y345640D01*
X363588Y345756D01*
X363619Y345872D01*
X363653Y345987D01*
X363691Y346101D01*
X363733Y346214D01*
X363778Y346325D01*
X363826Y346435D01*
X363877Y346543D01*
X363932Y346650D01*
X363990Y346755D01*
X364052Y346858D01*
X364116Y346959D01*
X364184Y347059D01*
X364254Y347156D01*
X367386Y343761D02*
X367338Y343683D01*
X367286Y343607D01*
X367232Y343534D01*
X367174Y343463D01*
X367113Y343394D01*
X367049Y343328D01*
X366982Y343265D01*
X366913Y343205D01*
X366841Y343148D01*
X366767Y343094D01*
X366690Y343044D01*
X366611Y342996D01*
X366531Y342953D01*
X366448Y342912D01*
X366364Y342876D01*
X366279Y342843D01*
X366192Y342814D01*
X366103Y342788D01*
X366014Y342766D01*
X365924Y342749D01*
X365834Y342735D01*
X365742Y342725D01*
X365651Y342719D01*
X365559Y342717D01*
X368954Y346633D02*
X369002Y346711D01*
X369054Y346787D01*
X369108Y346860D01*
X369166Y346931D01*
X369227Y347000D01*
X369291Y347066D01*
X369358Y347129D01*
X369427Y347189D01*
X369499Y347246D01*
X369573Y347300D01*
X369650Y347350D01*
X369729Y347398D01*
X369809Y347441D01*
X369892Y347482D01*
X369976Y347518D01*
X370061Y347551D01*
X370148Y347580D01*
X370237Y347606D01*
X370326Y347628D01*
X370416Y347645D01*
X370506Y347659D01*
X370598Y347669D01*
X370689Y347675D01*
X370781Y347677D01*
X368953Y346633D02*
X367387Y343761D01*
X363471Y354167D02*
X363473Y354262D01*
X363479Y354356D01*
X363488Y354450D01*
X363501Y354544D01*
X363518Y354637D01*
X363539Y354729D01*
X363564Y354821D01*
X363592Y354911D01*
X363624Y355000D01*
X363659Y355088D01*
X363698Y355174D01*
X363740Y355259D01*
X363786Y355342D01*
X363835Y355423D01*
X363887Y355502D01*
X363942Y355579D01*
X364001Y355653D01*
X364062Y355725D01*
X364126Y355795D01*
X364193Y355862D01*
X364263Y355926D01*
X364335Y355987D01*
X364409Y356046D01*
X364486Y356101D01*
X364565Y356153D01*
X364646Y356202D01*
X364729Y356248D01*
X364814Y356290D01*
X364900Y356329D01*
X364988Y356364D01*
X365077Y356396D01*
X365167Y356424D01*
X365259Y356449D01*
X365351Y356470D01*
X365444Y356487D01*
X365538Y356500D01*
X365632Y356509D01*
X365726Y356515D01*
X365821Y356517D01*
X363471Y354167D02*
X363473Y354059D01*
X363479Y353950D01*
X363489Y353842D01*
X363502Y353735D01*
X363520Y353628D01*
X363541Y353521D01*
X363566Y353416D01*
X363595Y353311D01*
X363627Y353208D01*
X363664Y353106D01*
X363704Y353005D01*
X363747Y352906D01*
X363794Y352808D01*
X363845Y352712D01*
X363899Y352618D01*
X363956Y352526D01*
X364017Y352436D01*
X364081Y352348D01*
X364147Y352263D01*
X364217Y352180D01*
X364290Y352100D01*
X364366Y352022D01*
X364444Y351947D01*
X364525Y351875D01*
X364609Y351806D01*
X364695Y351740D01*
X364783Y351677D01*
X364874Y351618D01*
X364966Y351561D01*
X365061Y351508D01*
X365158Y351459D01*
X365256Y351413D01*
X365355Y351370D01*
X365457Y351331D01*
X365559Y351296D01*
X367649Y355734D02*
X367580Y355803D01*
X367509Y355869D01*
X367436Y355933D01*
X367360Y355994D01*
X367281Y356052D01*
X367201Y356106D01*
X367118Y356158D01*
X367034Y356206D01*
X366948Y356252D01*
X366860Y356293D01*
X366770Y356332D01*
X366679Y356367D01*
X366587Y356398D01*
X366494Y356426D01*
X366400Y356450D01*
X366305Y356470D01*
X366209Y356487D01*
X366112Y356500D01*
X366015Y356509D01*
X365918Y356515D01*
X365821Y356517D01*
X367648Y355733D02*
X372869Y351295D01*
X372869Y356516D01*
D125*
X364490Y276098D02*
X364490Y274320D01*
X364490Y256540D02*
X364490Y254762D01*
X387350Y254762D02*
X387350Y256540D01*
X387350Y269748D02*
X387350Y276098D01*
D123*
X357688Y259461D02*
X350901Y259461D01*
X357688Y259461D02*
X357789Y259463D01*
X357890Y259469D01*
X357991Y259479D01*
X358091Y259492D01*
X358191Y259510D01*
X358290Y259531D01*
X358388Y259557D01*
X358485Y259586D01*
X358581Y259618D01*
X358675Y259655D01*
X358768Y259695D01*
X358860Y259739D01*
X358949Y259786D01*
X359037Y259837D01*
X359123Y259891D01*
X359206Y259948D01*
X359288Y260008D01*
X359366Y260072D01*
X359443Y260138D01*
X359516Y260208D01*
X359587Y260280D01*
X359655Y260355D01*
X359720Y260433D01*
X359782Y260513D01*
X359841Y260595D01*
X359897Y260680D01*
X359949Y260766D01*
X359998Y260855D01*
X360044Y260946D01*
X360085Y261038D01*
X360124Y261132D01*
X360158Y261227D01*
X360189Y261323D01*
X360216Y261421D01*
X360240Y261519D01*
X360259Y261619D01*
X360275Y261719D01*
X360287Y261819D01*
X360295Y261920D01*
X360299Y262021D01*
X360299Y262123D01*
X360295Y262224D01*
X360287Y262325D01*
X360275Y262425D01*
X360259Y262525D01*
X360240Y262625D01*
X360216Y262723D01*
X360189Y262821D01*
X360158Y262917D01*
X360124Y263012D01*
X360085Y263106D01*
X360044Y263198D01*
X359998Y263289D01*
X359949Y263377D01*
X359897Y263464D01*
X359841Y263549D01*
X359782Y263631D01*
X359720Y263711D01*
X359655Y263789D01*
X359587Y263864D01*
X359516Y263936D01*
X359443Y264006D01*
X359366Y264072D01*
X359288Y264136D01*
X359206Y264196D01*
X359123Y264253D01*
X359037Y264307D01*
X358949Y264358D01*
X358860Y264405D01*
X358768Y264449D01*
X358675Y264489D01*
X358581Y264526D01*
X358485Y264558D01*
X358388Y264587D01*
X358290Y264613D01*
X358191Y264634D01*
X358091Y264652D01*
X357991Y264665D01*
X357890Y264675D01*
X357789Y264681D01*
X357688Y264683D01*
X357688Y264682D02*
X350901Y264682D01*
X350901Y271781D02*
X350903Y271876D01*
X350909Y271970D01*
X350918Y272064D01*
X350931Y272158D01*
X350948Y272251D01*
X350969Y272343D01*
X350994Y272435D01*
X351022Y272525D01*
X351054Y272614D01*
X351089Y272702D01*
X351128Y272788D01*
X351170Y272873D01*
X351216Y272956D01*
X351265Y273037D01*
X351317Y273116D01*
X351372Y273193D01*
X351431Y273267D01*
X351492Y273339D01*
X351556Y273409D01*
X351623Y273476D01*
X351693Y273540D01*
X351765Y273601D01*
X351839Y273660D01*
X351916Y273715D01*
X351995Y273767D01*
X352076Y273816D01*
X352159Y273862D01*
X352244Y273904D01*
X352330Y273943D01*
X352418Y273978D01*
X352507Y274010D01*
X352597Y274038D01*
X352689Y274063D01*
X352781Y274084D01*
X352874Y274101D01*
X352968Y274114D01*
X353062Y274123D01*
X353156Y274129D01*
X353251Y274131D01*
X350901Y271781D02*
X350903Y271673D01*
X350909Y271564D01*
X350919Y271456D01*
X350932Y271349D01*
X350950Y271242D01*
X350971Y271135D01*
X350996Y271030D01*
X351025Y270925D01*
X351057Y270822D01*
X351094Y270720D01*
X351134Y270619D01*
X351177Y270520D01*
X351224Y270422D01*
X351275Y270326D01*
X351329Y270232D01*
X351386Y270140D01*
X351447Y270050D01*
X351511Y269962D01*
X351577Y269877D01*
X351647Y269794D01*
X351720Y269714D01*
X351796Y269636D01*
X351874Y269561D01*
X351955Y269489D01*
X352039Y269420D01*
X352125Y269354D01*
X352213Y269291D01*
X352304Y269232D01*
X352396Y269175D01*
X352491Y269122D01*
X352588Y269073D01*
X352686Y269027D01*
X352785Y268984D01*
X352887Y268945D01*
X352989Y268910D01*
X355079Y273348D02*
X355010Y273417D01*
X354939Y273483D01*
X354866Y273547D01*
X354790Y273608D01*
X354711Y273666D01*
X354631Y273720D01*
X354548Y273772D01*
X354464Y273820D01*
X354378Y273866D01*
X354290Y273907D01*
X354200Y273946D01*
X354109Y273981D01*
X354017Y274012D01*
X353924Y274040D01*
X353830Y274064D01*
X353735Y274084D01*
X353639Y274101D01*
X353542Y274114D01*
X353445Y274123D01*
X353348Y274129D01*
X353251Y274131D01*
X355078Y273348D02*
X360299Y268910D01*
X360299Y274131D01*
X423799Y245945D02*
X423799Y243857D01*
X423797Y243768D01*
X423791Y243680D01*
X423782Y243592D01*
X423769Y243504D01*
X423752Y243417D01*
X423732Y243331D01*
X423707Y243246D01*
X423680Y243161D01*
X423648Y243078D01*
X423614Y242997D01*
X423575Y242917D01*
X423534Y242839D01*
X423489Y242762D01*
X423441Y242688D01*
X423390Y242615D01*
X423336Y242545D01*
X423278Y242478D01*
X423218Y242412D01*
X423156Y242350D01*
X423090Y242290D01*
X423023Y242232D01*
X422953Y242178D01*
X422880Y242127D01*
X422806Y242079D01*
X422729Y242034D01*
X422651Y241993D01*
X422571Y241954D01*
X422490Y241920D01*
X422407Y241888D01*
X422322Y241861D01*
X422237Y241836D01*
X422151Y241816D01*
X422064Y241799D01*
X421976Y241786D01*
X421888Y241777D01*
X421800Y241771D01*
X421711Y241769D01*
X421711Y241768D02*
X416489Y241768D01*
X416398Y241770D01*
X416307Y241776D01*
X416216Y241786D01*
X416126Y241800D01*
X416037Y241818D01*
X415948Y241839D01*
X415861Y241865D01*
X415775Y241894D01*
X415690Y241927D01*
X415606Y241964D01*
X415524Y242004D01*
X415445Y242048D01*
X415367Y242095D01*
X415291Y242146D01*
X415217Y242200D01*
X415146Y242257D01*
X415078Y242317D01*
X415012Y242380D01*
X414949Y242446D01*
X414889Y242514D01*
X414832Y242585D01*
X414778Y242659D01*
X414727Y242735D01*
X414680Y242812D01*
X414636Y242892D01*
X414596Y242974D01*
X414559Y243058D01*
X414526Y243142D01*
X414497Y243229D01*
X414471Y243316D01*
X414450Y243405D01*
X414432Y243494D01*
X414418Y243584D01*
X414408Y243675D01*
X414402Y243766D01*
X414400Y243857D01*
X414401Y243857D02*
X414401Y245945D01*
X416489Y249414D02*
X414401Y252024D01*
X423799Y252024D01*
X423799Y249414D02*
X423799Y254635D01*
X415445Y258558D02*
X414401Y258558D01*
X414401Y263779D01*
X423799Y261168D01*
X370318Y297561D02*
X368229Y297561D01*
X368140Y297563D01*
X368052Y297569D01*
X367964Y297578D01*
X367876Y297591D01*
X367789Y297608D01*
X367703Y297628D01*
X367618Y297653D01*
X367533Y297680D01*
X367450Y297712D01*
X367369Y297746D01*
X367289Y297785D01*
X367211Y297826D01*
X367134Y297871D01*
X367060Y297919D01*
X366987Y297970D01*
X366917Y298024D01*
X366850Y298082D01*
X366784Y298142D01*
X366722Y298204D01*
X366662Y298270D01*
X366604Y298337D01*
X366550Y298407D01*
X366499Y298480D01*
X366451Y298554D01*
X366406Y298631D01*
X366365Y298709D01*
X366326Y298789D01*
X366292Y298870D01*
X366260Y298953D01*
X366233Y299038D01*
X366208Y299123D01*
X366188Y299209D01*
X366171Y299296D01*
X366158Y299384D01*
X366149Y299472D01*
X366143Y299560D01*
X366141Y299649D01*
X366141Y304871D01*
X366143Y304962D01*
X366149Y305053D01*
X366159Y305144D01*
X366173Y305234D01*
X366190Y305323D01*
X366212Y305411D01*
X366238Y305499D01*
X366267Y305585D01*
X366300Y305670D01*
X366337Y305753D01*
X366377Y305835D01*
X366421Y305915D01*
X366468Y305993D01*
X366519Y306069D01*
X366572Y306142D01*
X366629Y306213D01*
X366690Y306282D01*
X366753Y306347D01*
X366818Y306410D01*
X366887Y306470D01*
X366958Y306528D01*
X367031Y306581D01*
X367107Y306632D01*
X367185Y306679D01*
X367265Y306723D01*
X367347Y306763D01*
X367430Y306800D01*
X367515Y306833D01*
X367601Y306862D01*
X367689Y306888D01*
X367777Y306910D01*
X367866Y306927D01*
X367956Y306941D01*
X368047Y306951D01*
X368138Y306957D01*
X368229Y306959D01*
X370318Y306959D01*
X373787Y304871D02*
X376397Y306959D01*
X376397Y297561D01*
X373787Y297561D02*
X379008Y297561D01*
X382930Y300172D02*
X382932Y300273D01*
X382938Y300374D01*
X382948Y300475D01*
X382961Y300575D01*
X382979Y300675D01*
X383000Y300774D01*
X383026Y300872D01*
X383055Y300969D01*
X383087Y301065D01*
X383124Y301159D01*
X383164Y301252D01*
X383208Y301344D01*
X383255Y301433D01*
X383306Y301521D01*
X383360Y301607D01*
X383417Y301690D01*
X383477Y301772D01*
X383541Y301850D01*
X383607Y301927D01*
X383677Y302000D01*
X383749Y302071D01*
X383824Y302139D01*
X383902Y302204D01*
X383982Y302266D01*
X384064Y302325D01*
X384149Y302381D01*
X384236Y302433D01*
X384324Y302482D01*
X384415Y302528D01*
X384507Y302569D01*
X384601Y302608D01*
X384696Y302642D01*
X384792Y302673D01*
X384890Y302700D01*
X384988Y302724D01*
X385088Y302743D01*
X385188Y302759D01*
X385288Y302771D01*
X385389Y302779D01*
X385490Y302783D01*
X385592Y302783D01*
X385693Y302779D01*
X385794Y302771D01*
X385894Y302759D01*
X385994Y302743D01*
X386094Y302724D01*
X386192Y302700D01*
X386290Y302673D01*
X386386Y302642D01*
X386481Y302608D01*
X386575Y302569D01*
X386667Y302528D01*
X386758Y302482D01*
X386847Y302433D01*
X386933Y302381D01*
X387018Y302325D01*
X387100Y302266D01*
X387180Y302204D01*
X387258Y302139D01*
X387333Y302071D01*
X387405Y302000D01*
X387475Y301927D01*
X387541Y301850D01*
X387605Y301772D01*
X387665Y301690D01*
X387722Y301607D01*
X387776Y301521D01*
X387827Y301433D01*
X387874Y301344D01*
X387918Y301252D01*
X387958Y301159D01*
X387995Y301065D01*
X388027Y300969D01*
X388056Y300872D01*
X388082Y300774D01*
X388103Y300675D01*
X388121Y300575D01*
X388134Y300475D01*
X388144Y300374D01*
X388150Y300273D01*
X388152Y300172D01*
X388150Y300071D01*
X388144Y299970D01*
X388134Y299869D01*
X388121Y299769D01*
X388103Y299669D01*
X388082Y299570D01*
X388056Y299472D01*
X388027Y299375D01*
X387995Y299279D01*
X387958Y299185D01*
X387918Y299092D01*
X387874Y299000D01*
X387827Y298911D01*
X387776Y298823D01*
X387722Y298737D01*
X387665Y298654D01*
X387605Y298572D01*
X387541Y298494D01*
X387475Y298417D01*
X387405Y298344D01*
X387333Y298273D01*
X387258Y298205D01*
X387180Y298140D01*
X387100Y298078D01*
X387018Y298019D01*
X386933Y297963D01*
X386846Y297911D01*
X386758Y297862D01*
X386667Y297816D01*
X386575Y297775D01*
X386481Y297736D01*
X386386Y297702D01*
X386290Y297671D01*
X386192Y297644D01*
X386094Y297620D01*
X385994Y297601D01*
X385894Y297585D01*
X385794Y297573D01*
X385693Y297565D01*
X385592Y297561D01*
X385490Y297561D01*
X385389Y297565D01*
X385288Y297573D01*
X385188Y297585D01*
X385088Y297601D01*
X384988Y297620D01*
X384890Y297644D01*
X384792Y297671D01*
X384696Y297702D01*
X384601Y297736D01*
X384507Y297775D01*
X384415Y297816D01*
X384324Y297862D01*
X384236Y297911D01*
X384149Y297963D01*
X384064Y298019D01*
X383982Y298078D01*
X383902Y298140D01*
X383824Y298205D01*
X383749Y298273D01*
X383677Y298344D01*
X383607Y298417D01*
X383541Y298494D01*
X383477Y298572D01*
X383417Y298654D01*
X383360Y298737D01*
X383306Y298823D01*
X383255Y298911D01*
X383208Y299000D01*
X383164Y299092D01*
X383124Y299185D01*
X383087Y299279D01*
X383055Y299375D01*
X383026Y299472D01*
X383000Y299570D01*
X382979Y299669D01*
X382961Y299769D01*
X382948Y299869D01*
X382938Y299970D01*
X382932Y300071D01*
X382930Y300172D01*
X383453Y304871D02*
X383455Y304961D01*
X383461Y305050D01*
X383470Y305140D01*
X383484Y305229D01*
X383501Y305317D01*
X383522Y305404D01*
X383547Y305491D01*
X383576Y305576D01*
X383608Y305660D01*
X383643Y305742D01*
X383683Y305823D01*
X383725Y305902D01*
X383771Y305979D01*
X383821Y306054D01*
X383873Y306127D01*
X383929Y306198D01*
X383987Y306266D01*
X384049Y306331D01*
X384113Y306394D01*
X384180Y306454D01*
X384249Y306511D01*
X384321Y306565D01*
X384395Y306616D01*
X384471Y306664D01*
X384549Y306708D01*
X384629Y306749D01*
X384711Y306787D01*
X384794Y306821D01*
X384879Y306851D01*
X384965Y306878D01*
X385051Y306901D01*
X385139Y306920D01*
X385228Y306935D01*
X385317Y306947D01*
X385406Y306955D01*
X385496Y306959D01*
X385586Y306959D01*
X385676Y306955D01*
X385765Y306947D01*
X385854Y306935D01*
X385943Y306920D01*
X386031Y306901D01*
X386117Y306878D01*
X386203Y306851D01*
X386288Y306821D01*
X386371Y306787D01*
X386453Y306749D01*
X386533Y306708D01*
X386611Y306664D01*
X386687Y306616D01*
X386761Y306565D01*
X386833Y306511D01*
X386902Y306454D01*
X386969Y306394D01*
X387033Y306331D01*
X387095Y306266D01*
X387153Y306198D01*
X387209Y306127D01*
X387261Y306054D01*
X387311Y305979D01*
X387357Y305902D01*
X387399Y305823D01*
X387439Y305742D01*
X387474Y305660D01*
X387506Y305576D01*
X387535Y305491D01*
X387560Y305404D01*
X387581Y305317D01*
X387598Y305229D01*
X387612Y305140D01*
X387621Y305050D01*
X387627Y304961D01*
X387629Y304871D01*
X387627Y304781D01*
X387621Y304692D01*
X387612Y304602D01*
X387598Y304513D01*
X387581Y304425D01*
X387560Y304338D01*
X387535Y304251D01*
X387506Y304166D01*
X387474Y304082D01*
X387439Y304000D01*
X387399Y303919D01*
X387357Y303840D01*
X387311Y303763D01*
X387261Y303688D01*
X387209Y303615D01*
X387153Y303544D01*
X387095Y303476D01*
X387033Y303411D01*
X386969Y303348D01*
X386902Y303288D01*
X386833Y303231D01*
X386761Y303177D01*
X386687Y303126D01*
X386611Y303078D01*
X386533Y303034D01*
X386453Y302993D01*
X386371Y302955D01*
X386288Y302921D01*
X386203Y302891D01*
X386117Y302864D01*
X386031Y302841D01*
X385943Y302822D01*
X385854Y302807D01*
X385765Y302795D01*
X385676Y302787D01*
X385586Y302783D01*
X385496Y302783D01*
X385406Y302787D01*
X385317Y302795D01*
X385228Y302807D01*
X385139Y302822D01*
X385051Y302841D01*
X384965Y302864D01*
X384879Y302891D01*
X384794Y302921D01*
X384711Y302955D01*
X384629Y302993D01*
X384549Y303034D01*
X384471Y303078D01*
X384395Y303126D01*
X384321Y303177D01*
X384249Y303231D01*
X384180Y303288D01*
X384113Y303348D01*
X384049Y303411D01*
X383987Y303476D01*
X383929Y303544D01*
X383873Y303615D01*
X383821Y303688D01*
X383771Y303763D01*
X383725Y303840D01*
X383683Y303919D01*
X383643Y304000D01*
X383608Y304082D01*
X383576Y304166D01*
X383547Y304251D01*
X383522Y304338D01*
X383501Y304425D01*
X383484Y304513D01*
X383470Y304602D01*
X383461Y304692D01*
X383455Y304781D01*
X383453Y304871D01*
M02*
