G04 EAGLE Gerber RS-274X export*
G75*
%MOMM*%
%FSLAX34Y34*%
%LPD*%
%INSolderpaste Top*%
%IPPOS*%
%AMOC8*
5,1,8,0,0,1.08239X$1,22.5*%
G01*
%ADD10R,0.800000X0.800000*%
%ADD11R,1.000000X1.100000*%
%ADD12R,1.200000X0.600000*%
%ADD13R,1.400000X1.000000*%
%ADD14R,1.100000X1.000000*%


D10*
X233800Y315976D03*
X248800Y315976D03*
D11*
X445607Y311658D03*
X462607Y311658D03*
X233816Y333120D03*
X250816Y333120D03*
D12*
X341690Y280670D03*
X341690Y293370D03*
X341690Y306070D03*
X341690Y318770D03*
X341690Y331470D03*
X341690Y344170D03*
X341690Y356870D03*
X341690Y369570D03*
X285690Y369570D03*
X285690Y356870D03*
X285690Y344170D03*
X285690Y331470D03*
X285690Y318770D03*
X285690Y306070D03*
X285690Y293370D03*
X285690Y280670D03*
D13*
X359840Y278740D03*
X359840Y259740D03*
X381840Y269240D03*
D11*
X367030Y335670D03*
X367030Y352670D03*
D14*
X334890Y265430D03*
X317890Y265430D03*
X281060Y246380D03*
X298060Y246380D03*
X334890Y247650D03*
X317890Y247650D03*
D11*
X342020Y408940D03*
X359020Y408940D03*
D14*
X325510Y387350D03*
X342510Y387350D03*
D11*
X265430Y372990D03*
X265430Y355990D03*
X417440Y271780D03*
X400440Y271780D03*
X399660Y287020D03*
X382660Y287020D03*
D14*
X307340Y387740D03*
X307340Y404740D03*
D11*
X381390Y332740D03*
X398390Y332740D03*
M02*
