M48
;GenerationSoftware,Autodesk,EAGLE,9.3.0*%
;CreationDate,2020-02-10T16:19:52Z*%
FMAT,2
ICI,OFF
METRIC,TZ,000.000
T2C0.350
T1C1.100
%
G90
M71
T1
X41283Y36195
X27529Y45801
X31029Y45801
X34529Y45801
X38029Y45801
X41529Y45801
X41283Y39695
T2
X43180Y26543
X44196Y28956
X33274Y31623
X26543Y38608
X26797Y29083
X36830Y37719
X24130Y25908
X43815Y30099
X23876Y40894
X43815Y43688
X45593Y35636
X32131Y33147
X34544Y22225
X36703Y30861
X37592Y29972
X46609Y39878
X24511Y34973
X25197Y39497
X31496Y28702
X27524Y33309
X26670Y32512
X36830Y39370
X25908Y33909
X32131Y34290
X25527Y30988
X31496Y30654
X37592Y22606
X31369Y26035
X37592Y26543
X45085Y27305
M30